<svg width="129" height="107" viewBox="0 0 129 107" fill="none" xmlns="http://www.w3.org/2000/svg">
<path d="M29.9878 24.189C29.1418 24.189 28.3888 23.988 27.7288 23.586C27.0748 23.178 26.5618 22.617 26.1898 21.903C25.8178 21.189 25.6318 20.37 25.6318 19.446C25.6318 18.462 25.8358 17.589 26.2438 16.827C26.6518 16.065 27.2158 15.468 27.9358 15.036C28.6618 14.598 29.4898 14.379 30.4198 14.379C31.0738 14.379 31.6588 14.484 32.1748 14.694C32.6908 14.904 33.0988 15.186 33.3988 15.54C33.6988 15.888 33.8488 16.278 33.8488 16.71C33.8488 17.052 33.7558 17.319 33.5698 17.511C33.3898 17.697 33.1408 17.79 32.8228 17.79C32.4688 17.79 32.2138 17.688 32.0578 17.484C31.9078 17.274 31.8088 16.992 31.7608 16.638C31.7008 16.092 31.5808 15.699 31.4008 15.459C31.2208 15.219 30.9148 15.099 30.4828 15.099C29.6788 15.099 29.0518 15.447 28.6018 16.143C28.1578 16.833 27.9358 17.769 27.9358 18.951C27.9358 20.139 28.1698 21.048 28.6378 21.678C29.1118 22.308 29.7898 22.623 30.6718 22.623C31.2658 22.623 31.7938 22.515 32.2558 22.299C32.7178 22.077 33.1348 21.72 33.5068 21.228L33.9208 21.489C33.5728 22.371 33.0658 23.043 32.3998 23.505C31.7398 23.961 30.9358 24.189 29.9878 24.189ZM40.0714 24.189C39.0934 24.189 38.2384 23.973 37.5064 23.541C36.7804 23.103 36.2164 22.515 35.8144 21.777C35.4124 21.033 35.2114 20.202 35.2114 19.284C35.2114 18.36 35.4124 17.529 35.8144 16.791C36.2164 16.053 36.7804 15.468 37.5064 15.036C38.2384 14.598 39.0934 14.379 40.0714 14.379C41.0494 14.379 41.8984 14.598 42.6184 15.036C43.3444 15.468 43.9084 16.053 44.3104 16.791C44.7184 17.529 44.9224 18.36 44.9224 19.284C44.9224 20.202 44.7184 21.033 44.3104 21.777C43.9084 22.515 43.3444 23.103 42.6184 23.541C41.8984 23.973 41.0494 24.189 40.0714 24.189ZM40.0534 23.334C40.4914 23.334 40.8664 23.226 41.1784 23.01C41.4964 22.794 41.7574 22.497 41.9614 22.119C42.1654 21.741 42.3154 21.309 42.4114 20.823C42.5134 20.337 42.5644 19.821 42.5644 19.275C42.5644 18.735 42.5164 18.222 42.4204 17.736C42.3244 17.25 42.1744 16.821 41.9704 16.449C41.7724 16.071 41.5144 15.774 41.1964 15.558C40.8844 15.342 40.5094 15.234 40.0714 15.234C39.6334 15.234 39.2554 15.342 38.9374 15.558C38.6194 15.774 38.3584 16.071 38.1544 16.449C37.9564 16.821 37.8094 17.25 37.7134 17.736C37.6174 18.222 37.5694 18.738 37.5694 19.284C37.5694 19.83 37.6174 20.346 37.7134 20.832C37.8094 21.318 37.9564 21.75 38.1544 22.128C38.3584 22.5 38.6164 22.794 38.9284 23.01C39.2464 23.226 39.6214 23.334 40.0534 23.334ZM46.1665 24V23.523L47.5075 23.226V16.062L46.1845 15.558V15.252L49.1725 14.379H49.5775V15.837L49.6585 15.927V23.226L50.9545 23.523V24H46.1665ZM51.9445 24V23.523L53.2495 23.235V18.006C53.2495 17.154 53.1175 16.542 52.8535 16.17C52.5955 15.798 52.1725 15.612 51.5845 15.612C51.1345 15.612 50.7205 15.72 50.3425 15.936C49.9705 16.146 49.6405 16.452 49.3525 16.854V15.963C49.8265 15.471 50.3755 15.084 50.9995 14.802C51.6295 14.52 52.2535 14.379 52.8715 14.379C53.7295 14.379 54.3625 14.613 54.7705 15.081C55.1845 15.543 55.3915 16.269 55.3915 17.259V23.235L56.6965 23.523V24H51.9445ZM57.6865 24V23.523L58.9825 23.235V17.97C58.9825 17.112 58.8565 16.506 58.6045 16.152C58.3585 15.798 57.9385 15.621 57.3445 15.621C56.8765 15.621 56.4535 15.726 56.0755 15.936C55.7035 16.146 55.3765 16.455 55.0945 16.863V15.963C55.5385 15.453 56.0785 15.063 56.7145 14.793C57.3565 14.517 58.0015 14.379 58.6495 14.379C59.4895 14.379 60.1075 14.616 60.5035 15.09C60.8995 15.558 61.1035 16.299 61.1155 17.313V23.235L62.4205 23.523V24H57.6865ZM68.0928 24.189C67.1868 24.189 66.3918 23.991 65.7078 23.595C65.0238 23.193 64.4928 22.635 64.1148 21.921C63.7428 21.201 63.5568 20.37 63.5568 19.428C63.5568 18.426 63.7668 17.547 64.1868 16.791C64.6068 16.035 65.1918 15.444 65.9418 15.018C66.6978 14.592 67.5708 14.379 68.5608 14.379C69.8088 14.379 70.7598 14.733 71.4138 15.441C72.0738 16.143 72.4188 17.175 72.4488 18.537L72.3228 18.654H65.0778V18.033L70.0908 17.853C70.1388 17.709 70.1628 17.475 70.1628 17.151C70.1628 15.771 69.5628 15.081 68.3628 15.081C67.5528 15.081 66.9288 15.408 66.4908 16.062C66.0588 16.716 65.8428 17.643 65.8428 18.843C65.8428 21.387 66.8268 22.659 68.7948 22.659C70.1028 22.659 71.1138 22.191 71.8278 21.255L72.2148 21.534C71.9028 22.374 71.3838 23.028 70.6578 23.496C69.9378 23.958 69.0828 24.189 68.0928 24.189ZM78.2046 24.189C77.3586 24.189 76.6056 23.988 75.9456 23.586C75.2916 23.178 74.7786 22.617 74.4066 21.903C74.0346 21.189 73.8486 20.37 73.8486 19.446C73.8486 18.462 74.0526 17.589 74.4606 16.827C74.8686 16.065 75.4326 15.468 76.1526 15.036C76.8786 14.598 77.7066 14.379 78.6366 14.379C79.2906 14.379 79.8756 14.484 80.3916 14.694C80.9076 14.904 81.3156 15.186 81.6156 15.54C81.9156 15.888 82.0656 16.278 82.0656 16.71C82.0656 17.052 81.9726 17.319 81.7866 17.511C81.6066 17.697 81.3576 17.79 81.0396 17.79C80.6856 17.79 80.4306 17.688 80.2746 17.484C80.1246 17.274 80.0256 16.992 79.9776 16.638C79.9176 16.092 79.7976 15.699 79.6176 15.459C79.4376 15.219 79.1316 15.099 78.6996 15.099C77.8956 15.099 77.2686 15.447 76.8186 16.143C76.3746 16.833 76.1526 17.769 76.1526 18.951C76.1526 20.139 76.3866 21.048 76.8546 21.678C77.3286 22.308 78.0066 22.623 78.8886 22.623C79.4826 22.623 80.0106 22.515 80.4726 22.299C80.9346 22.077 81.3516 21.72 81.7236 21.228L82.1376 21.489C81.7896 22.371 81.2826 23.043 80.6166 23.505C79.9566 23.961 79.1526 24.189 78.2046 24.189ZM87.9912 24.189C87.0852 24.189 86.2902 23.991 85.6062 23.595C84.9222 23.193 84.3912 22.635 84.0132 21.921C83.6412 21.201 83.4552 20.37 83.4552 19.428C83.4552 18.426 83.6652 17.547 84.0852 16.791C84.5052 16.035 85.0902 15.444 85.8402 15.018C86.5962 14.592 87.4692 14.379 88.4592 14.379C89.7072 14.379 90.6582 14.733 91.3122 15.441C91.9722 16.143 92.3172 17.175 92.3472 18.537L92.2212 18.654H84.9762V18.033L89.9892 17.853C90.0372 17.709 90.0612 17.475 90.0612 17.151C90.0612 15.771 89.4612 15.081 88.2612 15.081C87.4512 15.081 86.8272 15.408 86.3892 16.062C85.9572 16.716 85.7412 17.643 85.7412 18.843C85.7412 21.387 86.7252 22.659 88.6932 22.659C90.0012 22.659 91.0122 22.191 91.7262 21.255L92.1132 21.534C91.8012 22.374 91.2822 23.028 90.5562 23.496C89.8362 23.958 88.9812 24.189 87.9912 24.189ZM57.8529 42.189C57.1809 42.189 56.6409 41.994 56.2329 41.604C55.8309 41.208 55.6299 40.686 55.6299 40.038C55.6299 39.486 55.7979 39.012 56.1339 38.616C56.4759 38.214 57.0159 37.869 57.7539 37.581C58.4919 37.287 59.4579 37.032 60.6519 36.816V35.259C60.6519 34.485 60.5559 33.951 60.3639 33.657C60.1779 33.357 59.8449 33.207 59.3649 33.207C58.8849 33.207 58.5039 33.324 58.2219 33.558C57.9399 33.786 57.7989 34.098 57.7989 34.494C57.7989 34.614 57.8079 34.734 57.8259 34.854C57.8439 34.974 57.8529 35.088 57.8529 35.196C57.8529 35.514 57.7509 35.778 57.5469 35.988C57.3489 36.192 57.0999 36.294 56.7999 36.294C56.5119 36.294 56.2779 36.201 56.0979 36.015C55.9179 35.829 55.8279 35.586 55.8279 35.286C55.8279 34.902 55.9809 34.512 56.2869 34.116C56.5989 33.714 57.0159 33.366 57.5379 33.072C58.3419 32.61 59.2539 32.379 60.2739 32.379C60.8379 32.379 61.3059 32.46 61.6779 32.622C62.0499 32.778 62.3229 33.003 62.4969 33.297C62.6049 33.507 62.6799 33.777 62.7219 34.107C62.7699 34.431 62.7939 34.947 62.7939 35.655V39.561C62.7939 40.125 62.8419 40.518 62.9379 40.74C63.0339 40.956 63.2079 41.064 63.4599 41.064C63.7479 41.064 64.0269 40.905 64.2969 40.587L64.6479 40.983C64.3239 41.403 63.9909 41.709 63.6489 41.901C63.3069 42.093 62.9169 42.189 62.4789 42.189C61.9629 42.189 61.5639 42.063 61.2819 41.811C60.9999 41.553 60.8139 41.166 60.7239 40.65H60.6699C60.2919 41.136 59.8599 41.514 59.3739 41.784C58.8939 42.054 58.3869 42.189 57.8529 42.189ZM58.9959 40.866C59.3259 40.866 59.6319 40.788 59.9139 40.632C60.2019 40.47 60.4479 40.245 60.6519 39.957V37.464C59.9199 37.608 59.3469 37.767 58.9329 37.941C58.5189 38.109 58.2249 38.319 58.0509 38.571C57.8829 38.817 57.7989 39.132 57.7989 39.516C57.7989 39.954 57.8979 40.29 58.0959 40.524C58.2999 40.752 58.5999 40.866 58.9959 40.866ZM70.1725 46.455V46.077L72.2065 45.726V40.965C71.4265 41.781 70.4905 42.189 69.3985 42.189C68.6125 42.189 67.9195 42 67.3195 41.622C66.7255 41.238 66.2605 40.707 65.9245 40.029C65.5885 39.345 65.4205 38.559 65.4205 37.671C65.4205 36.585 65.6185 35.646 66.0145 34.854C66.4165 34.062 66.9775 33.453 67.6975 33.027C68.4175 32.595 69.2545 32.379 70.2085 32.379C71.1505 32.379 72.0115 32.652 72.7915 33.198H72.8815L73.9705 32.604H74.3395V45.726L75.7615 46.077V46.455H70.1725ZM70.2985 41.091C70.6945 41.091 71.0515 41.007 71.3695 40.839C71.6935 40.671 71.9725 40.443 72.2065 40.155V35.358C72.2065 34.686 72.0355 34.146 71.6935 33.738C71.3575 33.324 70.9135 33.117 70.3615 33.117C69.5995 33.117 68.9845 33.456 68.5165 34.134C68.0485 34.806 67.8145 35.817 67.8145 37.167C67.8145 38.391 68.0335 39.351 68.4715 40.047C68.9155 40.743 69.5245 41.091 70.2985 41.091ZM80.2002 42.189C79.2882 42.189 78.6102 41.964 78.1662 41.514C77.7282 41.058 77.5092 40.395 77.5092 39.525V33.333L76.1772 33.027V32.559H79.6512V38.841C79.6512 39.639 79.7922 40.185 80.0742 40.479C80.3622 40.767 80.8032 40.911 81.3972 40.911C81.7932 40.911 82.1802 40.806 82.5582 40.596C82.9362 40.38 83.2692 40.047 83.5572 39.597V40.497C83.1132 41.031 82.6002 41.448 82.0182 41.748C81.4362 42.042 80.8302 42.189 80.2002 42.189ZM83.3772 42.189V40.569L83.2872 40.506V33.333L81.9822 33.027V32.559H85.4292V40.56L86.6982 41.01V41.307L83.6112 42.189H83.3772ZM87.7032 42V41.523L89.1162 41.226V34.044L87.7212 33.558V33.234L91.0152 32.379H91.2672V41.226L92.6442 41.523V42H87.7032ZM90.1782 30.678C89.7702 30.678 89.4492 30.549 89.2152 30.291C88.9812 30.033 88.8642 29.739 88.8642 29.409C88.8642 29.049 88.9812 28.743 89.2152 28.491C89.4552 28.233 89.7762 28.104 90.1782 28.104C90.5862 28.104 90.9102 28.233 91.1502 28.491C91.3902 28.743 91.5102 29.049 91.5102 29.409C91.5102 29.739 91.3932 30.033 91.1592 30.291C90.9252 30.549 90.5982 30.678 90.1782 30.678Z" fill="white"/>
<path d="M93 91L108 103L123 91" stroke="white" stroke-width="3"/>
<line x1="108" y1="103" x2="108" y2="14" stroke="white" stroke-width="2"/>
</svg>
