<svg width="1004" height="436" viewBox="0 0 1004 436" fill="none" xmlns="http://www.w3.org/2000/svg">
<path d="M386.037 386.564C381.212 386.564 376.578 385.76 372.136 384.152C367.694 382.543 363.711 380.093 360.188 376.799C356.742 373.505 354.022 369.37 352.031 364.392C350.04 359.413 349.044 353.554 349.044 346.814C349.044 340.074 350.04 334.215 352.031 329.237C354.099 324.259 356.857 320.123 360.303 316.829C363.75 313.536 367.694 311.085 372.136 309.477C376.578 307.868 381.212 307.064 386.037 307.064C390.862 307.064 395.496 307.868 399.938 309.477C404.38 311.085 408.324 313.536 411.771 316.829C415.218 320.123 417.937 324.259 419.928 329.237C421.996 334.215 423.03 340.074 423.03 346.814C423.03 353.554 422.034 359.413 420.043 364.392C418.052 369.37 415.294 373.505 411.771 376.799C408.324 380.093 404.38 382.543 399.938 384.152C395.496 385.76 390.862 386.564 386.037 386.564ZM386.037 379.556C389.33 379.556 391.934 378.216 393.849 375.535C395.84 372.778 397.257 368.949 398.1 364.047C399.019 359.145 399.479 353.401 399.479 346.814C399.479 340.228 399.019 334.483 398.1 329.582C397.257 324.68 395.84 320.85 393.849 318.093C391.934 315.336 389.33 313.957 386.037 313.957C382.82 313.957 380.216 315.336 378.225 318.093C376.234 320.85 374.779 324.68 373.859 329.582C373.017 334.483 372.596 340.228 372.596 346.814C372.596 353.401 373.017 359.145 373.859 364.047C374.779 368.949 376.234 372.778 378.225 375.535C380.216 378.216 382.82 379.556 386.037 379.556Z" fill="white"/>
<path d="M428.364 384.381V378.522L433.534 377.373C433.611 374.616 433.649 371.668 433.649 368.527C433.649 365.387 433.649 362.63 433.649 360.256V312.579L427.445 311.774V306.605L453.638 301.435L455.592 302.699L455.132 318.668V333.143C459.651 328.701 465.089 326.48 471.446 326.48C475.658 326.48 479.488 327.59 482.934 329.811C486.381 331.956 489.1 335.211 491.091 339.576C493.159 343.866 494.193 349.303 494.193 355.89C494.193 362.171 493.006 367.57 490.631 372.089C488.257 376.607 485.155 380.093 481.326 382.544C477.573 384.918 473.552 386.104 469.263 386.104C465.97 386.104 463.097 385.53 460.647 384.381C458.196 383.309 456.051 381.739 454.213 379.671L451.915 386.104L428.364 384.381ZM460.876 337.853C459.881 337.853 458.923 338.006 458.004 338.313C457.162 338.619 456.319 339.04 455.477 339.576V373.467C457.008 374.54 458.808 375.076 460.876 375.076C463.94 375.076 466.391 373.505 468.229 370.365C470.067 367.225 470.986 362.4 470.986 355.89C470.986 349.303 470.067 344.67 468.229 341.989C466.391 339.232 463.94 337.853 460.876 337.853Z" fill="white"/>
<path d="M520.392 386.104C512.426 386.104 505.38 384.228 499.253 380.475L499.827 365.77H510.282L512.12 377.718C513.422 378.254 514.762 378.676 516.141 378.982C517.52 379.212 518.937 379.327 520.392 379.327C523.302 379.327 525.562 378.867 527.17 377.948C528.779 377.029 529.583 375.497 529.583 373.352C529.583 371.821 528.97 370.442 527.744 369.217C526.595 367.991 524.106 366.881 520.277 365.885L513.729 364.162C509.21 362.936 505.763 360.792 503.389 357.728C501.015 354.588 499.827 350.797 499.827 346.355C499.827 340.61 502.01 335.862 506.376 332.109C510.818 328.356 517.175 326.48 525.447 326.48C528.97 326.48 532.225 326.863 535.212 327.629C538.276 328.394 541.378 329.543 544.518 331.075L543.599 344.057H533.029L530.502 333.832C529.736 333.679 528.893 333.564 527.974 333.488C527.132 333.334 526.098 333.258 524.872 333.258C522.728 333.258 520.89 333.756 519.358 334.751C517.903 335.67 517.175 337.126 517.175 339.117C517.175 340.342 517.711 341.53 518.783 342.678C519.856 343.827 522.383 344.938 526.366 346.01L532.799 347.733C538.161 349.188 541.99 351.448 544.288 354.511C546.662 357.575 547.849 361.366 547.849 365.885C547.849 372.625 545.36 377.68 540.382 381.05C535.48 384.42 528.817 386.104 520.392 386.104Z" fill="white"/>
<path d="M581.957 332.683C580.196 332.683 578.702 333.985 577.477 336.589C576.251 339.194 575.562 344.057 575.409 351.18H580.809C583.566 351.18 585.404 350.643 586.323 349.572C587.319 348.423 587.817 346.393 587.817 343.482C587.817 339.5 587.204 336.704 585.978 335.096C584.83 333.488 583.489 332.683 581.957 332.683ZM582.302 386.104C576.558 386.104 571.426 384.918 566.907 382.544C562.465 380.169 558.942 376.761 556.338 372.319C553.734 367.8 552.432 362.4 552.432 356.12C552.432 351.142 553.313 346.814 555.074 343.138C556.836 339.462 559.21 336.398 562.197 333.947C565.184 331.42 568.516 329.543 572.192 328.318C575.869 327.092 579.583 326.48 583.336 326.48C588.85 326.48 593.408 327.629 597.007 329.926C600.683 332.147 603.441 335.173 605.279 339.002C607.117 342.755 608.036 346.967 608.036 351.639C608.036 352.865 607.998 353.937 607.921 354.856C607.845 355.699 607.691 356.656 607.462 357.728H575.524C576.137 363.319 577.783 367.379 580.464 369.906C583.221 372.434 586.285 373.697 589.655 373.697C592.565 373.697 595.054 373.199 597.122 372.204C599.266 371.131 601.143 369.83 602.752 368.298L607.232 372.663C604.781 377.335 601.411 380.743 597.122 382.888C592.91 385.033 587.97 386.104 582.302 386.104Z" fill="white"/>
<path d="M612.789 384.267V378.407L618.303 377.144C618.379 374.386 618.418 371.476 618.418 368.413C618.418 365.272 618.418 362.515 618.418 360.141V352.903C618.418 350.758 618.379 349.035 618.303 347.733C618.303 346.431 618.265 345.244 618.188 344.172C618.188 343.023 618.15 341.683 618.073 340.151L611.87 339.117V334.407L637.259 326.48L639.327 327.743L640.246 341.07C641.778 336.092 643.961 332.415 646.794 330.041C649.705 327.667 652.539 326.48 655.296 326.48C658.13 326.48 660.504 327.322 662.419 329.007C664.41 330.616 665.595 333.181 665.981 336.704C665.827 339.768 664.909 342.181 663.223 343.942C661.538 345.627 659.546 346.47 657.249 346.47C653.726 346.47 650.509 344.363 647.598 340.151L647.024 339.347C645.646 340.879 644.267 342.87 642.888 345.321C641.586 347.772 640.705 350.299 640.246 352.903V360.141C640.246 362.362 640.246 364.966 640.246 367.953C640.246 370.94 640.284 373.774 640.361 376.454L649.322 378.407V384.267H612.789Z" fill="white"/>
<path d="M707.561 333.717V328.318H729.16V333.717L722.268 334.866L703.312 384.267H692.969L672.519 334.866L667.007 333.717V328.318H701.586V333.717L695.498 335.096L705.032 361.519L713.877 334.981L707.561 333.717Z" fill="white"/>
<path d="M773.832 386.104C770.232 386.104 767.321 385.415 765.101 384.037C762.958 382.582 761.387 380.552 760.393 377.948C758.168 380.399 755.912 382.39 753.614 383.922C751.389 385.377 748.211 386.104 744.079 386.104C739.557 386.104 735.92 384.803 733.164 382.198C730.481 379.595 729.142 375.956 729.142 371.285C729.142 368.298 729.795 365.655 731.094 363.357C732.474 360.983 734.849 358.839 738.218 356.924C741.664 354.933 746.49 353.133 752.692 351.524C753.614 351.295 754.686 351.027 755.911 350.72C757.137 350.337 758.4 349.993 759.703 349.686V345.551C759.703 340.649 759.126 337.279 757.977 335.441C756.906 333.602 754.572 332.683 750.972 332.683C750.663 332.683 750.359 332.683 750.05 332.683C749.823 332.683 749.555 332.683 749.246 332.683V336.589C749.246 341.261 748.288 344.593 746.377 346.584C744.461 348.499 742.277 349.457 739.825 349.457C735.153 349.457 732.243 347.389 731.094 343.253C731.094 338.274 733.432 334.254 738.104 331.19C742.854 328.05 749.859 326.48 759.126 326.48C767.094 326.48 772.684 328.241 775.898 331.764C779.194 335.211 780.843 340.879 780.843 348.767V375.076C780.843 376.378 781.492 377.029 782.795 377.029C783.253 377.029 783.712 376.876 784.171 376.569C784.634 376.187 785.206 375.497 785.896 374.501L789.229 376.34C787.848 379.863 785.932 382.39 783.48 383.922C781.11 385.377 777.891 386.104 773.832 386.104ZM748.901 367.723C748.901 370.557 749.478 372.663 750.627 374.042C751.775 375.421 753.192 376.11 754.876 376.11C755.412 376.11 755.989 375.995 756.602 375.765C757.287 375.459 758.322 374.846 759.703 373.927V355.086C758.554 355.392 757.442 355.814 756.37 356.35C754.763 357.116 753.115 358.417 751.43 360.256C749.746 362.094 748.901 364.583 748.901 367.723Z" fill="white"/>
<path d="M791.531 384.381V378.522L796.697 377.373C796.775 374.616 796.815 371.668 796.815 368.527C796.815 365.387 796.815 362.63 796.815 360.256V312.579L790.609 311.774V306.605L816.802 301.435L818.754 302.699L818.296 318.668V333.143C822.818 328.701 828.253 326.48 834.609 326.48C838.823 326.48 842.655 327.59 846.101 329.811C849.547 331.956 852.267 335.211 854.255 339.576C856.326 343.866 857.356 349.303 857.356 355.89C857.356 362.171 856.171 367.57 853.797 372.089C851.422 376.607 848.321 380.093 844.489 382.544C840.739 384.918 836.716 386.104 832.43 386.104C829.134 386.104 826.264 385.53 823.812 384.381C821.361 383.309 819.218 381.739 817.379 379.671L815.081 386.104L791.531 384.381ZM824.039 337.853C823.045 337.853 822.087 338.006 821.17 338.313C820.325 338.619 819.485 339.04 818.641 339.576V373.467C820.176 374.54 821.974 375.076 824.039 375.076C827.104 375.076 829.556 373.505 831.395 370.365C833.234 367.225 834.151 362.4 834.151 355.89C834.151 349.303 833.234 344.67 831.395 341.989C829.556 339.232 827.104 337.853 824.039 337.853Z" fill="white"/>
<path d="M862.991 384.267V378.407L868.162 377.259C868.24 374.348 868.276 371.476 868.276 368.642C868.353 365.808 868.394 362.975 868.394 360.141V312.923L862.187 311.774V306.605L888.726 301.435L890.678 302.699L890.219 318.668V360.141C890.219 362.975 890.219 365.847 890.219 368.757C890.297 371.591 890.374 374.463 890.451 377.373L895.618 378.407V384.267H862.991Z" fill="white"/>
<path d="M930.315 332.683C928.554 332.683 927.06 333.985 925.834 336.589C924.608 339.194 923.918 344.057 923.764 351.18H929.162C931.923 351.18 933.761 350.643 934.679 349.572C935.673 348.423 936.172 346.393 936.172 343.482C936.172 339.5 935.559 336.704 934.333 335.096C933.185 333.488 931.845 332.683 930.315 332.683ZM930.656 386.104C924.912 386.104 919.782 384.918 915.264 382.544C910.819 380.169 907.296 376.761 904.694 372.319C902.088 367.8 900.789 362.4 900.789 356.12C900.789 351.142 901.67 346.814 903.432 343.138C905.194 339.462 907.568 336.398 910.551 333.947C913.539 331.42 916.871 329.543 920.549 328.318C924.222 327.092 927.941 326.48 931.691 326.48C937.208 326.48 941.762 327.629 945.362 329.926C949.04 332.147 951.796 335.173 953.634 339.002C955.473 342.755 956.391 346.967 956.391 351.639C956.391 352.865 956.354 353.937 956.277 354.856C956.2 355.699 956.045 356.656 955.818 357.728H923.882C924.495 363.319 926.138 367.379 928.821 369.906C931.577 372.434 934.642 373.697 938.011 373.697C940.922 373.697 943.41 373.199 945.48 372.204C947.623 371.131 949.498 369.83 951.106 368.298L955.587 372.663C953.135 377.335 949.766 380.743 945.48 382.888C941.267 385.033 936.327 386.104 930.656 386.104Z" fill="white"/>
<path d="M259.4 383.833C254.804 383.833 250.821 382.838 247.452 380.846C244.096 378.863 241.412 376.053 239.707 372.736C237.894 369.285 236.567 365.635 235.758 361.875C234.899 357.798 234.481 353.653 234.509 349.5C234.509 346.212 234.725 343.068 235.16 340.062C235.592 337.06 236.392 334.008 237.558 330.91C238.724 327.813 240.226 325.127 242.055 322.85C243.96 320.516 246.423 318.617 249.253 317.299C252.223 315.876 255.6 315.167 259.4 315.167C263.997 315.167 267.98 316.162 271.349 318.154C274.705 320.137 277.389 322.947 279.094 326.264C280.894 329.678 282.21 333.298 283.043 337.125C283.873 340.947 284.292 345.075 284.292 349.5C284.292 352.788 284.077 355.932 283.641 358.938C283.177 362.059 282.356 365.126 281.193 368.089C279.99 371.187 278.496 373.873 276.696 376.15C274.896 378.428 272.514 380.278 269.548 381.701C266.582 383.124 263.201 383.833 259.4 383.833ZM268.187 358.59C270.568 356.212 271.892 352.923 271.846 349.5C271.846 345.964 270.656 342.934 268.278 340.41C265.897 337.887 262.939 336.625 259.4 336.625C255.862 336.625 252.904 337.887 250.522 340.41C248.191 342.814 246.903 346.095 246.955 349.5C246.955 353.036 248.145 356.066 250.522 358.59C252.904 361.113 255.862 362.375 259.4 362.375C262.939 362.375 265.868 361.113 268.187 358.59ZM259.4 401C286.893 401 309.184 377.941 309.184 349.5C309.184 321.059 286.893 298 259.4 298C231.908 298 209.617 321.059 209.617 349.5C209.617 377.941 231.908 401 259.4 401Z" fill="white"/>
<path d="M634.532 237V235.765L637.743 234.967V210.058L634.532 209.279V208.063H646.825C649.004 208.063 650.897 208.405 652.506 209.089C654.115 209.773 655.362 210.755 656.249 212.034C657.136 213.301 657.579 214.833 657.579 216.632C657.579 219.267 656.578 221.3 654.577 222.731C652.588 224.15 649.802 224.859 646.217 224.859H643.481V234.967L648.041 235.765V237H634.532ZM643.481 222.997H644.488C645.767 222.997 646.831 222.858 647.68 222.579C648.529 222.288 649.238 221.863 649.808 221.306C650.391 220.723 650.809 220.02 651.062 219.197C651.315 218.374 651.442 217.405 651.442 216.29C651.442 214.998 651.265 213.909 650.91 213.022C650.568 212.135 650.074 211.464 649.428 211.008C648.579 210.286 647.148 209.925 645.134 209.925H643.481V222.997ZM659.716 237V235.841L662.547 235.138V220.337L659.716 219.273V218.494L666.86 216.689H667.544V220.337L667.696 220.527V235.138L672.294 235.841V237H659.716ZM667.335 222.75V220.527C668.323 219.273 669.298 218.317 670.261 217.658C671.223 216.987 672.148 216.651 673.035 216.651C673.896 216.651 674.612 216.911 675.182 217.43C675.752 217.937 676.037 218.564 676.037 219.311C676.037 220.02 675.815 220.622 675.372 221.116C674.941 221.597 674.403 221.838 673.757 221.838C673.111 221.838 672.534 221.604 672.028 221.135C671.698 220.818 671.407 220.597 671.154 220.47C670.9 220.331 670.634 220.261 670.356 220.261C669.938 220.261 669.431 220.502 668.836 220.983C668.24 221.464 667.74 222.053 667.335 222.75ZM687.858 237.399C685.679 237.399 683.804 236.937 682.234 236.012C680.663 235.087 679.46 233.84 678.624 232.269C677.788 230.698 677.37 228.957 677.37 227.044C677.37 225.119 677.788 223.377 678.624 221.819C679.46 220.248 680.663 219.001 682.234 218.076C683.804 217.151 685.679 216.689 687.858 216.689C690.036 216.689 691.905 217.151 693.463 218.076C695.033 219.001 696.237 220.248 697.073 221.819C697.921 223.377 698.346 225.119 698.346 227.044C698.346 228.957 697.921 230.698 697.073 232.269C696.237 233.84 695.033 235.087 693.463 236.012C691.905 236.937 690.036 237.399 687.858 237.399ZM687.858 235.518C688.77 235.518 689.536 235.271 690.157 234.777C690.777 234.283 691.271 233.624 691.639 232.801C692.006 231.965 692.272 231.047 692.437 230.046C692.601 229.045 692.684 228.038 692.684 227.025C692.684 226.024 692.601 225.024 692.437 224.023C692.285 223.022 692.025 222.11 691.658 221.287C691.29 220.464 690.796 219.805 690.176 219.311C689.555 218.817 688.782 218.57 687.858 218.57C686.933 218.57 686.16 218.817 685.54 219.311C684.919 219.805 684.425 220.464 684.058 221.287C683.69 222.11 683.424 223.029 683.26 224.042C683.108 225.043 683.032 226.043 683.032 227.044C683.032 228.057 683.108 229.064 683.26 230.065C683.424 231.053 683.69 231.965 684.058 232.801C684.425 233.624 684.919 234.283 685.54 234.777C686.16 235.271 686.933 235.518 687.858 235.518ZM714.607 218.095C714.848 217.424 715.158 216.746 715.538 216.062C715.931 215.378 716.412 214.808 716.982 214.352C717.552 213.883 718.23 213.649 719.015 213.649C719.724 213.649 720.326 213.839 720.82 214.219C721.314 214.599 721.561 215.118 721.561 215.777C721.561 216.309 721.384 216.79 721.029 217.221C720.674 217.639 720.187 217.848 719.566 217.848C719.161 217.848 718.85 217.766 718.635 217.601C718.42 217.436 718.217 217.272 718.027 217.107C717.85 216.942 717.596 216.86 717.267 216.86C716.836 216.86 716.513 217.063 716.298 217.468C716.083 217.873 715.918 218.342 715.804 218.874L714.607 218.095ZM710.123 229.191C710.908 229.191 711.516 228.893 711.947 228.298C712.39 227.69 712.701 226.949 712.878 226.075C713.055 225.201 713.144 224.352 713.144 223.529C713.144 223.01 713.106 222.446 713.03 221.838C712.967 221.217 712.827 220.635 712.612 220.09C712.409 219.533 712.118 219.077 711.738 218.722C711.371 218.355 710.889 218.171 710.294 218.171C709.686 218.171 709.179 218.367 708.774 218.76C708.381 219.14 708.071 219.634 707.843 220.242C707.628 220.85 707.476 221.49 707.387 222.161C707.298 222.82 707.254 223.421 707.254 223.966C707.254 224.65 707.33 225.404 707.482 226.227C707.634 227.038 707.913 227.734 708.318 228.317C708.736 228.9 709.338 229.191 710.123 229.191ZM710.104 230.73C708.685 230.73 707.691 230.876 707.121 231.167C706.551 231.446 706.266 231.832 706.266 232.326C706.266 232.782 706.589 233.149 707.235 233.428C707.894 233.707 709.148 234.004 710.997 234.321L713.733 234.796C715.975 235.163 717.628 235.778 718.692 236.639C719.769 237.488 720.307 238.634 720.307 240.078C720.307 241.319 719.965 242.371 719.281 243.232C718.597 244.106 717.685 244.809 716.545 245.341C715.418 245.886 714.157 246.278 712.764 246.519C711.383 246.772 709.984 246.899 708.565 246.899C707.501 246.899 706.45 246.81 705.411 246.633C704.372 246.456 703.429 246.171 702.58 245.778C701.731 245.398 701.054 244.891 700.547 244.258C700.04 243.637 699.787 242.884 699.787 241.997C699.787 241.009 700.18 240.103 700.965 239.28C701.75 238.469 703.08 237.697 704.955 236.962L706.399 237.551C705.639 237.969 705.044 238.533 704.613 239.242C704.195 239.951 703.986 240.699 703.986 241.484C703.986 242.333 704.246 243.029 704.765 243.574C705.284 244.119 705.968 244.524 706.817 244.79C707.666 245.056 708.571 245.189 709.534 245.189C710.598 245.189 711.656 245.075 712.707 244.847C713.771 244.619 714.651 244.264 715.348 243.783C716.057 243.302 716.412 242.675 716.412 241.902C716.412 241.446 716.26 241.041 715.956 240.686C715.652 240.331 715.095 240.002 714.284 239.698C713.486 239.407 712.346 239.122 710.864 238.843L707.729 238.254C705.677 237.861 704.208 237.317 703.321 236.62C702.434 235.911 701.991 235.049 701.991 234.036C701.991 233.428 702.181 232.845 702.561 232.288C702.941 231.718 703.549 231.224 704.385 230.806C705.234 230.388 706.348 230.097 707.729 229.932L710.104 230.73ZM710.104 230.73C708.622 230.73 707.26 230.451 706.019 229.894C704.778 229.324 703.783 228.513 703.036 227.462C702.289 226.398 701.915 225.144 701.915 223.7C701.915 222.357 702.27 221.16 702.979 220.109C703.701 219.045 704.683 218.209 705.924 217.601C707.165 216.993 708.565 216.689 710.123 216.689C711.63 216.689 713.017 216.98 714.284 217.563C715.551 218.146 716.564 218.956 717.324 219.995C718.097 221.034 718.483 222.237 718.483 223.605C718.483 224.796 718.135 225.942 717.438 227.044C716.741 228.133 715.766 229.02 714.512 229.704C713.258 230.388 711.789 230.73 710.104 230.73ZM722.208 237V235.841L725.039 235.138V220.337L722.208 219.273V218.494L729.352 216.689H730.036V220.337L730.188 220.527V235.138L734.786 235.841V237H722.208ZM729.827 222.75V220.527C730.815 219.273 731.79 218.317 732.753 217.658C733.716 216.987 734.64 216.651 735.527 216.651C736.388 216.651 737.104 216.911 737.674 217.43C738.244 217.937 738.529 218.564 738.529 219.311C738.529 220.02 738.307 220.622 737.864 221.116C737.433 221.597 736.895 221.838 736.249 221.838C735.603 221.838 735.027 221.604 734.52 221.135C734.191 220.818 733.899 220.597 733.646 220.47C733.393 220.331 733.127 220.261 732.848 220.261C732.43 220.261 731.923 220.502 731.328 220.983C730.733 221.464 730.232 222.053 729.827 222.75ZM744.931 237.399C743.462 237.399 742.29 236.994 741.416 236.183C740.542 235.36 740.105 234.264 740.105 232.896C740.105 231.693 740.479 230.654 741.226 229.78C741.986 228.893 743.164 228.146 744.76 227.538C746.356 226.917 748.408 226.404 750.916 225.999V222.978C750.916 221.306 750.739 220.172 750.384 219.577C750.042 218.969 749.39 218.665 748.427 218.665C747.452 218.665 746.679 218.899 746.109 219.368C745.539 219.837 745.254 220.476 745.254 221.287C745.254 221.553 745.273 221.819 745.311 222.085C745.362 222.351 745.387 222.611 745.387 222.864C745.387 223.561 745.153 224.137 744.684 224.593C744.228 225.049 743.652 225.277 742.955 225.277C742.284 225.277 741.739 225.062 741.321 224.631C740.916 224.188 740.713 223.618 740.713 222.921C740.713 222.123 741.005 221.319 741.587 220.508C742.17 219.697 742.968 218.982 743.981 218.361C745.831 217.246 747.984 216.689 750.441 216.689C751.708 216.689 752.747 216.854 753.557 217.183C754.368 217.512 754.97 217.987 755.362 218.608C755.628 219.064 755.818 219.653 755.932 220.375C756.046 221.084 756.103 222.161 756.103 223.605V231.604C756.103 232.757 756.205 233.574 756.407 234.055C756.623 234.536 756.99 234.777 757.509 234.777C758.092 234.777 758.668 234.46 759.238 233.827L760.036 234.853C759.289 235.727 758.51 236.373 757.699 236.791C756.901 237.196 756.002 237.399 755.001 237.399C753.836 237.399 752.949 237.146 752.341 236.639C751.733 236.12 751.334 235.334 751.144 234.283H750.992C750.131 235.309 749.187 236.088 748.161 236.62C747.148 237.139 746.071 237.399 744.931 237.399ZM747.876 234.207C748.484 234.207 749.048 234.08 749.567 233.827C750.099 233.574 750.549 233.206 750.916 232.725V227.576C749.548 227.842 748.472 228.146 747.686 228.488C746.901 228.817 746.35 229.229 746.033 229.723C745.717 230.204 745.558 230.819 745.558 231.566C745.558 232.44 745.748 233.099 746.128 233.542C746.508 233.985 747.091 234.207 747.876 234.207ZM760.949 237V235.841L763.761 235.138V220.337L761.006 219.292V218.532L767.618 216.689H768.796V219.539L768.948 219.729V235.138L771.646 235.841V237H760.949ZM773.337 237V235.841L776.035 235.157V224.707C776.035 222.896 775.763 221.597 775.218 220.812C774.674 220.027 773.781 219.634 772.539 219.634C771.602 219.634 770.772 219.849 770.05 220.28C769.341 220.698 768.708 221.319 768.15 222.142V219.995C769.1 218.982 770.253 218.177 771.608 217.582C772.964 216.987 774.319 216.689 775.674 216.689C777.562 216.689 778.955 217.221 779.854 218.285C780.754 219.349 781.203 221.015 781.203 223.282V235.157L783.901 235.841V237H773.337ZM785.611 237V235.841L788.29 235.157V224.669C788.29 222.845 788.037 221.559 787.53 220.812C787.024 220.052 786.15 219.672 784.908 219.672C783.971 219.672 783.129 219.881 782.381 220.299C781.647 220.704 780.988 221.325 780.405 222.161V219.995C781.317 218.969 782.457 218.165 783.825 217.582C785.206 216.987 786.599 216.689 788.005 216.689C789.867 216.689 791.235 217.227 792.109 218.304C792.983 219.368 793.433 221.046 793.458 223.339V235.157L796.156 235.841V237H785.611ZM803.304 237.399C801.835 237.399 800.663 236.994 799.789 236.183C798.915 235.36 798.478 234.264 798.478 232.896C798.478 231.693 798.852 230.654 799.599 229.78C800.359 228.893 801.537 228.146 803.133 227.538C804.729 226.917 806.781 226.404 809.289 225.999V222.978C809.289 221.306 809.112 220.172 808.757 219.577C808.415 218.969 807.763 218.665 806.8 218.665C805.825 218.665 805.052 218.899 804.482 219.368C803.912 219.837 803.627 220.476 803.627 221.287C803.627 221.553 803.646 221.819 803.684 222.085C803.735 222.351 803.76 222.611 803.76 222.864C803.76 223.561 803.526 224.137 803.057 224.593C802.601 225.049 802.025 225.277 801.328 225.277C800.657 225.277 800.112 225.062 799.694 224.631C799.289 224.188 799.086 223.618 799.086 222.921C799.086 222.123 799.378 221.319 799.96 220.508C800.543 219.697 801.341 218.982 802.354 218.361C804.204 217.246 806.357 216.689 808.814 216.689C810.081 216.689 811.12 216.854 811.93 217.183C812.741 217.512 813.343 217.987 813.735 218.608C814.001 219.064 814.191 219.653 814.305 220.375C814.419 221.084 814.476 222.161 814.476 223.605V231.604C814.476 232.757 814.578 233.574 814.78 234.055C814.996 234.536 815.363 234.777 815.882 234.777C816.465 234.777 817.041 234.46 817.611 233.827L818.409 234.853C817.662 235.727 816.883 236.373 816.072 236.791C815.274 237.196 814.375 237.399 813.374 237.399C812.209 237.399 811.322 237.146 810.714 236.639C810.106 236.12 809.707 235.334 809.517 234.283H809.365C808.504 235.309 807.56 236.088 806.534 236.62C805.521 237.139 804.444 237.399 803.304 237.399ZM806.249 234.207C806.857 234.207 807.421 234.08 807.94 233.827C808.472 233.574 808.922 233.206 809.289 232.725V227.576C807.921 227.842 806.845 228.146 806.059 228.488C805.274 228.817 804.723 229.229 804.406 229.723C804.09 230.204 803.931 230.819 803.931 231.566C803.931 232.44 804.121 233.099 804.501 233.542C804.881 233.985 805.464 234.207 806.249 234.207ZM832.166 237V235.841L834.845 235.157V224.232C834.845 222.699 834.535 221.566 833.914 220.831C833.306 220.084 832.363 219.71 831.083 219.71C829.373 219.71 827.986 220.457 826.922 221.952V219.843C827.872 218.88 828.962 218.114 830.19 217.544C831.432 216.974 832.768 216.689 834.199 216.689C838.088 216.689 840.032 218.728 840.032 222.807V235.157L842.844 235.841V237H832.166ZM819.341 237V235.841L822.191 235.138V220.337L819.341 219.292V218.532L826.485 216.689H827.169V219.957L827.34 220.147V235.138L830.038 235.841V237H819.341ZM853.391 237.399C851.833 237.399 850.42 236.962 849.154 236.088C847.887 235.214 846.886 234.023 846.152 232.516C845.417 230.996 845.05 229.28 845.05 227.367C845.05 225.264 845.48 223.415 846.342 221.819C847.203 220.21 848.394 218.956 849.914 218.057C851.446 217.145 853.213 216.689 855.215 216.689C856.646 216.689 858.071 216.968 859.49 217.525V209.45L856.412 208.386V207.626L863.955 205.783H864.658V233.542L867.508 234.359V235.024L860.326 237.399H859.775V234.815L859.585 234.739C858.812 235.6 857.894 236.259 856.83 236.715C855.766 237.171 854.619 237.399 853.391 237.399ZM855.557 234.758C856.367 234.758 857.115 234.574 857.799 234.207C858.483 233.84 859.046 233.339 859.49 232.706V222.978C859.49 221.597 859.148 220.502 858.464 219.691C857.792 218.868 856.874 218.456 855.709 218.456C854.227 218.456 853.03 219.216 852.118 220.736C851.206 222.256 850.75 224.257 850.75 226.74C850.75 229.197 851.174 231.148 852.023 232.592C852.871 234.036 854.049 234.758 855.557 234.758ZM880.084 237.399C877.906 237.399 876.031 236.937 874.46 236.012C872.89 235.087 871.686 233.84 870.85 232.269C870.014 230.698 869.596 228.957 869.596 227.044C869.596 225.119 870.014 223.377 870.85 221.819C871.686 220.248 872.89 219.001 874.46 218.076C876.031 217.151 877.906 216.689 880.084 216.689C882.263 216.689 884.131 217.151 885.689 218.076C887.26 219.001 888.463 220.248 889.299 221.819C890.148 223.377 890.572 225.119 890.572 227.044C890.572 228.957 890.148 230.698 889.299 232.269C888.463 233.84 887.26 235.087 885.689 236.012C884.131 236.937 882.263 237.399 880.084 237.399ZM880.084 235.518C880.996 235.518 881.763 235.271 882.383 234.777C883.004 234.283 883.498 233.624 883.865 232.801C884.233 231.965 884.499 231.047 884.663 230.046C884.828 229.045 884.91 228.038 884.91 227.025C884.91 226.024 884.828 225.024 884.663 224.023C884.511 223.022 884.252 222.11 883.884 221.287C883.517 220.464 883.023 219.805 882.402 219.311C881.782 218.817 881.009 218.57 880.084 218.57C879.16 218.57 878.387 218.817 877.766 219.311C877.146 219.805 876.652 220.464 876.284 221.287C875.917 222.11 875.651 223.029 875.486 224.042C875.334 225.043 875.258 226.043 875.258 227.044C875.258 228.057 875.334 229.064 875.486 230.065C875.651 231.053 875.917 231.965 876.284 232.801C876.652 233.624 877.146 234.283 877.766 234.777C878.387 235.271 879.16 235.518 880.084 235.518ZM913.174 237.399C911.173 237.399 909.425 236.981 907.93 236.145C906.436 235.296 905.27 234.118 904.434 232.611C903.611 231.091 903.199 229.337 903.199 227.348C903.199 225.233 903.655 223.377 904.567 221.781C905.492 220.185 906.771 218.937 908.405 218.038C910.052 217.139 911.958 216.689 914.124 216.689C916.873 216.689 918.969 217.449 920.413 218.969C921.87 220.489 922.636 222.725 922.712 225.676L922.427 225.904H906.581V224.403L917.107 224.023C917.196 223.732 917.24 223.25 917.24 222.579C917.24 219.792 916.056 218.399 913.687 218.399C912.104 218.399 910.882 219.064 910.02 220.394C909.172 221.711 908.747 223.586 908.747 226.018C908.747 231.224 910.768 233.827 914.808 233.827C917.544 233.827 919.679 232.877 921.211 230.977L922.142 231.718C921.471 233.517 920.344 234.916 918.76 235.917C917.19 236.905 915.328 237.399 913.174 237.399ZM925.01 237V235.841L927.822 235.138V220.337L925.067 219.292V218.532L931.679 216.689H932.857V219.539L933.009 219.729V235.138L935.707 235.841V237H925.01ZM937.398 237V235.841L940.096 235.157V224.707C940.096 222.896 939.824 221.597 939.279 220.812C938.734 220.027 937.841 219.634 936.6 219.634C935.663 219.634 934.833 219.849 934.111 220.28C933.402 220.698 932.768 221.319 932.211 222.142V219.995C933.161 218.982 934.314 218.177 935.669 217.582C937.024 216.987 938.38 216.689 939.735 216.689C941.622 216.689 943.016 217.221 943.915 218.285C944.814 219.349 945.264 221.015 945.264 223.282V235.157L947.962 235.841V237H937.398ZM949.672 237V235.841L952.351 235.157V224.669C952.351 222.845 952.098 221.559 951.591 220.812C951.084 220.052 950.21 219.672 948.969 219.672C948.032 219.672 947.189 219.881 946.442 220.299C945.707 220.704 945.049 221.325 944.466 222.161V219.995C945.378 218.969 946.518 218.165 947.886 217.582C949.267 216.987 950.66 216.689 952.066 216.689C953.928 216.689 955.296 217.227 956.17 218.304C957.044 219.368 957.494 221.046 957.519 223.339V235.157L960.217 235.841V237H949.672ZM684.857 293.785C683.021 293.785 681.596 293.443 680.582 292.759C679.569 292.075 679.062 291.144 679.062 289.966C679.062 289.092 679.309 288.421 679.803 287.952C680.285 287.483 680.893 287.249 681.627 287.249C682.324 287.249 682.862 287.445 683.242 287.838C683.622 288.231 683.933 288.75 684.173 289.396C684.452 290.207 684.762 290.789 685.104 291.144C685.459 291.511 685.864 291.695 686.32 291.695C687.106 291.695 687.771 291.195 688.315 290.194C688.86 289.206 689.132 287.699 689.132 285.672V257.02L685.902 256.279V255.063H698.119V256.279L694.889 257.02V278.167C694.889 280.004 694.87 281.511 694.832 282.689C694.807 283.867 694.744 284.823 694.642 285.558C694.554 286.293 694.421 286.913 694.243 287.42C694.079 287.927 693.863 288.433 693.597 288.94C692.647 290.511 691.381 291.708 689.797 292.531C688.214 293.367 686.567 293.785 684.857 293.785ZM704.89 284.399C703.421 284.399 702.249 283.994 701.375 283.183C700.501 282.36 700.064 281.264 700.064 279.896C700.064 278.693 700.438 277.654 701.185 276.78C701.945 275.893 703.123 275.146 704.719 274.538C706.315 273.917 708.367 273.404 710.875 272.999V269.978C710.875 268.306 710.698 267.172 710.343 266.577C710.001 265.969 709.349 265.665 708.386 265.665C707.411 265.665 706.638 265.899 706.068 266.368C705.498 266.837 705.213 267.476 705.213 268.287C705.213 268.553 705.232 268.819 705.27 269.085C705.321 269.351 705.346 269.611 705.346 269.864C705.346 270.561 705.112 271.137 704.643 271.593C704.187 272.049 703.611 272.277 702.914 272.277C702.243 272.277 701.698 272.062 701.28 271.631C700.875 271.188 700.672 270.618 700.672 269.921C700.672 269.123 700.964 268.319 701.546 267.508C702.129 266.697 702.927 265.982 703.94 265.361C705.79 264.246 707.943 263.689 710.4 263.689C711.667 263.689 712.706 263.854 713.516 264.183C714.327 264.512 714.929 264.987 715.321 265.608C715.587 266.064 715.777 266.653 715.891 267.375C716.005 268.084 716.062 269.161 716.062 270.605V278.604C716.062 279.757 716.164 280.574 716.366 281.055C716.582 281.536 716.949 281.777 717.468 281.777C718.051 281.777 718.627 281.46 719.197 280.827L719.995 281.853C719.248 282.727 718.469 283.373 717.658 283.791C716.86 284.196 715.961 284.399 714.96 284.399C713.795 284.399 712.908 284.146 712.3 283.639C711.692 283.12 711.293 282.334 711.103 281.283H710.951C710.09 282.309 709.146 283.088 708.12 283.62C707.107 284.139 706.03 284.399 704.89 284.399ZM707.835 281.207C708.443 281.207 709.007 281.08 709.526 280.827C710.058 280.574 710.508 280.206 710.875 279.725V274.576C709.507 274.842 708.431 275.146 707.645 275.488C706.86 275.817 706.309 276.229 705.992 276.723C705.676 277.204 705.517 277.819 705.517 278.566C705.517 279.44 705.707 280.099 706.087 280.542C706.467 280.985 707.05 281.207 707.835 281.207ZM728.929 284.399L721.405 266.843C721.151 266.248 720.854 265.849 720.512 265.646C720.182 265.431 719.524 265.291 718.536 265.228V264.069H730.24V265.228C729.15 265.291 728.403 265.412 727.998 265.589C727.605 265.766 727.409 266.026 727.409 266.368C727.409 266.609 727.478 266.9 727.618 267.242L731.836 278.072H731.988L735.788 268.078C736.028 267.432 736.149 266.944 736.149 266.615C736.149 266.222 735.959 265.931 735.579 265.741C735.211 265.551 734.502 265.38 733.451 265.228V264.069H741.963V265.228C741 265.367 740.265 265.532 739.759 265.722C739.252 265.912 738.859 266.191 738.581 266.558C738.315 266.925 738.049 267.445 737.783 268.116L731.513 284.399H728.929ZM746.824 284.399C745.355 284.399 744.183 283.994 743.309 283.183C742.435 282.36 741.998 281.264 741.998 279.896C741.998 278.693 742.372 277.654 743.119 276.78C743.879 275.893 745.057 275.146 746.653 274.538C748.249 273.917 750.301 273.404 752.809 272.999V269.978C752.809 268.306 752.632 267.172 752.277 266.577C751.935 265.969 751.283 265.665 750.32 265.665C749.345 265.665 748.572 265.899 748.002 266.368C747.432 266.837 747.147 267.476 747.147 268.287C747.147 268.553 747.166 268.819 747.204 269.085C747.255 269.351 747.28 269.611 747.28 269.864C747.28 270.561 747.046 271.137 746.577 271.593C746.121 272.049 745.545 272.277 744.848 272.277C744.177 272.277 743.632 272.062 743.214 271.631C742.809 271.188 742.606 270.618 742.606 269.921C742.606 269.123 742.897 268.319 743.48 267.508C744.063 266.697 744.861 265.982 745.874 265.361C747.723 264.246 749.877 263.689 752.334 263.689C753.601 263.689 754.639 263.854 755.45 264.183C756.261 264.512 756.862 264.987 757.255 265.608C757.521 266.064 757.711 266.653 757.825 267.375C757.939 268.084 757.996 269.161 757.996 270.605V278.604C757.996 279.757 758.097 280.574 758.3 281.055C758.515 281.536 758.883 281.777 759.402 281.777C759.985 281.777 760.561 281.46 761.131 280.827L761.929 281.853C761.182 282.727 760.403 283.373 759.592 283.791C758.794 284.196 757.895 284.399 756.894 284.399C755.729 284.399 754.842 284.146 754.234 283.639C753.626 283.12 753.227 282.334 753.037 281.283H752.885C752.024 282.309 751.08 283.088 750.054 283.62C749.041 284.139 747.964 284.399 746.824 284.399ZM749.769 281.207C750.377 281.207 750.941 281.08 751.46 280.827C751.992 280.574 752.442 280.206 752.809 279.725V274.576C751.441 274.842 750.364 275.146 749.579 275.488C748.794 275.817 748.243 276.229 747.926 276.723C747.609 277.204 747.451 277.819 747.451 278.566C747.451 279.44 747.641 280.099 748.021 280.542C748.401 280.985 748.984 281.207 749.769 281.207ZM769.663 284.399C768.751 284.399 767.769 284.323 766.718 284.171C765.679 284.019 764.78 283.823 764.02 283.582L763.773 277.464H765.179C765.306 279.174 765.749 280.479 766.509 281.378C767.269 282.277 768.32 282.727 769.663 282.727C770.676 282.727 771.487 282.461 772.095 281.929C772.716 281.384 773.026 280.675 773.026 279.801C773.026 279.104 772.792 278.49 772.323 277.958C771.854 277.413 771.063 276.85 769.948 276.267L768.2 275.393C766.667 274.595 765.546 273.727 764.837 272.79C764.14 271.853 763.792 270.725 763.792 269.408C763.792 267.546 764.463 266.127 765.806 265.152C767.149 264.177 769.112 263.689 771.696 263.689C772.633 263.689 773.539 263.752 774.413 263.879C775.287 263.993 775.984 264.151 776.503 264.354V269.56H775.249C774.882 266.761 773.564 265.361 771.297 265.361C770.398 265.361 769.676 265.589 769.131 266.045C768.586 266.488 768.314 267.084 768.314 267.831C768.314 268.49 768.555 269.072 769.036 269.579C769.517 270.086 770.347 270.624 771.525 271.194L773.311 272.087C774.742 272.809 775.787 273.645 776.446 274.595C777.117 275.532 777.453 276.685 777.453 278.053C777.453 280.029 776.763 281.581 775.382 282.708C774.014 283.835 772.108 284.399 769.663 284.399ZM790.073 284.399C788.211 284.399 786.558 283.968 785.114 283.107C783.682 282.246 782.555 281.061 781.732 279.554C780.921 278.034 780.516 276.299 780.516 274.348C780.516 272.283 780.965 270.453 781.865 268.857C782.764 267.248 784.005 265.988 785.589 265.076C787.172 264.151 788.983 263.689 791.023 263.689C792.441 263.689 793.714 263.917 794.842 264.373C795.969 264.829 796.862 265.443 797.521 266.216C798.179 266.976 798.509 267.831 798.509 268.781C798.509 269.528 798.3 270.117 797.882 270.548C797.464 270.979 796.894 271.194 796.172 271.194C795.323 271.194 794.734 270.947 794.405 270.453C794.088 269.959 793.892 269.389 793.816 268.743C793.676 267.679 793.436 266.862 793.094 266.292C792.752 265.722 792.118 265.437 791.194 265.437C789.585 265.437 788.337 266.127 787.451 267.508C786.564 268.889 786.121 270.795 786.121 273.227C786.121 275.684 786.596 277.559 787.546 278.851C788.496 280.143 789.876 280.789 791.688 280.789C792.904 280.789 793.987 280.561 794.937 280.105C795.899 279.649 796.78 278.927 797.578 277.939L798.528 278.642C797.78 280.555 796.704 281.992 795.298 282.955C793.892 283.918 792.15 284.399 790.073 284.399ZM800.769 284V282.841L803.6 282.138V267.337L800.769 266.273V265.494L807.913 263.689H808.597V267.337L808.749 267.527V282.138L813.347 282.841V284H800.769ZM808.388 269.75V267.527C809.376 266.273 810.351 265.317 811.314 264.658C812.276 263.987 813.201 263.651 814.088 263.651C814.949 263.651 815.665 263.911 816.235 264.43C816.805 264.937 817.09 265.564 817.09 266.311C817.09 267.02 816.868 267.622 816.425 268.116C815.994 268.597 815.456 268.838 814.81 268.838C814.164 268.838 813.587 268.604 813.081 268.135C812.751 267.818 812.46 267.597 812.207 267.47C811.953 267.331 811.687 267.261 811.409 267.261C810.991 267.261 810.484 267.502 809.889 267.983C809.293 268.464 808.793 269.053 808.388 269.75ZM818.393 284V282.841L821.509 282.138V267.299L818.412 266.292V265.494L826.012 263.689H826.696V282.138L829.641 282.841V284H818.393ZM824.036 260.478C823.086 260.478 822.351 260.18 821.832 259.585C821.312 258.99 821.053 258.331 821.053 257.609C821.053 256.824 821.319 256.14 821.851 255.557C822.383 254.962 823.111 254.664 824.036 254.664C824.986 254.664 825.739 254.962 826.297 255.557C826.854 256.14 827.133 256.824 827.133 257.609C827.133 258.331 826.867 258.99 826.335 259.585C825.803 260.18 825.036 260.478 824.036 260.478ZM830.833 293.405V292.569L833.949 291.695V267.299L830.909 266.292V265.494L838.129 263.689H838.851V266.634H839.041C839.75 265.684 840.662 264.956 841.777 264.449C842.904 263.942 844.069 263.689 845.273 263.689C846.894 263.689 848.325 264.113 849.567 264.962C850.821 265.811 851.796 266.982 852.493 268.477C853.202 269.972 853.557 271.688 853.557 273.626C853.557 275.767 853.107 277.648 852.208 279.269C851.308 280.89 850.048 282.151 848.427 283.05C846.805 283.949 844.905 284.399 842.727 284.399C842.068 284.399 841.447 284.348 840.865 284.247C840.295 284.146 839.725 284 839.155 283.81V291.695L843.772 292.569V293.405H830.833ZM842.822 282.613C843.848 282.613 844.741 282.258 845.501 281.549C846.261 280.84 846.85 279.858 847.268 278.604C847.698 277.35 847.914 275.9 847.914 274.253C847.914 271.859 847.477 269.972 846.603 268.591C845.729 267.198 844.544 266.501 843.05 266.501C842.277 266.501 841.517 266.71 840.77 267.128C840.022 267.533 839.497 268.059 839.193 268.705V278.604C839.193 279.731 839.547 280.681 840.257 281.454C840.966 282.227 841.821 282.613 842.822 282.613ZM863.678 284.399C861.905 284.399 860.619 283.987 859.821 283.164C859.036 282.328 858.643 281.036 858.643 279.288V265.798H856.04L855.85 264.791L862.804 259.053L863.83 259.205V264.069H869.511L869.036 265.798H863.83V278.908C863.83 280.935 864.603 281.948 866.148 281.948C866.604 281.948 867.047 281.853 867.478 281.663C867.909 281.473 868.295 281.169 868.637 280.751L869.435 281.758C868.802 282.607 867.978 283.259 866.965 283.715C865.952 284.171 864.856 284.399 863.678 284.399ZM890.491 284.399C888.629 284.399 886.976 283.968 885.532 283.107C884.1 282.246 882.973 281.061 882.15 279.554C881.339 278.034 880.934 276.299 880.934 274.348C880.934 272.283 881.383 270.453 882.283 268.857C883.182 267.248 884.423 265.988 886.007 265.076C887.59 264.151 889.401 263.689 891.441 263.689C892.859 263.689 894.132 263.917 895.26 264.373C896.387 264.829 897.28 265.443 897.939 266.216C898.597 266.976 898.927 267.831 898.927 268.781C898.927 269.528 898.718 270.117 898.3 270.548C897.882 270.979 897.312 271.194 896.59 271.194C895.741 271.194 895.152 270.947 894.823 270.453C894.506 269.959 894.31 269.389 894.234 268.743C894.094 267.679 893.854 266.862 893.512 266.292C893.17 265.722 892.536 265.437 891.612 265.437C890.003 265.437 888.755 266.127 887.869 267.508C886.982 268.889 886.539 270.795 886.539 273.227C886.539 275.684 887.014 277.559 887.964 278.851C888.914 280.143 890.294 280.789 892.106 280.789C893.322 280.789 894.405 280.561 895.355 280.105C896.317 279.649 897.198 278.927 897.996 277.939L898.946 278.642C898.198 280.555 897.122 281.992 895.716 282.955C894.31 283.918 892.568 284.399 890.491 284.399ZM912.036 284.399C909.857 284.399 907.982 283.937 906.412 283.012C904.841 282.087 903.638 280.84 902.802 279.269C901.966 277.698 901.548 275.957 901.548 274.044C901.548 272.119 901.966 270.377 902.802 268.819C903.638 267.248 904.841 266.001 906.412 265.076C907.982 264.151 909.857 263.689 912.036 263.689C914.214 263.689 916.083 264.151 917.641 265.076C919.211 266.001 920.415 267.248 921.251 268.819C922.099 270.377 922.524 272.119 922.524 274.044C922.524 275.957 922.099 277.698 921.251 279.269C920.415 280.84 919.211 282.087 917.641 283.012C916.083 283.937 914.214 284.399 912.036 284.399ZM912.036 282.518C912.948 282.518 913.714 282.271 914.335 281.777C914.955 281.283 915.449 280.624 915.817 279.801C916.184 278.965 916.45 278.047 916.615 277.046C916.779 276.045 916.862 275.038 916.862 274.025C916.862 273.024 916.779 272.024 916.615 271.023C916.463 270.022 916.203 269.11 915.836 268.287C915.468 267.464 914.974 266.805 914.354 266.311C913.733 265.817 912.96 265.57 912.036 265.57C911.111 265.57 910.338 265.817 909.718 266.311C909.097 266.805 908.603 267.464 908.236 268.287C907.868 269.11 907.602 270.029 907.438 271.042C907.286 272.043 907.21 273.043 907.21 274.044C907.21 275.057 907.286 276.064 907.438 277.065C907.602 278.053 907.868 278.965 908.236 279.801C908.603 280.624 909.097 281.283 909.718 281.777C910.338 282.271 911.111 282.518 912.036 282.518ZM925.01 284V282.841L927.822 282.138V267.337L925.067 266.292V265.532L931.679 263.689H932.857V266.539L933.009 266.729V282.138L935.707 282.841V284H925.01ZM937.398 284V282.841L940.096 282.157V271.707C940.096 269.896 939.824 268.597 939.279 267.812C938.734 267.027 937.841 266.634 936.6 266.634C935.663 266.634 934.833 266.849 934.111 267.28C933.402 267.698 932.768 268.319 932.211 269.142V266.995C933.161 265.982 934.314 265.177 935.669 264.582C937.024 263.987 938.38 263.689 939.735 263.689C941.622 263.689 943.016 264.221 943.915 265.285C944.814 266.349 945.264 268.015 945.264 270.282V282.157L947.962 282.841V284H937.398ZM949.672 284V282.841L952.351 282.157V271.669C952.351 269.845 952.098 268.559 951.591 267.812C951.084 267.052 950.21 266.672 948.969 266.672C948.032 266.672 947.189 266.881 946.442 267.299C945.707 267.704 945.049 268.325 944.466 269.161V266.995C945.378 265.969 946.518 265.165 947.886 264.582C949.267 263.987 950.66 263.689 952.066 263.689C953.928 263.689 955.296 264.227 956.17 265.304C957.044 266.368 957.494 268.046 957.519 270.339V282.157L960.217 282.841V284H949.672Z" fill="white"/>
</svg>
