<svg width="2288" height="2288" viewBox="0 0 2288 2288" fill="none" xmlns="http://www.w3.org/2000/svg">
<g clip-path="url(#clip0_706_1217)">
<path d="M2138.09 1927.47L1354.62 1144L2090.01 408.609L2822.57 1141.17L2289.41 1674.33L1753.43 1138.34L2128.19 763.577" stroke="white" stroke-opacity="0.05" stroke-width="150"/>
<path d="M2235.63 2129.66L3221.37 1143.93L2235 157.564" stroke="white" stroke-opacity="0.1" stroke-width="150"/>
<rect x="2288" y="938.939" width="289.108" height="289.108" transform="rotate(45 2288 938.939)" fill="white" fill-opacity="0.08"/>
<path d="M994.189 3071.57L210.715 2288.1L946.106 1552.71L1678.67 2285.27L1145.51 2818.43L609.523 2282.44L984.29 1907.68" stroke="white" stroke-opacity="0.05" stroke-width="150"/>
<path d="M1091.73 3273.76L2077.47 2288.03L1091.09 1301.66" stroke="white" stroke-opacity="0.1" stroke-width="150"/>
<rect x="1144.1" y="2083.04" width="289.108" height="289.108" transform="rotate(45 1144.1 2083.04)" fill="white" fill-opacity="0.08"/>
<path d="M994.189 783.573L210.715 0.0986328L946.106 -735.292L1678.67 -2.72992L1145.51 530.429L609.523 -5.55825L984.29 -380.325" stroke="white" stroke-opacity="0.05" stroke-width="150"/>
<path d="M1091.73 985.759L2077.47 0.0264844L1091.09 -986.338" stroke="white" stroke-opacity="0.1" stroke-width="150"/>
<rect x="1144.1" y="-204.962" width="289.108" height="289.108" transform="rotate(45 1144.1 -204.962)" fill="white" fill-opacity="0.08"/>
<path d="M-149.811 1927.47L-933.285 1144L-197.894 408.609L534.668 1141.17L1.50996 1674.33L-534.477 1138.34L-159.71 763.577" stroke="white" stroke-opacity="0.05" stroke-width="150"/>
<path d="M-52.2746 2129.66L933.466 1143.93L-52.9064 157.564" stroke="white" stroke-opacity="0.1" stroke-width="150"/>
<rect x="0.0976562" y="938.939" width="289.108" height="289.108" transform="rotate(45 0.0976562 938.939)" fill="white" fill-opacity="0.08"/>
</g>
<defs>
<clipPath id="clip0_706_1217">
<rect width="2288" height="2288" fill="white"/>
</clipPath>
</defs>
</svg>
