<svg width="1004" height="436" viewBox="0 0 1004 436" fill="none" xmlns="http://www.w3.org/2000/svg">
<path d="M656.222 289V287.684C657.518 287.468 658.497 287.218 659.158 286.934C659.82 286.637 660.333 286.205 660.697 285.638C661.062 285.071 661.44 284.275 661.831 283.249L669.465 263.201L667.866 259.597L673.252 257.349L684.45 285.254C684.693 285.848 684.957 286.313 685.24 286.651C685.537 286.975 685.949 287.211 686.475 287.36C687.015 287.508 687.765 287.616 688.723 287.684V289H673.293V287.684C674.508 287.63 675.432 287.542 676.067 287.42C676.715 287.285 677.1 287.009 677.221 286.59C677.343 286.158 677.228 285.49 676.877 284.585L670.518 267.191H670.356L664.281 283.431C663.957 284.363 663.849 285.105 663.957 285.659C664.079 286.199 664.484 286.624 665.172 286.934C665.861 287.231 666.894 287.481 668.271 287.684V289H656.222ZM664.686 279.381V277.316H676.998V279.381H664.686ZM689.096 289V287.765L692.113 287.015V271.241L689.096 270.107V269.276L696.71 267.353H697.439V271.241L697.601 271.443V287.015L702.501 287.765V289H689.096ZM697.216 273.812V271.443C698.269 270.107 699.308 269.087 700.334 268.385C701.36 267.67 702.346 267.312 703.291 267.312C704.209 267.312 704.972 267.589 705.579 268.142C706.187 268.682 706.49 269.351 706.49 270.147C706.49 270.903 706.254 271.544 705.782 272.071C705.323 272.584 704.749 272.84 704.06 272.84C703.372 272.84 702.758 272.591 702.218 272.091C701.867 271.754 701.556 271.517 701.286 271.382C701.016 271.234 700.733 271.16 700.436 271.16C699.99 271.16 699.45 271.416 698.816 271.929C698.181 272.442 697.648 273.07 697.216 273.812ZM716 289.425C714.11 289.425 712.739 288.986 711.889 288.109C711.052 287.218 710.633 285.841 710.633 283.978V269.6H707.859L707.657 268.527L715.068 262.412L716.162 262.574V267.758H722.216L721.71 269.6H716.162V283.573C716.162 285.733 716.985 286.813 718.632 286.813C719.118 286.813 719.591 286.712 720.05 286.509C720.509 286.307 720.92 285.983 721.285 285.537L722.135 286.61C721.46 287.515 720.583 288.21 719.503 288.696C718.423 289.182 717.255 289.425 716 289.425ZM734.66 289.425C732.527 289.425 730.664 288.98 729.071 288.089C727.478 287.184 726.236 285.929 725.345 284.322C724.467 282.702 724.028 280.832 724.028 278.713C724.028 276.458 724.514 274.481 725.486 272.78C726.472 271.079 727.835 269.749 729.577 268.79C731.332 267.832 733.364 267.353 735.672 267.353C738.602 267.353 740.836 268.163 742.375 269.783C743.927 271.403 744.744 273.785 744.825 276.931L744.521 277.174H727.633V275.574L738.851 275.169C738.946 274.859 738.993 274.346 738.993 273.63C738.993 270.66 737.731 269.175 735.206 269.175C733.519 269.175 732.216 269.884 731.298 271.301C730.394 272.705 729.941 274.703 729.941 277.295C729.941 282.844 732.095 285.618 736.401 285.618C739.317 285.618 741.592 284.606 743.225 282.581L744.218 283.37C743.502 285.287 742.301 286.779 740.613 287.846C738.939 288.899 736.955 289.425 734.66 289.425ZM804.822 289.425C801.784 289.425 799.111 288.777 796.803 287.481C794.508 286.185 792.719 284.383 791.437 282.074C790.168 279.752 789.533 277.066 789.533 274.015C789.533 271.639 789.918 269.459 790.687 267.474C791.457 265.49 792.544 263.768 793.948 262.31C795.365 260.852 797.032 259.725 798.949 258.929C800.88 258.132 802.999 257.734 805.308 257.734C807.022 257.734 808.629 257.957 810.127 258.402C811.639 258.834 812.875 259.435 813.833 260.204H813.975L815.858 258.159H817.033V267.798H815.494C814.589 265.868 813.678 264.335 812.76 263.201C811.842 262.067 810.836 261.251 809.743 260.751C808.663 260.238 807.407 259.982 805.976 259.982C802.817 259.982 800.441 261.143 798.848 263.465C797.269 265.787 796.479 269.263 796.479 273.893C796.479 278.483 797.174 281.858 798.565 284.018C799.969 286.165 802.122 287.238 805.024 287.238C806.226 287.238 807.306 287.029 808.264 286.61C809.223 286.192 809.945 285.611 810.431 284.869C810.607 284.626 810.715 284.363 810.755 284.079C810.809 283.796 810.836 283.337 810.836 282.702V275.615L807.232 274.845V273.549H820.516V274.845L816.952 275.615V285.74C816.142 286.442 815.068 287.069 813.732 287.623C812.409 288.176 810.964 288.615 809.398 288.939C807.846 289.263 806.32 289.425 804.822 289.425ZM833.537 289.425C831.404 289.425 829.541 288.98 827.948 288.089C826.355 287.184 825.113 285.929 824.222 284.322C823.344 282.702 822.905 280.832 822.905 278.713C822.905 276.458 823.391 274.481 824.363 272.78C825.349 271.079 826.712 269.749 828.454 268.79C830.209 267.832 832.241 267.353 834.549 267.353C837.479 267.353 839.713 268.163 841.252 269.783C842.804 271.403 843.621 273.785 843.702 276.931L843.398 277.174H826.51V275.574L837.728 275.169C837.823 274.859 837.87 274.346 837.87 273.63C837.87 270.66 836.608 269.175 834.083 269.175C832.396 269.175 831.093 269.884 830.175 271.301C829.271 272.705 828.818 274.703 828.818 277.295C828.818 282.844 830.972 285.618 835.278 285.618C838.194 285.618 840.469 284.606 842.102 282.581L843.095 283.37C842.379 285.287 841.178 286.779 839.49 287.846C837.816 288.899 835.832 289.425 833.537 289.425ZM846.191 289V287.765L849.209 287.015V271.241L846.191 270.107V269.276L853.805 267.353H854.534V271.241L854.696 271.443V287.015L859.597 287.765V289H846.191ZM854.312 273.812V271.443C855.365 270.107 856.404 269.087 857.43 268.385C858.456 267.67 859.442 267.312 860.387 267.312C861.305 267.312 862.067 267.589 862.675 268.142C863.282 268.682 863.586 269.351 863.586 270.147C863.586 270.903 863.35 271.544 862.877 272.071C862.418 272.584 861.845 272.84 861.156 272.84C860.468 272.84 859.853 272.591 859.313 272.091C858.962 271.754 858.652 271.517 858.382 271.382C858.112 271.234 857.828 271.16 857.531 271.16C857.086 271.16 856.546 271.416 855.911 271.929C855.277 272.442 854.744 273.07 854.312 273.812ZM870.41 289.425C868.844 289.425 867.595 288.993 866.663 288.129C865.732 287.252 865.266 286.084 865.266 284.626C865.266 283.343 865.664 282.236 866.461 281.305C867.271 280.36 868.526 279.563 870.227 278.915C871.928 278.254 874.115 277.707 876.788 277.275V274.055C876.788 272.273 876.599 271.065 876.221 270.431C875.857 269.783 875.162 269.459 874.136 269.459C873.096 269.459 872.273 269.708 871.665 270.208C871.058 270.707 870.754 271.389 870.754 272.253C870.754 272.537 870.774 272.82 870.815 273.104C870.869 273.387 870.896 273.664 870.896 273.934C870.896 274.676 870.646 275.291 870.146 275.777C869.66 276.263 869.046 276.506 868.304 276.506C867.588 276.506 867.008 276.276 866.562 275.817C866.13 275.345 865.914 274.737 865.914 273.995C865.914 273.144 866.225 272.287 866.846 271.423C867.467 270.559 868.317 269.796 869.397 269.135C871.368 267.947 873.663 267.353 876.282 267.353C877.632 267.353 878.739 267.528 879.603 267.879C880.467 268.23 881.108 268.736 881.527 269.398C881.81 269.884 882.013 270.512 882.134 271.281C882.256 272.037 882.317 273.185 882.317 274.724V283.249C882.317 284.477 882.425 285.348 882.641 285.861C882.87 286.374 883.262 286.631 883.815 286.631C884.436 286.631 885.05 286.293 885.658 285.618L886.508 286.712C885.712 287.643 884.882 288.332 884.018 288.777C883.167 289.209 882.209 289.425 881.142 289.425C879.9 289.425 878.955 289.155 878.307 288.615C877.659 288.062 877.234 287.225 877.031 286.104H876.869C875.951 287.198 874.946 288.028 873.852 288.595C872.772 289.149 871.625 289.425 870.41 289.425ZM873.548 286.023C874.196 286.023 874.797 285.888 875.351 285.618C875.918 285.348 876.397 284.957 876.788 284.444V278.956C875.33 279.239 874.183 279.563 873.346 279.928C872.509 280.279 871.922 280.718 871.584 281.244C871.247 281.757 871.078 282.412 871.078 283.208C871.078 284.14 871.28 284.842 871.685 285.314C872.09 285.787 872.711 286.023 873.548 286.023ZM895.521 289.425C893.631 289.425 892.26 288.986 891.41 288.109C890.573 287.218 890.154 285.841 890.154 283.978V269.6H887.38L887.178 268.527L894.589 262.412L895.683 262.574V267.758H901.737L901.231 269.6H895.683V283.573C895.683 285.733 896.506 286.813 898.153 286.813C898.639 286.813 899.112 286.712 899.571 286.509C900.03 286.307 900.441 285.983 900.806 285.537L901.656 286.61C900.981 287.515 900.104 288.21 899.024 288.696C897.944 289.182 896.776 289.425 895.521 289.425ZM903.023 289V287.765L906.344 287.015V271.2L903.043 270.127V269.276L911.143 267.353H911.872V287.015L915.011 287.765V289H903.023ZM909.037 263.93C908.025 263.93 907.242 263.613 906.688 262.979C906.135 262.344 905.858 261.642 905.858 260.873C905.858 260.036 906.141 259.307 906.708 258.686C907.275 258.051 908.052 257.734 909.037 257.734C910.05 257.734 910.853 258.051 911.447 258.686C912.041 259.307 912.338 260.036 912.338 260.873C912.338 261.642 912.054 262.344 911.487 262.979C910.92 263.613 910.104 263.93 909.037 263.93ZM925.969 289.425L917.95 270.714C917.68 270.08 917.363 269.654 916.999 269.438C916.648 269.209 915.946 269.06 914.893 268.993V267.758H927.367V268.993C926.206 269.06 925.409 269.189 924.977 269.378C924.559 269.567 924.349 269.843 924.349 270.208C924.349 270.464 924.424 270.775 924.572 271.139L929.068 282.682H929.23L933.28 272.03C933.536 271.342 933.664 270.822 933.664 270.471C933.664 270.053 933.462 269.742 933.057 269.54C932.665 269.337 931.909 269.155 930.789 268.993V267.758H939.861V268.993C938.835 269.141 938.052 269.317 937.512 269.519C936.972 269.722 936.553 270.019 936.256 270.41C935.973 270.802 935.689 271.355 935.406 272.071L928.723 289.425H925.969ZM945.042 289.425C943.476 289.425 942.227 288.993 941.296 288.129C940.364 287.252 939.899 286.084 939.899 284.626C939.899 283.343 940.297 282.236 941.093 281.305C941.903 280.36 943.159 279.563 944.86 278.915C946.561 278.254 948.748 277.707 951.421 277.275V274.055C951.421 272.273 951.232 271.065 950.854 270.431C950.489 269.783 949.794 269.459 948.768 269.459C947.729 269.459 946.905 269.708 946.298 270.208C945.69 270.707 945.386 271.389 945.386 272.253C945.386 272.537 945.407 272.82 945.447 273.104C945.501 273.387 945.528 273.664 945.528 273.934C945.528 274.676 945.278 275.291 944.779 275.777C944.293 276.263 943.679 276.506 942.936 276.506C942.221 276.506 941.64 276.276 941.195 275.817C940.763 275.345 940.547 274.737 940.547 273.995C940.547 273.144 940.857 272.287 941.478 271.423C942.099 270.559 942.95 269.796 944.03 269.135C946.001 267.947 948.296 267.353 950.915 267.353C952.265 267.353 953.372 267.528 954.236 267.879C955.1 268.23 955.741 268.736 956.159 269.398C956.443 269.884 956.645 270.512 956.767 271.281C956.888 272.037 956.949 273.185 956.949 274.724V283.249C956.949 284.477 957.057 285.348 957.273 285.861C957.503 286.374 957.894 286.631 958.448 286.631C959.069 286.631 959.683 286.293 960.29 285.618L961.141 286.712C960.344 287.643 959.514 288.332 958.65 288.777C957.8 289.209 956.841 289.425 955.775 289.425C954.533 289.425 953.588 289.155 952.94 288.615C952.292 288.062 951.866 287.225 951.664 286.104H951.502C950.584 287.198 949.578 288.028 948.485 288.595C947.405 289.149 946.257 289.425 945.042 289.425ZM948.181 286.023C948.829 286.023 949.43 285.888 949.983 285.618C950.55 285.348 951.029 284.957 951.421 284.444V278.956C949.963 279.239 948.815 279.563 947.978 279.928C947.141 280.279 946.554 280.718 946.217 281.244C945.879 281.757 945.71 282.412 945.71 283.208C945.71 284.14 945.913 284.842 946.318 285.314C946.723 285.787 947.344 286.023 948.181 286.023Z" fill="white"/>
<path d="M518.878 365V361.715L526.483 359.735V301.595L518.878 299.705V296.465H548.893C553.393 296.465 557.128 296.765 560.098 297.365C563.098 297.935 565.603 298.835 567.613 300.065C569.923 301.535 571.708 303.41 572.968 305.69C574.258 307.97 574.903 310.43 574.903 313.07C574.903 316.67 573.463 319.73 570.583 322.25C567.703 324.74 563.623 326.45 558.343 327.38V327.74C562.333 328.13 565.828 329.18 568.828 330.89C571.828 332.6 574.153 334.82 575.803 337.55C577.483 340.25 578.323 343.34 578.323 346.82C578.323 349.55 577.723 352.1 576.523 354.47C575.353 356.84 573.748 358.79 571.708 360.32C569.428 362 566.668 363.2 563.428 363.92C560.188 364.64 555.883 365 550.513 365H518.878ZM548.623 360.275C553.033 360.275 556.288 359.135 558.388 356.855C560.518 354.545 561.583 350.945 561.583 346.055C561.583 340.835 560.233 337.01 557.533 334.58C554.833 332.12 550.663 330.89 545.023 330.89H541.783V354.965C541.783 357.065 542.263 358.475 543.223 359.195C544.213 359.915 546.013 360.275 548.623 360.275ZM541.783 326.075H542.773C543.823 326.075 544.723 326.06 545.473 326.03C546.253 325.97 546.928 325.895 547.498 325.805C551.068 325.445 553.813 324.215 555.733 322.115C557.653 319.985 558.613 317.09 558.613 313.43C558.613 311.33 558.283 309.515 557.623 307.985C556.993 306.455 556.078 305.21 554.878 304.25C553.588 303.2 551.983 302.45 550.063 302C548.143 301.52 545.923 301.28 543.403 301.28H541.783V326.075ZM584.457 365V361.85L591.162 360.095V325.805L584.367 323.285V321.17L602.592 316.895H604.527V325.04L604.887 325.445V360.095L616.587 361.85V365H584.457ZM603.897 331.52L604.032 325.445C606.402 322.655 608.742 320.525 611.052 319.055C613.392 317.555 615.657 316.805 617.847 316.805C620.067 316.805 621.912 317.435 623.382 318.695C624.852 319.955 625.587 321.515 625.587 323.375C625.587 325.175 625.047 326.69 623.967 327.92C622.917 329.12 621.612 329.72 620.052 329.72C618.492 329.72 617.022 329.165 615.642 328.055C614.772 327.305 613.992 326.765 613.302 326.435C612.642 326.075 611.937 325.895 611.187 325.895C610.137 325.895 608.877 326.465 607.407 327.605C605.967 328.715 604.797 330.02 603.897 331.52ZM640.302 365.945C636.672 365.945 633.807 365 631.707 363.11C629.607 361.22 628.557 358.64 628.557 355.37C628.557 352.4 629.487 349.835 631.347 347.675C633.207 345.515 636.057 343.715 639.897 342.275C643.767 340.805 648.687 339.65 654.657 338.81V332.285C654.657 328.265 654.282 325.565 653.532 324.185C652.812 322.805 651.372 322.115 649.212 322.115C646.992 322.115 645.237 322.655 643.947 323.735C642.657 324.785 642.012 326.24 642.012 328.1C642.012 328.76 642.072 329.435 642.192 330.125C642.312 330.785 642.372 331.43 642.372 332.06C642.372 333.77 641.772 335.195 640.572 336.335C639.402 337.445 637.947 338 636.207 338C634.467 338 633.057 337.445 631.977 336.335C630.897 335.195 630.357 333.725 630.357 331.925C630.357 330.065 630.972 328.205 632.202 326.345C633.432 324.485 635.157 322.82 637.377 321.35C642.057 318.38 647.682 316.895 654.252 316.895C657.462 316.895 660.042 317.285 661.992 318.065C663.972 318.815 665.457 319.91 666.447 321.35C667.137 322.46 667.647 323.9 667.977 325.67C668.307 327.44 668.472 329.975 668.472 333.275V351.635C668.472 354.275 668.727 356.195 669.237 357.395C669.747 358.565 670.602 359.15 671.802 359.15C673.152 359.15 674.487 358.445 675.807 357.035L677.832 359.915C675.912 361.955 673.902 363.47 671.802 364.46C669.702 365.45 667.377 365.945 664.827 365.945C661.917 365.945 659.712 365.36 658.212 364.19C656.712 363.02 655.737 361.25 655.287 358.88H654.927C652.707 361.28 650.397 363.065 647.997 364.235C645.597 365.375 643.032 365.945 640.302 365.945ZM648.492 357.485C649.722 357.485 650.862 357.275 651.912 356.855C652.962 356.435 653.877 355.805 654.657 354.965V342.995C651.777 343.565 649.512 344.21 647.862 344.93C646.242 345.65 645.102 346.55 644.442 347.63C643.782 348.68 643.452 350.045 643.452 351.725C643.452 353.675 643.857 355.13 644.667 356.09C645.477 357.02 646.752 357.485 648.492 357.485ZM696.156 365.945C693.876 365.945 691.461 365.765 688.911 365.405C686.361 365.075 684.171 364.61 682.341 364.01L681.756 349.52H685.581C685.851 353.39 686.856 356.36 688.596 358.43C690.366 360.47 692.796 361.49 695.886 361.49C698.196 361.49 700.041 360.905 701.421 359.735C702.801 358.535 703.491 356.975 703.491 355.055C703.491 353.555 702.951 352.22 701.871 351.05C700.821 349.85 699.021 348.575 696.471 347.225L692.151 345.02C688.611 343.16 686.001 341.09 684.321 338.81C682.671 336.53 681.846 333.815 681.846 330.665C681.846 326.135 683.496 322.715 686.796 320.405C690.126 318.065 695.016 316.895 701.466 316.895C703.746 316.895 705.936 317.045 708.036 317.345C710.166 317.615 711.876 317.99 713.166 318.47V330.8H709.746C708.876 324.5 705.906 321.35 700.836 321.35C698.796 321.35 697.146 321.845 695.886 322.835C694.656 323.825 694.041 325.115 694.041 326.705C694.041 328.115 694.596 329.39 695.706 330.53C696.816 331.64 698.736 332.855 701.466 334.175L705.741 336.38C709.071 338.09 711.531 340.1 713.121 342.41C714.711 344.69 715.506 347.45 715.506 350.69C715.506 355.49 713.811 359.24 710.421 361.94C707.031 364.61 702.276 365.945 696.156 365.945ZM721.164 365V361.85L728.769 360.095V325.715L721.164 323.285V321.17L740.694 316.895H742.584V360.095L749.694 361.85V365H721.164ZM735.519 310.235C733.059 310.235 731.169 309.47 729.849 307.94C728.529 306.41 727.869 304.745 727.869 302.945C727.869 300.995 728.544 299.27 729.894 297.77C731.274 296.27 733.149 295.52 735.519 295.52C737.949 295.52 739.869 296.27 741.279 297.77C742.719 299.27 743.439 300.995 743.439 302.945C743.439 304.745 742.764 306.41 741.414 307.94C740.094 309.47 738.129 310.235 735.519 310.235ZM752.614 365V361.85L760.264 360.095V299.885L752.614 297.5V295.34L772.099 291.065H773.989V360.095L781.144 361.85V365H752.614ZM810.532 365.945C805.612 365.945 801.307 364.955 797.617 362.975C793.957 360.965 791.107 358.175 789.067 354.605C787.057 351.005 786.052 346.85 786.052 342.14C786.052 337.13 787.177 332.735 789.427 328.955C791.677 325.175 794.797 322.22 798.787 320.09C802.807 317.96 807.457 316.895 812.737 316.895C819.547 316.895 824.722 318.74 828.262 322.43C831.832 326.09 833.722 331.49 833.932 338.63L833.257 339.215H794.377V335.165L819.172 334.265C819.412 333.635 819.532 332.51 819.532 330.89C819.532 324.59 816.892 321.44 811.612 321.44C808.162 321.44 805.507 322.94 803.647 325.94C801.817 328.94 800.902 333.2 800.902 338.72C800.902 350.72 805.537 356.72 814.807 356.72C821.227 356.72 826.282 354.53 829.972 350.15L832.447 352.265C830.857 356.585 828.127 359.945 824.257 362.345C820.417 364.745 815.842 365.945 810.532 365.945ZM838.761 365V361.85L846.366 360.095V325.715L838.761 323.285V321.17L858.291 316.895H860.181V360.095L867.291 361.85V365H838.761ZM853.116 310.235C850.656 310.235 848.766 309.47 847.446 307.94C846.126 306.41 845.466 304.745 845.466 302.945C845.466 300.995 846.141 299.27 847.491 297.77C848.871 296.27 850.746 295.52 853.116 295.52C855.546 295.52 857.466 296.27 858.876 297.77C860.316 299.27 861.036 300.995 861.036 302.945C861.036 304.745 860.361 306.41 859.011 307.94C857.691 309.47 855.726 310.235 853.116 310.235ZM871.157 365V361.85L877.862 360.095V325.805L871.067 323.285V321.17L889.292 316.895H891.227V325.04L891.587 325.445V360.095L903.287 361.85V365H871.157ZM890.597 331.52L890.732 325.445C893.102 322.655 895.442 320.525 897.752 319.055C900.092 317.555 902.357 316.805 904.547 316.805C906.767 316.805 908.612 317.435 910.082 318.695C911.552 319.955 912.287 321.515 912.287 323.375C912.287 325.175 911.747 326.69 910.667 327.92C909.617 329.12 908.312 329.72 906.752 329.72C905.192 329.72 903.722 329.165 902.342 328.055C901.472 327.305 900.692 326.765 900.002 326.435C899.342 326.075 898.637 325.895 897.887 325.895C896.837 325.895 895.577 326.465 894.107 327.605C892.667 328.715 891.497 330.02 890.597 331.52ZM927.001 365.945C923.371 365.945 920.506 365 918.406 363.11C916.306 361.22 915.256 358.64 915.256 355.37C915.256 352.4 916.186 349.835 918.046 347.675C919.906 345.515 922.756 343.715 926.596 342.275C930.466 340.805 935.386 339.65 941.356 338.81V332.285C941.356 328.265 940.981 325.565 940.231 324.185C939.511 322.805 938.071 322.115 935.911 322.115C933.691 322.115 931.936 322.655 930.646 323.735C929.356 324.785 928.711 326.24 928.711 328.1C928.711 328.76 928.771 329.435 928.891 330.125C929.011 330.785 929.071 331.43 929.071 332.06C929.071 333.77 928.471 335.195 927.271 336.335C926.101 337.445 924.646 338 922.906 338C921.166 338 919.756 337.445 918.676 336.335C917.596 335.195 917.056 333.725 917.056 331.925C917.056 330.065 917.671 328.205 918.901 326.345C920.131 324.485 921.856 322.82 924.076 321.35C928.756 318.38 934.381 316.895 940.951 316.895C944.161 316.895 946.741 317.285 948.691 318.065C950.671 318.815 952.156 319.91 953.146 321.35C953.836 322.46 954.346 323.9 954.676 325.67C955.006 327.44 955.171 329.975 955.171 333.275V351.635C955.171 354.275 955.426 356.195 955.936 357.395C956.446 358.565 957.301 359.15 958.501 359.15C959.851 359.15 961.186 358.445 962.506 357.035L964.531 359.915C962.611 361.955 960.601 363.47 958.501 364.46C956.401 365.45 954.076 365.945 951.526 365.945C948.616 365.945 946.411 365.36 944.911 364.19C943.411 363.02 942.436 361.25 941.986 358.88H941.626C939.406 361.28 937.096 363.065 934.696 364.235C932.296 365.375 929.731 365.945 927.001 365.945ZM935.191 357.485C936.421 357.485 937.561 357.275 938.611 356.855C939.661 356.435 940.576 355.805 941.356 354.965V342.995C938.476 343.565 936.211 344.21 934.561 344.93C932.941 345.65 931.801 346.55 931.141 347.63C930.481 348.68 930.151 350.045 930.151 351.725C930.151 353.675 930.556 355.13 931.366 356.09C932.176 357.02 933.451 357.485 935.191 357.485Z" fill="white"/>
</svg>
