<svg width="1004" height="436" viewBox="0 0 1004 436" fill="none" xmlns="http://www.w3.org/2000/svg">
<path fill-rule="evenodd" clip-rule="evenodd" d="M251.376 331.56L251.376 292.936H251.376V292.936H290V305.921L264.36 305.921V331.56L251.376 331.56ZM264.361 243.639V269.278H277.015V230.985L239.492 230.985L239.492 260.695H239.493L239.493 320.116H239.492V331.56H176V331.23V318.575V280.282V267.298L176 267.297H188.985V267.298H201.639V267.297H214.624V305.921H201.639L201.639 280.282H188.985L188.985 318.575H226.508L226.508 288.865H226.507L226.507 229.444H226.508V218L290 218V218.33V269.278V282.263L264.361 282.263V282.263H251.376L251.376 243.639L264.361 243.639ZM214.623 218V243.639H214.624V256.624H176V243.639H201.639L201.639 218H214.623Z" fill="url(#paint0_linear_710_492)"/>
<path d="M630.116 237V235.765L633.327 234.967V210.058L630.116 209.279V208.063H643.036C645.012 208.063 646.754 208.38 648.261 209.013C649.768 209.634 650.946 210.558 651.795 211.787C652.644 213.003 653.068 214.504 653.068 216.29C653.068 218.127 652.58 219.659 651.605 220.888C650.642 222.104 649.281 222.991 647.52 223.548L654.987 235.024L658.654 235.765V237H649.002L641.174 224.232H639.065V234.967L643.34 235.765V237H630.116ZM639.065 222.37H640.148C641.567 222.37 642.7 222.186 643.549 221.819C644.41 221.452 645.107 220.958 645.639 220.337C646.196 219.716 646.589 219.026 646.817 218.266C647.045 217.493 647.159 216.708 647.159 215.91C647.159 214.504 646.855 213.339 646.247 212.414C645.639 211.477 644.835 210.805 643.834 210.4C643.403 210.223 642.935 210.102 642.428 210.039C641.921 209.963 641.275 209.925 640.49 209.925H639.065V222.37ZM668.438 237.399C666.437 237.399 664.689 236.981 663.194 236.145C661.699 235.296 660.534 234.118 659.698 232.611C658.875 231.091 658.463 229.337 658.463 227.348C658.463 225.233 658.919 223.377 659.831 221.781C660.756 220.185 662.035 218.937 663.669 218.038C665.316 217.139 667.222 216.689 669.388 216.689C672.137 216.689 674.233 217.449 675.677 218.969C677.134 220.489 677.9 222.725 677.976 225.676L677.691 225.904H661.845V224.403L672.371 224.023C672.46 223.732 672.504 223.25 672.504 222.579C672.504 219.792 671.32 218.399 668.951 218.399C667.368 218.399 666.145 219.064 665.284 220.394C664.435 221.711 664.011 223.586 664.011 226.018C664.011 231.224 666.031 233.827 670.072 233.827C672.808 233.827 674.942 232.877 676.475 230.977L677.406 231.718C676.735 233.517 675.607 234.916 674.024 235.917C672.453 236.905 670.591 237.399 668.438 237.399ZM680.445 237V235.86L683.523 235.157V218.684H679.856L680.35 217.069H683.523C683.523 215.866 683.542 214.897 683.58 214.162C683.618 213.427 683.681 212.832 683.77 212.376C683.871 211.92 684.004 211.502 684.169 211.122C684.853 209.463 686.119 208.164 687.969 207.227C689.818 206.29 692.028 205.821 694.6 205.821C696.094 205.821 697.418 205.96 698.571 206.239C699.736 206.518 700.648 206.91 701.307 207.417C701.965 207.911 702.295 208.481 702.295 209.127V235.157L705.183 235.86V237H694.106V235.86L697.146 235.157V218.684H688.729V235.157L692.605 235.86V237H680.445ZM688.729 217.069H697.146V211.217C697.146 210.052 696.816 209.159 696.158 208.538C695.499 207.905 694.612 207.588 693.498 207.588C692.459 207.588 691.579 207.803 690.857 208.234C690.135 208.665 689.59 209.273 689.223 210.058C689.071 210.375 688.957 210.736 688.881 211.141C688.817 211.534 688.773 212.072 688.748 212.756C688.735 213.427 688.729 214.358 688.729 215.549V217.069ZM717.422 237.399C715.421 237.399 713.673 236.981 712.178 236.145C710.684 235.296 709.518 234.118 708.682 232.611C707.859 231.091 707.447 229.337 707.447 227.348C707.447 225.233 707.903 223.377 708.815 221.781C709.74 220.185 711.019 218.937 712.653 218.038C714.3 217.139 716.206 216.689 718.372 216.689C721.121 216.689 723.217 217.449 724.661 218.969C726.118 220.489 726.884 222.725 726.96 225.676L726.675 225.904H710.829V224.403L721.355 224.023C721.444 223.732 721.488 223.25 721.488 222.579C721.488 219.792 720.304 218.399 717.935 218.399C716.352 218.399 715.13 219.064 714.268 220.394C713.42 221.711 712.995 223.586 712.995 226.018C712.995 231.224 715.016 233.827 719.056 233.827C721.792 233.827 723.927 232.877 725.459 230.977L726.39 231.718C725.719 233.517 724.592 234.916 723.008 235.917C721.438 236.905 719.576 237.399 717.422 237.399ZM739.174 237V235.841C740.416 235.752 741.157 235.575 741.397 235.309C741.638 235.03 741.499 234.536 740.979 233.827L730.567 219.843C730.2 219.349 729.801 218.994 729.37 218.779C728.952 218.551 728.243 218.367 727.242 218.228V217.069H738.794V218.228C737.68 218.304 737.002 218.494 736.761 218.798C736.533 219.089 736.685 219.571 737.217 220.242L747.591 234.226C747.971 234.707 748.358 235.075 748.75 235.328C749.143 235.581 749.783 235.752 750.669 235.841V237H739.174ZM726.767 237V235.841C728.085 235.664 729.111 235.372 729.845 234.967C730.593 234.562 731.296 233.96 731.954 233.162L737.502 226.398L739.212 227.006L734.158 233.124C733.487 233.96 733.297 234.581 733.588 234.986C733.88 235.391 734.722 235.676 736.115 235.841V237H726.767ZM739.896 226.797L738.072 226.322L742.746 220.945C743.418 220.147 743.627 219.539 743.373 219.121C743.12 218.703 742.36 218.405 741.093 218.228V217.069H749.852V218.228C749.004 218.38 748.32 218.557 747.8 218.76C747.281 218.95 746.825 219.203 746.432 219.52C746.052 219.824 745.628 220.242 745.159 220.774L739.896 226.797ZM761.52 237.399C759.341 237.399 757.467 236.937 755.896 236.012C754.325 235.087 753.122 233.84 752.286 232.269C751.45 230.698 751.032 228.957 751.032 227.044C751.032 225.119 751.45 223.377 752.286 221.819C753.122 220.248 754.325 219.001 755.896 218.076C757.467 217.151 759.341 216.689 761.52 216.689C763.699 216.689 765.567 217.151 767.125 218.076C768.696 219.001 769.899 220.248 770.735 221.819C771.584 223.377 772.008 225.119 772.008 227.044C772.008 228.957 771.584 230.698 770.735 232.269C769.899 233.84 768.696 235.087 767.125 236.012C765.567 236.937 763.699 237.399 761.52 237.399ZM761.52 235.518C762.432 235.518 763.198 235.271 763.819 234.777C764.44 234.283 764.934 233.624 765.301 232.801C765.668 231.965 765.934 231.047 766.099 230.046C766.264 229.045 766.346 228.038 766.346 227.025C766.346 226.024 766.264 225.024 766.099 224.023C765.947 223.022 765.687 222.11 765.32 221.287C764.953 220.464 764.459 219.805 763.838 219.311C763.217 218.817 762.445 218.57 761.52 218.57C760.595 218.57 759.823 218.817 759.202 219.311C758.581 219.805 758.087 220.464 757.72 221.287C757.353 222.11 757.087 223.029 756.922 224.042C756.77 225.043 756.694 226.043 756.694 227.044C756.694 228.057 756.77 229.064 756.922 230.065C757.087 231.053 757.353 231.965 757.72 232.801C758.087 233.624 758.581 234.283 759.202 234.777C759.823 235.271 760.595 235.518 761.52 235.518ZM763.914 211.901C763.243 211.901 762.647 211.781 762.128 211.54C761.621 211.287 761.121 211.04 760.627 210.799C760.146 210.546 759.595 210.419 758.974 210.419C758.341 210.419 757.834 210.552 757.454 210.818C757.074 211.071 756.846 211.413 756.77 211.844H755.497C755.497 210.223 755.845 208.969 756.542 208.082C757.251 207.183 758.151 206.733 759.24 206.733C759.873 206.733 760.45 206.847 760.969 207.075C761.488 207.29 761.995 207.512 762.489 207.74C762.996 207.968 763.534 208.082 764.104 208.082C765.307 208.082 766.023 207.601 766.251 206.638H767.543C767.543 208.247 767.233 209.526 766.612 210.476C765.991 211.426 765.092 211.901 763.914 211.901ZM784.887 237.399C782.886 237.399 781.138 236.981 779.643 236.145C778.149 235.296 776.983 234.118 776.147 232.611C775.324 231.091 774.912 229.337 774.912 227.348C774.912 225.233 775.368 223.377 776.28 221.781C777.205 220.185 778.484 218.937 780.118 218.038C781.765 217.139 783.671 216.689 785.837 216.689C788.586 216.689 790.682 217.449 792.126 218.969C793.583 220.489 794.349 222.725 794.425 225.676L794.14 225.904H778.294V224.403L788.82 224.023C788.909 223.732 788.953 223.25 788.953 222.579C788.953 219.792 787.769 218.399 785.4 218.399C783.817 218.399 782.595 219.064 781.733 220.394C780.885 221.711 780.46 223.586 780.46 226.018C780.46 231.224 782.481 233.827 786.521 233.827C789.257 233.827 791.392 232.877 792.924 230.977L793.855 231.718C793.184 233.517 792.057 234.916 790.473 235.917C788.903 236.905 787.041 237.399 784.887 237.399ZM803.544 237.399C802.632 237.399 801.65 237.323 800.599 237.171C799.56 237.019 798.661 236.823 797.901 236.582L797.654 230.464H799.06C799.186 232.174 799.63 233.479 800.39 234.378C801.15 235.277 802.201 235.727 803.544 235.727C804.557 235.727 805.368 235.461 805.976 234.929C806.596 234.384 806.907 233.675 806.907 232.801C806.907 232.104 806.672 231.49 806.204 230.958C805.735 230.413 804.943 229.85 803.829 229.267L802.081 228.393C800.548 227.595 799.427 226.727 798.718 225.79C798.021 224.853 797.673 223.725 797.673 222.408C797.673 220.546 798.344 219.127 799.687 218.152C801.029 217.177 802.993 216.689 805.577 216.689C806.514 216.689 807.42 216.752 808.294 216.879C809.168 216.993 809.864 217.151 810.384 217.354V222.56H809.13C808.762 219.761 807.445 218.361 805.178 218.361C804.278 218.361 803.556 218.589 803.012 219.045C802.467 219.488 802.195 220.084 802.195 220.831C802.195 221.49 802.435 222.072 802.917 222.579C803.398 223.086 804.228 223.624 805.406 224.194L807.192 225.087C808.623 225.809 809.668 226.645 810.327 227.595C810.998 228.532 811.334 229.685 811.334 231.053C811.334 233.029 810.643 234.581 809.263 235.708C807.895 236.835 805.988 237.399 803.544 237.399ZM830.522 237.399C829.61 237.399 828.629 237.323 827.577 237.171C826.539 237.019 825.639 236.823 824.879 236.582L824.632 230.464H826.038C826.165 232.174 826.608 233.479 827.368 234.378C828.128 235.277 829.18 235.727 830.522 235.727C831.536 235.727 832.346 235.461 832.954 234.929C833.575 234.384 833.885 233.675 833.885 232.801C833.885 232.104 833.651 231.49 833.182 230.958C832.714 230.413 831.922 229.85 830.807 229.267L829.059 228.393C827.527 227.595 826.406 226.727 825.696 225.79C825 224.853 824.651 223.725 824.651 222.408C824.651 220.546 825.323 219.127 826.665 218.152C828.008 217.177 829.971 216.689 832.555 216.689C833.493 216.689 834.398 216.752 835.272 216.879C836.146 216.993 836.843 217.151 837.362 217.354V222.56H836.108C835.741 219.761 834.424 218.361 832.156 218.361C831.257 218.361 830.535 218.589 829.99 219.045C829.446 219.488 829.173 220.084 829.173 220.831C829.173 221.49 829.414 222.072 829.895 222.579C830.377 223.086 831.206 223.624 832.384 224.194L834.17 225.087C835.602 225.809 836.647 226.645 837.305 227.595C837.977 228.532 838.312 229.685 838.312 231.053C838.312 233.029 837.622 234.581 836.241 235.708C834.873 236.835 832.967 237.399 830.522 237.399ZM851.844 237.399C849.665 237.399 847.791 236.937 846.22 236.012C844.649 235.087 843.446 233.84 842.61 232.269C841.774 230.698 841.356 228.957 841.356 227.044C841.356 225.119 841.774 223.377 842.61 221.819C843.446 220.248 844.649 219.001 846.22 218.076C847.791 217.151 849.665 216.689 851.844 216.689C854.023 216.689 855.891 217.151 857.449 218.076C859.02 219.001 860.223 220.248 861.059 221.819C861.908 223.377 862.332 225.119 862.332 227.044C862.332 228.957 861.908 230.698 861.059 232.269C860.223 233.84 859.02 235.087 857.449 236.012C855.891 236.937 854.023 237.399 851.844 237.399ZM851.844 235.518C852.756 235.518 853.522 235.271 854.143 234.777C854.764 234.283 855.258 233.624 855.625 232.801C855.992 231.965 856.258 231.047 856.423 230.046C856.588 229.045 856.67 228.038 856.67 227.025C856.67 226.024 856.588 225.024 856.423 224.023C856.271 223.022 856.011 222.11 855.644 221.287C855.277 220.464 854.783 219.805 854.162 219.311C853.541 218.817 852.769 218.57 851.844 218.57C850.919 218.57 850.147 218.817 849.526 219.311C848.905 219.805 848.411 220.464 848.044 221.287C847.677 222.11 847.411 223.029 847.246 224.042C847.094 225.043 847.018 226.043 847.018 227.044C847.018 228.057 847.094 229.064 847.246 230.065C847.411 231.053 847.677 231.965 848.044 232.801C848.411 233.624 848.905 234.283 849.526 234.777C850.147 235.271 850.919 235.518 851.844 235.518ZM876.313 237.399C875.313 237.399 874.337 237.247 873.387 236.943C872.45 236.626 871.589 236.196 870.803 235.651H870.556L867.782 237H866.832V209.393L863.792 208.386V207.626L871.316 205.783H872.019V219.33C872.843 218.494 873.767 217.848 874.793 217.392C875.819 216.923 876.928 216.689 878.118 216.689C879.765 216.689 881.209 217.094 882.45 217.905C883.692 218.703 884.661 219.818 885.357 221.249C886.067 222.668 886.421 224.321 886.421 226.208C886.421 228.323 885.972 230.23 885.072 231.927C884.186 233.612 882.976 234.948 881.443 235.936C879.923 236.911 878.213 237.399 876.313 237.399ZM875.762 235.575C876.763 235.575 877.637 235.227 878.384 234.53C879.132 233.833 879.708 232.864 880.113 231.623C880.531 230.369 880.74 228.919 880.74 227.272C880.74 224.815 880.303 222.883 879.429 221.477C878.568 220.071 877.365 219.368 875.819 219.368C875.034 219.368 874.318 219.558 873.672 219.938C873.026 220.318 872.475 220.837 872.019 221.496V230.825C872.019 232.256 872.361 233.409 873.045 234.283C873.729 235.144 874.635 235.575 875.762 235.575ZM888.978 237V235.841L891.809 235.138V220.337L888.978 219.273V218.494L896.122 216.689H896.806V220.337L896.958 220.527V235.138L901.556 235.841V237H888.978ZM896.597 222.75V220.527C897.585 219.273 898.56 218.317 899.523 217.658C900.485 216.987 901.41 216.651 902.297 216.651C903.158 216.651 903.874 216.911 904.444 217.43C905.014 217.937 905.299 218.564 905.299 219.311C905.299 220.02 905.077 220.622 904.634 221.116C904.203 221.597 903.665 221.838 903.019 221.838C902.373 221.838 901.796 221.604 901.29 221.135C900.96 220.818 900.669 220.597 900.416 220.47C900.162 220.331 899.896 220.261 899.618 220.261C899.2 220.261 898.693 220.502 898.098 220.983C897.502 221.464 897.002 222.053 896.597 222.75ZM916.626 237.399C914.624 237.399 912.876 236.981 911.382 236.145C909.887 235.296 908.722 234.118 907.886 232.611C907.062 231.091 906.651 229.337 906.651 227.348C906.651 225.233 907.107 223.377 908.019 221.781C908.943 220.185 910.223 218.937 911.857 218.038C913.503 217.139 915.41 216.689 917.576 216.689C920.324 216.689 922.421 217.449 923.865 218.969C925.321 220.489 926.088 222.725 926.164 225.676L925.879 225.904H910.033V224.403L920.559 224.023C920.647 223.732 920.692 223.25 920.692 222.579C920.692 219.792 919.507 218.399 917.139 218.399C915.555 218.399 914.333 219.064 913.472 220.394C912.623 221.711 912.199 223.586 912.199 226.018C912.199 231.224 914.219 233.827 918.26 233.827C920.996 233.827 923.13 232.877 924.663 230.977L925.594 231.718C924.922 233.517 923.795 234.916 922.212 235.917C920.641 236.905 918.779 237.399 916.626 237.399ZM949.071 237.399C946.892 237.399 945.017 236.937 943.447 236.012C941.876 235.087 940.673 233.84 939.837 232.269C939.001 230.698 938.583 228.957 938.583 227.044C938.583 225.119 939.001 223.377 939.837 221.819C940.673 220.248 941.876 219.001 943.447 218.076C945.017 217.151 946.892 216.689 949.071 216.689C951.249 216.689 953.118 217.151 954.676 218.076C956.246 219.001 957.45 220.248 958.286 221.819C959.134 223.377 959.559 225.119 959.559 227.044C959.559 228.957 959.134 230.698 958.286 232.269C957.45 233.84 956.246 235.087 954.676 236.012C953.118 236.937 951.249 237.399 949.071 237.399ZM949.071 235.518C949.983 235.518 950.749 235.271 951.37 234.777C951.99 234.283 952.484 233.624 952.852 232.801C953.219 231.965 953.485 231.047 953.65 230.046C953.814 229.045 953.897 228.038 953.897 227.025C953.897 226.024 953.814 225.024 953.65 224.023C953.498 223.022 953.238 222.11 952.871 221.287C952.503 220.464 952.009 219.805 951.389 219.311C950.768 218.817 949.995 218.57 949.071 218.57C948.146 218.57 947.373 218.817 946.753 219.311C946.132 219.805 945.638 220.464 945.271 221.287C944.903 222.11 944.637 223.029 944.473 224.042C944.321 225.043 944.245 226.043 944.245 227.044C944.245 228.057 944.321 229.064 944.473 230.065C944.637 231.053 944.903 231.965 945.271 232.801C945.638 233.624 946.132 234.283 946.753 234.777C947.373 235.271 948.146 235.518 949.071 235.518ZM774.804 284V282.727L778.053 282.005V256.982L774.804 256.279V255.063H784.817C786.945 255.063 788.801 255.152 790.384 255.329C791.968 255.494 793.355 255.779 794.545 256.184C795.749 256.577 796.838 257.115 797.813 257.799C799.612 259.028 801.031 260.655 802.069 262.682C803.108 264.709 803.627 266.989 803.627 269.522C803.627 272.131 803.076 274.519 801.974 276.685C800.872 278.851 799.39 280.548 797.528 281.777C796.325 282.575 795.008 283.145 793.576 283.487C792.158 283.829 790.422 284 788.37 284H774.804ZM787.629 282.138C789.213 282.138 790.555 281.929 791.657 281.511C792.759 281.08 793.703 280.396 794.488 279.459C795.375 278.395 796.034 277.021 796.464 275.336C796.908 273.639 797.129 271.656 797.129 269.389C797.129 267.147 796.908 265.234 796.464 263.651C796.034 262.055 795.369 260.731 794.469 259.68C793.659 258.743 792.652 258.059 791.448 257.628C790.245 257.185 788.776 256.963 787.04 256.963H783.791V279.877C783.791 280.688 784.076 281.27 784.646 281.625C785.229 281.967 786.223 282.138 787.629 282.138ZM816.913 284.399C814.911 284.399 813.163 283.981 811.669 283.145C810.174 282.296 809.009 281.118 808.173 279.611C807.349 278.091 806.938 276.337 806.938 274.348C806.938 272.233 807.394 270.377 808.306 268.781C809.23 267.185 810.51 265.937 812.144 265.038C813.79 264.139 815.697 263.689 817.863 263.689C820.611 263.689 822.708 264.449 824.152 265.969C825.608 267.489 826.375 269.725 826.451 272.676L826.166 272.904H810.32V271.403L820.846 271.023C820.934 270.732 820.979 270.25 820.979 269.579C820.979 266.792 819.794 265.399 817.426 265.399C815.842 265.399 814.62 266.064 813.759 267.394C812.91 268.711 812.486 270.586 812.486 273.018C812.486 278.224 814.506 280.827 818.547 280.827C821.283 280.827 823.417 279.877 824.95 277.977L825.881 278.718C825.209 280.517 824.082 281.916 822.499 282.917C820.928 283.905 819.066 284.399 816.913 284.399ZM835.569 284.399C834.657 284.399 833.675 284.323 832.624 284.171C831.585 284.019 830.686 283.823 829.926 283.582L829.679 277.464H831.085C831.212 279.174 831.655 280.479 832.415 281.378C833.175 282.277 834.226 282.727 835.569 282.727C836.582 282.727 837.393 282.461 838.001 281.929C838.622 281.384 838.932 280.675 838.932 279.801C838.932 279.104 838.698 278.49 838.229 277.958C837.76 277.413 836.969 276.85 835.854 276.267L834.106 275.393C832.573 274.595 831.452 273.727 830.743 272.79C830.046 271.853 829.698 270.725 829.698 269.408C829.698 267.546 830.369 266.127 831.712 265.152C833.055 264.177 835.018 263.689 837.602 263.689C838.539 263.689 839.445 263.752 840.319 263.879C841.193 263.993 841.89 264.151 842.409 264.354V269.56H841.155C840.788 266.761 839.47 265.361 837.203 265.361C836.304 265.361 835.582 265.589 835.037 266.045C834.492 266.488 834.22 267.084 834.22 267.831C834.22 268.49 834.461 269.072 834.942 269.579C835.423 270.086 836.253 270.624 837.431 271.194L839.217 272.087C840.648 272.809 841.693 273.645 842.352 274.595C843.023 275.532 843.359 276.685 843.359 278.053C843.359 280.029 842.669 281.581 841.288 282.708C839.92 283.835 838.014 284.399 835.569 284.399ZM845.928 284V282.841L849.044 282.138V267.299L845.947 266.292V265.494L853.547 263.689H854.231V282.138L857.176 282.841V284H845.928ZM851.571 260.478C850.621 260.478 849.886 260.18 849.367 259.585C848.848 258.99 848.588 258.331 848.588 257.609C848.588 256.824 848.854 256.14 849.386 255.557C849.918 254.962 850.646 254.664 851.571 254.664C852.521 254.664 853.275 254.962 853.832 255.557C854.389 256.14 854.668 256.824 854.668 257.609C854.668 258.331 854.402 258.99 853.87 259.585C853.338 260.18 852.572 260.478 851.571 260.478ZM872.656 265.095C872.897 264.424 873.207 263.746 873.587 263.062C873.98 262.378 874.461 261.808 875.031 261.352C875.601 260.883 876.279 260.649 877.064 260.649C877.773 260.649 878.375 260.839 878.869 261.219C879.363 261.599 879.61 262.118 879.61 262.777C879.61 263.309 879.433 263.79 879.078 264.221C878.723 264.639 878.236 264.848 877.615 264.848C877.21 264.848 876.899 264.766 876.684 264.601C876.469 264.436 876.266 264.272 876.076 264.107C875.899 263.942 875.645 263.86 875.316 263.86C874.885 263.86 874.562 264.063 874.347 264.468C874.132 264.873 873.967 265.342 873.853 265.874L872.656 265.095ZM868.172 276.191C868.957 276.191 869.565 275.893 869.996 275.298C870.439 274.69 870.75 273.949 870.927 273.075C871.104 272.201 871.193 271.352 871.193 270.529C871.193 270.01 871.155 269.446 871.079 268.838C871.016 268.217 870.876 267.635 870.661 267.09C870.458 266.533 870.167 266.077 869.787 265.722C869.42 265.355 868.938 265.171 868.343 265.171C867.735 265.171 867.228 265.367 866.823 265.76C866.43 266.14 866.12 266.634 865.892 267.242C865.677 267.85 865.525 268.49 865.436 269.161C865.347 269.82 865.303 270.421 865.303 270.966C865.303 271.65 865.379 272.404 865.531 273.227C865.683 274.038 865.962 274.734 866.367 275.317C866.785 275.9 867.387 276.191 868.172 276.191ZM868.153 277.73C866.734 277.73 865.74 277.876 865.17 278.167C864.6 278.446 864.315 278.832 864.315 279.326C864.315 279.782 864.638 280.149 865.284 280.428C865.943 280.707 867.197 281.004 869.046 281.321L871.782 281.796C874.024 282.163 875.677 282.778 876.741 283.639C877.818 284.488 878.356 285.634 878.356 287.078C878.356 288.319 878.014 289.371 877.33 290.232C876.646 291.106 875.734 291.809 874.594 292.341C873.467 292.886 872.206 293.278 870.813 293.519C869.432 293.772 868.033 293.899 866.614 293.899C865.55 293.899 864.499 293.81 863.46 293.633C862.421 293.456 861.478 293.171 860.629 292.778C859.78 292.398 859.103 291.891 858.596 291.258C858.089 290.637 857.836 289.884 857.836 288.997C857.836 288.009 858.229 287.103 859.014 286.28C859.799 285.469 861.129 284.697 863.004 283.962L864.448 284.551C863.688 284.969 863.093 285.533 862.662 286.242C862.244 286.951 862.035 287.699 862.035 288.484C862.035 289.333 862.295 290.029 862.814 290.574C863.333 291.119 864.017 291.524 864.866 291.79C865.715 292.056 866.62 292.189 867.583 292.189C868.647 292.189 869.705 292.075 870.756 291.847C871.82 291.619 872.7 291.264 873.397 290.783C874.106 290.302 874.461 289.675 874.461 288.902C874.461 288.446 874.309 288.041 874.005 287.686C873.701 287.331 873.144 287.002 872.333 286.698C871.535 286.407 870.395 286.122 868.913 285.843L865.778 285.254C863.726 284.861 862.257 284.317 861.37 283.62C860.483 282.911 860.04 282.049 860.04 281.036C860.04 280.428 860.23 279.845 860.61 279.288C860.99 278.718 861.598 278.224 862.434 277.806C863.283 277.388 864.397 277.097 865.778 276.932L868.153 277.73ZM868.153 277.73C866.671 277.73 865.309 277.451 864.068 276.894C862.827 276.324 861.832 275.513 861.085 274.462C860.338 273.398 859.964 272.144 859.964 270.7C859.964 269.357 860.319 268.16 861.028 267.109C861.75 266.045 862.732 265.209 863.973 264.601C865.214 263.993 866.614 263.689 868.172 263.689C869.679 263.689 871.066 263.98 872.333 264.563C873.6 265.146 874.613 265.956 875.373 266.995C876.146 268.034 876.532 269.237 876.532 270.605C876.532 271.796 876.184 272.942 875.487 274.044C874.79 275.133 873.815 276.02 872.561 276.704C871.307 277.388 869.838 277.73 868.153 277.73ZM893.063 284V282.841L895.742 282.157V271.232C895.742 269.699 895.431 268.566 894.811 267.831C894.203 267.084 893.259 266.71 891.98 266.71C890.27 266.71 888.883 267.457 887.819 268.952V266.843C888.769 265.88 889.858 265.114 891.087 264.544C892.328 263.974 893.664 263.689 895.096 263.689C898.984 263.689 900.929 265.728 900.929 269.807V282.157L903.741 282.841V284H893.063ZM880.238 284V282.841L883.088 282.138V267.337L880.238 266.292V265.532L887.382 263.689H888.066V266.957L888.237 267.147V282.138L890.935 282.841V284H880.238ZM924.01 284.399C922.452 284.399 921.04 283.962 919.773 283.088C918.506 282.214 917.506 281.023 916.771 279.516C916.036 277.996 915.669 276.28 915.669 274.367C915.669 272.264 916.1 270.415 916.961 268.819C917.822 267.21 919.013 265.956 920.533 265.057C922.066 264.145 923.833 263.689 925.834 263.689C927.265 263.689 928.69 263.968 930.109 264.525V256.45L927.031 255.386V254.626L934.574 252.783H935.277V280.542L938.127 281.359V282.024L930.945 284.399H930.394V281.815L930.204 281.739C929.431 282.6 928.513 283.259 927.449 283.715C926.385 284.171 925.239 284.399 924.01 284.399ZM926.176 281.758C926.987 281.758 927.734 281.574 928.418 281.207C929.102 280.84 929.666 280.339 930.109 279.706V269.978C930.109 268.597 929.767 267.502 929.083 266.691C928.412 265.868 927.493 265.456 926.328 265.456C924.846 265.456 923.649 266.216 922.737 267.736C921.825 269.256 921.369 271.257 921.369 273.74C921.369 276.197 921.793 278.148 922.642 279.592C923.491 281.036 924.669 281.758 926.176 281.758ZM950.209 284.399C948.208 284.399 946.46 283.981 944.965 283.145C943.471 282.296 942.305 281.118 941.469 279.611C940.646 278.091 940.234 276.337 940.234 274.348C940.234 272.233 940.69 270.377 941.602 268.781C942.527 267.185 943.806 265.937 945.44 265.038C947.087 264.139 948.993 263.689 951.159 263.689C953.908 263.689 956.004 264.449 957.448 265.969C958.905 267.489 959.671 269.725 959.747 272.676L959.462 272.904H943.616V271.403L954.142 271.023C954.231 270.732 954.275 270.25 954.275 269.579C954.275 266.792 953.091 265.399 950.722 265.399C949.139 265.399 947.917 266.064 947.055 267.394C946.207 268.711 945.782 270.586 945.782 273.018C945.782 278.224 947.803 280.827 951.843 280.827C954.579 280.827 956.714 279.877 958.246 277.977L959.177 278.718C958.506 280.517 957.379 281.916 955.795 282.917C954.225 283.905 952.363 284.399 950.209 284.399Z" fill="white"/>
<line x1="304" y1="305.5" x2="457" y2="305.5" stroke="#19F1FF" stroke-dasharray="4 4"/>
<path d="M326.315 374V369.84L337.323 367.216V283.12L326.315 280.624V276.528H367.403V280.624L356.587 283.12V367.216L367.403 369.84V374H326.315ZM419.659 374V370.096L428.683 367.792V330.992C428.683 325.829 427.638 322.011 425.547 319.536C423.499 317.019 420.32 315.76 416.011 315.76C410.251 315.76 405.579 318.277 401.995 323.312V316.208C405.195 312.965 408.864 310.384 413.003 308.464C417.184 306.544 421.686 305.584 426.507 305.584C439.606 305.584 446.155 312.453 446.155 326.192V367.792L455.627 370.096V374H419.659ZM376.459 374V370.096L386.059 367.728V317.872L376.459 314.352V311.792L400.523 305.584H402.827V316.592L403.403 317.232V367.728L412.491 370.096V374H376.459ZM486.678 375.344C480.705 375.344 476.374 373.957 473.686 371.184C471.041 368.368 469.718 364.016 469.718 358.128V312.688H460.95L460.31 309.296L483.734 289.968L487.19 290.48V306.864H506.326L504.726 312.688H487.19V356.848C487.19 363.675 489.793 367.088 494.998 367.088C496.534 367.088 498.027 366.768 499.478 366.128C500.929 365.488 502.23 364.464 503.382 363.056L506.07 366.448C503.937 369.307 501.163 371.504 497.75 373.04C494.337 374.576 490.646 375.344 486.678 375.344ZM545.653 375.344C538.912 375.344 533.024 373.936 527.989 371.12C522.954 368.261 519.029 364.293 516.213 359.216C513.44 354.096 512.053 348.187 512.053 341.488C512.053 334.363 513.589 328.112 516.661 322.736C519.776 317.36 524.085 313.157 529.589 310.128C535.136 307.099 541.557 305.584 548.853 305.584C558.112 305.584 565.173 308.144 570.037 313.264C574.944 318.384 577.525 325.915 577.781 335.856L576.821 336.624H523.445V331.568L558.901 330.288C559.2 329.307 559.349 327.685 559.349 325.424C559.349 316.037 555.36 311.344 547.381 311.344C542.048 311.344 537.93 313.584 535.029 318.064C532.17 322.501 530.741 328.816 530.741 337.008C530.741 354.544 537.546 363.312 551.157 363.312C560.373 363.312 567.562 360.112 572.725 353.712L575.861 356.208C573.6 362.267 569.802 366.981 564.469 370.352C559.178 373.68 552.906 375.344 545.653 375.344ZM585.648 374V370.096L595.184 367.728V317.872L585.648 314.288V311.664L609.712 305.584H612.016V317.872L612.528 318.512V367.728L628.016 370.096V374H585.648ZM611.312 326V318.512C614.64 314.288 617.925 311.067 621.168 308.848C624.411 306.587 627.525 305.456 630.512 305.456C633.413 305.456 635.824 306.331 637.744 308.08C639.664 309.787 640.624 311.899 640.624 314.416C640.624 316.805 639.877 318.832 638.384 320.496C636.933 322.117 635.12 322.928 632.944 322.928C630.768 322.928 628.827 322.139 627.12 320.56C626.011 319.493 625.029 318.747 624.176 318.32C623.323 317.851 622.427 317.616 621.488 317.616C620.08 317.616 618.373 318.427 616.368 320.048C614.363 321.669 612.677 323.653 611.312 326ZM646.358 374V370.16L656.726 367.792V308.656C656.726 303.749 656.769 299.803 656.854 296.816C656.982 293.829 657.195 291.44 657.494 289.648C657.835 287.813 658.283 286.213 658.838 284.848C660.118 281.605 662.145 278.789 664.918 276.4C667.691 274.011 670.998 272.155 674.838 270.832C678.678 269.509 682.774 268.848 687.126 268.848C693.142 268.848 698.049 269.957 701.846 272.176C705.686 274.395 707.606 277.275 707.606 280.816C707.606 283.077 706.859 284.933 705.366 286.384C703.915 287.835 701.974 288.56 699.542 288.56C697.409 288.56 695.659 287.877 694.294 286.512C692.971 285.147 692.033 283.355 691.478 281.136C690.881 278.789 690.091 277.125 689.11 276.144C688.129 275.12 686.657 274.608 684.694 274.608C682.817 274.608 681.089 275.077 679.51 276.016C677.974 276.955 676.801 278.448 675.99 280.496C675.265 282.459 674.774 285.019 674.518 288.176C674.305 291.333 674.198 295.237 674.198 299.888V367.792L689.11 370.16V374H646.358ZM644.31 312.304L646.038 306.864H691.094L689.43 312.304H644.31ZM714.065 375.344C709.116 375.344 705.169 373.979 702.225 371.248C699.281 368.475 697.809 364.784 697.809 360.176C697.809 356.123 699.068 352.624 701.585 349.68C704.145 346.693 708.113 344.176 713.489 342.128C718.865 340.037 725.777 338.309 734.225 336.944V326.768C734.225 321.136 733.628 317.317 732.433 315.312C731.281 313.264 729.084 312.24 725.841 312.24C722.556 312.24 719.953 313.029 718.033 314.608C716.113 316.187 715.153 318.341 715.153 321.072C715.153 321.968 715.217 322.864 715.345 323.76C715.516 324.656 715.601 325.531 715.601 326.384C715.601 328.731 714.812 330.672 713.233 332.208C711.697 333.744 709.756 334.512 707.409 334.512C705.148 334.512 703.313 333.787 701.905 332.336C700.54 330.843 699.857 328.923 699.857 326.576C699.857 323.888 700.838 321.179 702.801 318.448C704.764 315.717 707.452 313.307 710.865 311.216C717.094 307.461 724.348 305.584 732.625 305.584C736.892 305.584 740.39 306.139 743.121 307.248C745.852 308.357 747.878 309.957 749.201 312.048C750.097 313.584 750.737 315.568 751.121 318C751.505 320.389 751.697 324.016 751.697 328.88V355.824C751.697 359.707 752.038 362.459 752.721 364.08C753.446 365.701 754.684 366.512 756.433 366.512C758.396 366.512 760.337 365.445 762.257 363.312L764.945 366.768C762.428 369.712 759.804 371.888 757.073 373.296C754.385 374.661 751.356 375.344 747.985 375.344C744.06 375.344 741.073 374.491 739.025 372.784C736.977 371.035 735.633 368.389 734.993 364.848H734.481C731.58 368.304 728.401 370.928 724.945 372.72C721.532 374.469 717.905 375.344 714.065 375.344ZM723.985 364.592C726.033 364.592 727.932 364.165 729.681 363.312C731.473 362.459 732.988 361.221 734.225 359.6V342.256C729.617 343.152 725.99 344.176 723.345 345.328C720.7 346.437 718.844 347.824 717.777 349.488C716.71 351.109 716.177 353.179 716.177 355.696C716.177 358.64 716.817 360.859 718.097 362.352C719.377 363.845 721.34 364.592 723.985 364.592ZM801.62 375.344C795.348 375.344 789.78 373.893 784.916 370.992C780.095 368.091 776.297 364.101 773.524 359.024C770.793 353.904 769.428 348.059 769.428 341.488C769.428 334.533 770.943 328.368 773.972 322.992C777.001 317.573 781.183 313.328 786.516 310.256C791.849 307.141 797.951 305.584 804.82 305.584C809.599 305.584 813.887 306.352 817.684 307.888C821.481 309.424 824.489 311.493 826.708 314.096C828.927 316.656 830.036 319.536 830.036 322.736C830.036 325.253 829.332 327.237 827.924 328.688C826.516 330.139 824.596 330.864 822.164 330.864C819.305 330.864 817.321 330.032 816.212 328.368C815.145 326.704 814.484 324.784 814.228 322.608C813.759 319.024 812.948 316.272 811.796 314.352C810.644 312.432 808.511 311.472 805.396 311.472C799.977 311.472 795.775 313.797 792.788 318.448C789.801 323.099 788.308 329.52 788.308 337.712C788.308 345.989 789.908 352.304 793.108 356.656C796.308 361.008 800.959 363.184 807.06 363.184C811.156 363.184 814.804 362.416 818.004 360.88C821.247 359.344 824.212 356.912 826.9 353.584L830.1 355.952C827.583 362.395 823.956 367.237 819.22 370.48C814.484 373.723 808.617 375.344 801.62 375.344ZM872.528 375.344C865.787 375.344 859.899 373.936 854.864 371.12C849.829 368.261 845.904 364.293 843.088 359.216C840.315 354.096 838.928 348.187 838.928 341.488C838.928 334.363 840.464 328.112 843.536 322.736C846.651 317.36 850.96 313.157 856.464 310.128C862.011 307.099 868.432 305.584 875.728 305.584C884.987 305.584 892.048 308.144 896.912 313.264C901.819 318.384 904.4 325.915 904.656 335.856L903.696 336.624H850.32V331.568L885.776 330.288C886.075 329.307 886.224 327.685 886.224 325.424C886.224 316.037 882.235 311.344 874.256 311.344C868.923 311.344 864.805 313.584 861.904 318.064C859.045 322.501 857.616 328.816 857.616 337.008C857.616 354.544 864.421 363.312 878.032 363.312C887.248 363.312 894.437 360.112 899.6 353.712L902.736 356.208C900.475 362.267 896.677 366.981 891.344 370.352C886.053 373.68 879.781 375.344 872.528 375.344ZM935.371 375.344C932.299 375.344 928.992 375.088 925.451 374.576C921.952 374.064 918.923 373.403 916.363 372.592L915.531 351.984H920.267C920.694 357.744 922.187 362.139 924.747 365.168C927.307 368.197 930.848 369.712 935.371 369.712C938.784 369.712 941.515 368.816 943.563 367.024C945.654 365.189 946.699 362.8 946.699 359.856C946.699 357.509 945.91 355.44 944.331 353.648C942.752 351.813 940.086 349.915 936.331 347.952L930.443 345.008C925.28 342.32 921.504 339.397 919.115 336.24C916.768 333.083 915.595 329.285 915.595 324.848C915.595 318.576 917.856 313.797 922.379 310.512C926.902 307.227 933.515 305.584 942.219 305.584C945.376 305.584 948.427 305.797 951.371 306.224C954.315 306.608 956.662 307.141 958.411 307.824V325.36H954.187C952.95 315.931 948.512 311.216 940.875 311.216C937.846 311.216 935.414 311.984 933.579 313.52C931.744 315.013 930.827 317.019 930.827 319.536C930.827 321.755 931.638 323.717 933.259 325.424C934.88 327.131 937.675 328.944 941.643 330.864L947.659 333.872C952.48 336.304 956 339.12 958.219 342.32C960.48 345.477 961.611 349.36 961.611 353.968C961.611 360.624 959.286 365.851 954.635 369.648C950.027 373.445 943.606 375.344 935.371 375.344Z" fill="white"/>
<line x1="304" y1="217.5" x2="616" y2="217.5" stroke="#19F1FF" stroke-dasharray="4 4"/>
<line x1="238.5" y1="347" x2="238.5" y2="436" stroke="#19F1FF" stroke-dasharray="4 4"/>
<line x1="787.5" y1="41" x2="787.5" y2="218" stroke="#19F1FF" stroke-dasharray="4 4"/>
<defs>
<linearGradient id="paint0_linear_710_492" x1="297.005" y1="242.201" x2="196.38" y2="321.81" gradientUnits="userSpaceOnUse">
<stop offset="0.45" stop-color="white"/>
<stop offset="1" stop-color="white"/>
</linearGradient>
</defs>
</svg>
