<svg width="1004" height="436" viewBox="0 0 1004 436" fill="none" xmlns="http://www.w3.org/2000/svg">
<path d="M701.589 252V250.765L704.8 249.967V225.058L701.589 224.279V223.063H713.882C716.06 223.063 717.954 223.405 719.563 224.089C721.171 224.773 722.419 225.755 723.306 227.034C724.192 228.301 724.636 229.833 724.636 231.632C724.636 234.267 723.635 236.3 721.634 237.731C719.645 239.15 716.858 239.859 713.274 239.859H710.538V249.967L715.098 250.765V252H701.589ZM710.538 237.997H711.545C712.824 237.997 713.888 237.858 714.737 237.579C715.585 237.288 716.295 236.863 716.865 236.306C717.447 235.723 717.865 235.02 718.119 234.197C718.372 233.374 718.499 232.405 718.499 231.29C718.499 229.998 718.321 228.909 717.967 228.022C717.625 227.135 717.131 226.464 716.485 226.008C715.636 225.286 714.205 224.925 712.191 224.925H710.538V237.997ZM726.772 252V250.841L729.603 250.138V235.337L726.772 234.273V233.494L733.916 231.689H734.6V235.337L734.752 235.527V250.138L739.35 250.841V252H726.772ZM734.391 237.75V235.527C735.379 234.273 736.355 233.317 737.317 232.658C738.28 231.987 739.205 231.651 740.091 231.651C740.953 231.651 741.668 231.911 742.238 232.43C742.808 232.937 743.093 233.564 743.093 234.311C743.093 235.02 742.872 235.622 742.428 236.116C741.998 236.597 741.459 236.838 740.813 236.838C740.167 236.838 739.591 236.604 739.084 236.135C738.755 235.818 738.464 235.597 738.21 235.47C737.957 235.331 737.691 235.261 737.412 235.261C736.994 235.261 736.488 235.502 735.892 235.983C735.297 236.464 734.797 237.053 734.391 237.75ZM754.914 252.399C752.736 252.399 750.861 251.937 749.29 251.012C747.72 250.087 746.516 248.84 745.68 247.269C744.844 245.698 744.426 243.957 744.426 242.044C744.426 240.119 744.844 238.377 745.68 236.819C746.516 235.248 747.72 234.001 749.29 233.076C750.861 232.151 752.736 231.689 754.914 231.689C757.093 231.689 758.961 232.151 760.519 233.076C762.09 234.001 763.293 235.248 764.129 236.819C764.978 238.377 765.402 240.119 765.402 242.044C765.402 243.957 764.978 245.698 764.129 247.269C763.293 248.84 762.09 250.087 760.519 251.012C758.961 251.937 757.093 252.399 754.914 252.399ZM754.914 250.518C755.826 250.518 756.593 250.271 757.213 249.777C757.834 249.283 758.328 248.624 758.695 247.801C759.063 246.965 759.329 246.047 759.493 245.046C759.658 244.045 759.74 243.038 759.74 242.025C759.74 241.024 759.658 240.024 759.493 239.023C759.341 238.022 759.082 237.11 758.714 236.287C758.347 235.464 757.853 234.805 757.232 234.311C756.612 233.817 755.839 233.57 754.914 233.57C753.99 233.57 753.217 233.817 752.596 234.311C751.976 234.805 751.482 235.464 751.114 236.287C750.747 237.11 750.481 238.029 750.316 239.042C750.164 240.043 750.088 241.043 750.088 242.044C750.088 243.057 750.164 244.064 750.316 245.065C750.481 246.053 750.747 246.965 751.114 247.801C751.482 248.624 751.976 249.283 752.596 249.777C753.217 250.271 753.99 250.518 754.914 250.518ZM781.664 233.095C781.904 232.424 782.215 231.746 782.595 231.062C782.987 230.378 783.469 229.808 784.039 229.352C784.609 228.883 785.286 228.649 786.072 228.649C786.781 228.649 787.383 228.839 787.877 229.219C788.371 229.599 788.618 230.118 788.618 230.777C788.618 231.309 788.44 231.79 788.086 232.221C787.731 232.639 787.243 232.848 786.623 232.848C786.217 232.848 785.907 232.766 785.692 232.601C785.476 232.436 785.274 232.272 785.084 232.107C784.906 231.942 784.653 231.86 784.324 231.86C783.893 231.86 783.57 232.063 783.355 232.468C783.139 232.873 782.975 233.342 782.861 233.874L781.664 233.095ZM777.18 244.191C777.965 244.191 778.573 243.893 779.004 243.298C779.447 242.69 779.757 241.949 779.935 241.075C780.112 240.201 780.201 239.352 780.201 238.529C780.201 238.01 780.163 237.446 780.087 236.838C780.023 236.217 779.884 235.635 779.669 235.09C779.466 234.533 779.175 234.077 778.795 233.722C778.427 233.355 777.946 233.171 777.351 233.171C776.743 233.171 776.236 233.367 775.831 233.76C775.438 234.14 775.128 234.634 774.9 235.242C774.684 235.85 774.532 236.49 774.444 237.161C774.355 237.82 774.311 238.421 774.311 238.966C774.311 239.65 774.387 240.404 774.539 241.227C774.691 242.038 774.969 242.734 775.375 243.317C775.793 243.9 776.394 244.191 777.18 244.191ZM777.161 245.73C775.742 245.73 774.748 245.876 774.178 246.167C773.608 246.446 773.323 246.832 773.323 247.326C773.323 247.782 773.646 248.149 774.292 248.428C774.95 248.707 776.204 249.004 778.054 249.321L780.79 249.796C783.032 250.163 784.685 250.778 785.749 251.639C786.825 252.488 787.364 253.634 787.364 255.078C787.364 256.319 787.022 257.371 786.338 258.232C785.654 259.106 784.742 259.809 783.602 260.341C782.474 260.886 781.214 261.278 779.821 261.519C778.44 261.772 777.04 261.899 775.622 261.899C774.558 261.899 773.506 261.81 772.468 261.633C771.429 261.456 770.485 261.171 769.637 260.778C768.788 260.398 768.11 259.891 767.604 259.258C767.097 258.637 766.844 257.884 766.844 256.997C766.844 256.009 767.236 255.103 768.022 254.28C768.807 253.469 770.137 252.697 772.012 251.962L773.456 252.551C772.696 252.969 772.1 253.533 771.67 254.242C771.252 254.951 771.043 255.699 771.043 256.484C771.043 257.333 771.302 258.029 771.822 258.574C772.341 259.119 773.025 259.524 773.874 259.79C774.722 260.056 775.628 260.189 776.591 260.189C777.655 260.189 778.712 260.075 779.764 259.847C780.828 259.619 781.708 259.264 782.405 258.783C783.114 258.302 783.469 257.675 783.469 256.902C783.469 256.446 783.317 256.041 783.013 255.686C782.709 255.331 782.151 255.002 781.341 254.698C780.543 254.407 779.403 254.122 777.921 253.843L774.786 253.254C772.734 252.861 771.264 252.317 770.378 251.62C769.491 250.911 769.048 250.049 769.048 249.036C769.048 248.428 769.238 247.845 769.618 247.288C769.998 246.718 770.606 246.224 771.442 245.806C772.29 245.388 773.405 245.097 774.786 244.932L777.161 245.73ZM777.161 245.73C775.679 245.73 774.317 245.451 773.076 244.894C771.834 244.324 770.84 243.513 770.093 242.462C769.345 241.398 768.972 240.144 768.972 238.7C768.972 237.357 769.326 236.16 770.036 235.109C770.758 234.045 771.739 233.209 772.981 232.601C774.222 231.993 775.622 231.689 777.18 231.689C778.687 231.689 780.074 231.98 781.341 232.563C782.607 233.146 783.621 233.956 784.381 234.995C785.153 236.034 785.54 237.237 785.54 238.605C785.54 239.796 785.191 240.942 784.495 242.044C783.798 243.133 782.823 244.02 781.569 244.704C780.315 245.388 778.845 245.73 777.161 245.73ZM789.265 252V250.841L792.096 250.138V235.337L789.265 234.273V233.494L796.409 231.689H797.093V235.337L797.245 235.527V250.138L801.843 250.841V252H789.265ZM796.884 237.75V235.527C797.872 234.273 798.847 233.317 799.81 232.658C800.772 231.987 801.697 231.651 802.584 231.651C803.445 231.651 804.161 231.911 804.731 232.43C805.301 232.937 805.586 233.564 805.586 234.311C805.586 235.02 805.364 235.622 804.921 236.116C804.49 236.597 803.952 236.838 803.306 236.838C802.66 236.838 802.083 236.604 801.577 236.135C801.247 235.818 800.956 235.597 800.703 235.47C800.449 235.331 800.183 235.261 799.905 235.261C799.487 235.261 798.98 235.502 798.385 235.983C797.789 236.464 797.289 237.053 796.884 237.75ZM811.988 252.399C810.519 252.399 809.347 251.994 808.473 251.183C807.599 250.36 807.162 249.264 807.162 247.896C807.162 246.693 807.536 245.654 808.283 244.78C809.043 243.893 810.221 243.146 811.817 242.538C813.413 241.917 815.465 241.404 817.973 240.999V237.978C817.973 236.306 817.796 235.172 817.441 234.577C817.099 233.969 816.447 233.665 815.484 233.665C814.509 233.665 813.736 233.899 813.166 234.368C812.596 234.837 812.311 235.476 812.311 236.287C812.311 236.553 812.33 236.819 812.368 237.085C812.419 237.351 812.444 237.611 812.444 237.864C812.444 238.561 812.21 239.137 811.741 239.593C811.285 240.049 810.709 240.277 810.012 240.277C809.341 240.277 808.796 240.062 808.378 239.631C807.973 239.188 807.77 238.618 807.77 237.921C807.77 237.123 808.061 236.319 808.644 235.508C809.227 234.697 810.025 233.982 811.038 233.361C812.887 232.246 815.041 231.689 817.498 231.689C818.765 231.689 819.803 231.854 820.614 232.183C821.425 232.512 822.026 232.987 822.419 233.608C822.685 234.064 822.875 234.653 822.989 235.375C823.103 236.084 823.16 237.161 823.16 238.605V246.604C823.16 247.757 823.261 248.574 823.464 249.055C823.679 249.536 824.047 249.777 824.566 249.777C825.149 249.777 825.725 249.46 826.295 248.827L827.093 249.853C826.346 250.727 825.567 251.373 824.756 251.791C823.958 252.196 823.059 252.399 822.058 252.399C820.893 252.399 820.006 252.146 819.398 251.639C818.79 251.12 818.391 250.334 818.201 249.283H818.049C817.188 250.309 816.244 251.088 815.218 251.62C814.205 252.139 813.128 252.399 811.988 252.399ZM814.933 249.207C815.541 249.207 816.105 249.08 816.624 248.827C817.156 248.574 817.606 248.206 817.973 247.725V242.576C816.605 242.842 815.528 243.146 814.743 243.488C813.958 243.817 813.407 244.229 813.09 244.723C812.773 245.204 812.615 245.819 812.615 246.566C812.615 247.44 812.805 248.099 813.185 248.542C813.565 248.985 814.148 249.207 814.933 249.207ZM828.006 252V250.841L830.818 250.138V235.337L828.063 234.292V233.532L834.675 231.689H835.853V234.539L836.005 234.729V250.138L838.703 250.841V252H828.006ZM840.394 252V250.841L843.092 250.157V239.707C843.092 237.896 842.82 236.597 842.275 235.812C841.73 235.027 840.837 234.634 839.596 234.634C838.659 234.634 837.829 234.849 837.107 235.28C836.398 235.698 835.764 236.319 835.207 237.142V234.995C836.157 233.982 837.31 233.177 838.665 232.582C840.02 231.987 841.376 231.689 842.731 231.689C844.618 231.689 846.012 232.221 846.911 233.285C847.81 234.349 848.26 236.015 848.26 238.282V250.157L850.958 250.841V252H840.394ZM852.668 252V250.841L855.347 250.157V239.669C855.347 237.845 855.094 236.559 854.587 235.812C854.08 235.052 853.206 234.672 851.965 234.672C851.028 234.672 850.185 234.881 849.438 235.299C848.703 235.704 848.045 236.325 847.462 237.161V234.995C848.374 233.969 849.514 233.165 850.882 232.582C852.263 231.987 853.656 231.689 855.062 231.689C856.924 231.689 858.292 232.227 859.166 233.304C860.04 234.368 860.49 236.046 860.515 238.339V250.157L863.213 250.841V252H852.668ZM870.361 252.399C868.892 252.399 867.72 251.994 866.846 251.183C865.972 250.36 865.535 249.264 865.535 247.896C865.535 246.693 865.909 245.654 866.656 244.78C867.416 243.893 868.594 243.146 870.19 242.538C871.786 241.917 873.838 241.404 876.346 240.999V237.978C876.346 236.306 876.169 235.172 875.814 234.577C875.472 233.969 874.82 233.665 873.857 233.665C872.882 233.665 872.109 233.899 871.539 234.368C870.969 234.837 870.684 235.476 870.684 236.287C870.684 236.553 870.703 236.819 870.741 237.085C870.792 237.351 870.817 237.611 870.817 237.864C870.817 238.561 870.583 239.137 870.114 239.593C869.658 240.049 869.082 240.277 868.385 240.277C867.714 240.277 867.169 240.062 866.751 239.631C866.346 239.188 866.143 238.618 866.143 237.921C866.143 237.123 866.434 236.319 867.017 235.508C867.6 234.697 868.398 233.982 869.411 233.361C871.26 232.246 873.414 231.689 875.871 231.689C877.138 231.689 878.176 231.854 878.987 232.183C879.798 232.512 880.399 232.987 880.792 233.608C881.058 234.064 881.248 234.653 881.362 235.375C881.476 236.084 881.533 237.161 881.533 238.605V246.604C881.533 247.757 881.634 248.574 881.837 249.055C882.052 249.536 882.42 249.777 882.939 249.777C883.522 249.777 884.098 249.46 884.668 248.827L885.466 249.853C884.719 250.727 883.94 251.373 883.129 251.791C882.331 252.196 881.432 252.399 880.431 252.399C879.266 252.399 878.379 252.146 877.771 251.639C877.163 251.12 876.764 250.334 876.574 249.283H876.422C875.561 250.309 874.617 251.088 873.591 251.62C872.578 252.139 871.501 252.399 870.361 252.399ZM873.306 249.207C873.914 249.207 874.478 249.08 874.997 248.827C875.529 248.574 875.979 248.206 876.346 247.725V242.576C874.978 242.842 873.901 243.146 873.116 243.488C872.331 243.817 871.78 244.229 871.463 244.723C871.146 245.204 870.988 245.819 870.988 246.566C870.988 247.44 871.178 248.099 871.558 248.542C871.938 248.985 872.521 249.207 873.306 249.207ZM896.354 252.399C894.492 252.399 892.839 251.968 891.395 251.107C889.964 250.246 888.836 249.061 888.013 247.554C887.202 246.034 886.797 244.299 886.797 242.348C886.797 240.283 887.247 238.453 888.146 236.857C889.045 235.248 890.287 233.988 891.87 233.076C893.453 232.151 895.265 231.689 897.304 231.689C898.723 231.689 899.996 231.917 901.123 232.373C902.25 232.829 903.143 233.443 903.802 234.216C904.461 234.976 904.79 235.831 904.79 236.781C904.79 237.528 904.581 238.117 904.163 238.548C903.745 238.979 903.175 239.194 902.453 239.194C901.604 239.194 901.015 238.947 900.686 238.453C900.369 237.959 900.173 237.389 900.097 236.743C899.958 235.679 899.717 234.862 899.375 234.292C899.033 233.722 898.4 233.437 897.475 233.437C895.866 233.437 894.619 234.127 893.732 235.508C892.845 236.889 892.402 238.795 892.402 241.227C892.402 243.684 892.877 245.559 893.827 246.851C894.777 248.143 896.158 248.789 897.969 248.789C899.185 248.789 900.268 248.561 901.218 248.105C902.181 247.649 903.061 246.927 903.859 245.939L904.809 246.642C904.062 248.555 902.985 249.992 901.579 250.955C900.173 251.918 898.431 252.399 896.354 252.399ZM896.335 261.652C895.638 261.652 894.98 261.57 894.359 261.405C893.738 261.253 893.244 261.038 892.877 260.759L893.523 259.22C893.89 259.435 894.239 259.587 894.568 259.676C894.897 259.765 895.233 259.809 895.575 259.809C896.208 259.809 896.715 259.651 897.095 259.334C897.475 259.017 897.665 258.65 897.665 258.232C897.665 257.852 897.526 257.542 897.247 257.301C896.968 257.073 896.595 256.959 896.126 256.959C895.873 256.959 895.575 256.984 895.233 257.035C894.904 257.086 894.606 257.162 894.34 257.263L893.865 256.921L896.126 251.373H898.064L896.962 254.185C898.305 254.185 899.356 254.533 900.116 255.23C900.889 255.939 901.275 256.826 901.275 257.89C901.275 258.967 900.832 259.86 899.945 260.569C899.058 261.291 897.855 261.652 896.335 261.652ZM912.443 252.399C910.974 252.399 909.802 251.994 908.928 251.183C908.054 250.36 907.617 249.264 907.617 247.896C907.617 246.693 907.991 245.654 908.738 244.78C909.498 243.893 910.676 243.146 912.272 242.538C913.868 241.917 915.92 241.404 918.428 240.999V237.978C918.428 236.306 918.251 235.172 917.896 234.577C917.554 233.969 916.902 233.665 915.939 233.665C914.964 233.665 914.191 233.899 913.621 234.368C913.051 234.837 912.766 235.476 912.766 236.287C912.766 236.553 912.785 236.819 912.823 237.085C912.874 237.351 912.899 237.611 912.899 237.864C912.899 238.561 912.665 239.137 912.196 239.593C911.74 240.049 911.164 240.277 910.467 240.277C909.796 240.277 909.251 240.062 908.833 239.631C908.428 239.188 908.225 238.618 908.225 237.921C908.225 237.123 908.516 236.319 909.099 235.508C909.682 234.697 910.48 233.982 911.493 233.361C913.342 232.246 915.496 231.689 917.953 231.689C919.22 231.689 920.258 231.854 921.069 232.183C921.88 232.512 922.481 232.987 922.874 233.608C923.14 234.064 923.33 234.653 923.444 235.375C923.558 236.084 923.615 237.161 923.615 238.605V246.604C923.615 247.757 923.716 248.574 923.919 249.055C924.134 249.536 924.502 249.777 925.021 249.777C925.604 249.777 926.18 249.46 926.75 248.827L927.548 249.853C926.801 250.727 926.022 251.373 925.211 251.791C924.413 252.196 923.514 252.399 922.513 252.399C921.348 252.399 920.461 252.146 919.853 251.639C919.245 251.12 918.846 250.334 918.656 249.283H918.504C917.643 250.309 916.699 251.088 915.673 251.62C914.66 252.139 913.583 252.399 912.443 252.399ZM915.388 249.207C915.996 249.207 916.56 249.08 917.079 248.827C917.611 248.574 918.061 248.206 918.428 247.725V242.576C917.06 242.842 915.983 243.146 915.198 243.488C914.413 243.817 913.862 244.229 913.545 244.723C913.228 245.204 913.07 245.819 913.07 246.566C913.07 247.44 913.26 248.099 913.64 248.542C914.02 248.985 914.603 249.207 915.388 249.207ZM919.511 226.901C918.84 226.901 918.244 226.781 917.725 226.54C917.218 226.287 916.718 226.04 916.224 225.799C915.743 225.546 915.192 225.419 914.571 225.419C913.938 225.419 913.431 225.552 913.051 225.818C912.671 226.071 912.443 226.413 912.367 226.844H911.094C911.094 225.223 911.442 223.969 912.139 223.082C912.848 222.183 913.748 221.733 914.837 221.733C915.47 221.733 916.047 221.847 916.566 222.075C917.085 222.29 917.592 222.512 918.086 222.74C918.593 222.968 919.131 223.082 919.701 223.082C920.904 223.082 921.62 222.601 921.848 221.638H923.14C923.14 223.247 922.83 224.526 922.209 225.476C921.588 226.426 920.689 226.901 919.511 226.901ZM939.348 252.399C937.169 252.399 935.295 251.937 933.724 251.012C932.153 250.087 930.95 248.84 930.114 247.269C929.278 245.698 928.86 243.957 928.86 242.044C928.86 240.119 929.278 238.377 930.114 236.819C930.95 235.248 932.153 234.001 933.724 233.076C935.295 232.151 937.169 231.689 939.348 231.689C941.527 231.689 943.395 232.151 944.953 233.076C946.524 234.001 947.727 235.248 948.563 236.819C949.412 238.377 949.836 240.119 949.836 242.044C949.836 243.957 949.412 245.698 948.563 247.269C947.727 248.84 946.524 250.087 944.953 251.012C943.395 251.937 941.527 252.399 939.348 252.399ZM939.348 250.518C940.26 250.518 941.026 250.271 941.647 249.777C942.268 249.283 942.762 248.624 943.129 247.801C943.496 246.965 943.762 246.047 943.927 245.046C944.092 244.045 944.174 243.038 944.174 242.025C944.174 241.024 944.092 240.024 943.927 239.023C943.775 238.022 943.515 237.11 943.148 236.287C942.781 235.464 942.287 234.805 941.666 234.311C941.045 233.817 940.273 233.57 939.348 233.57C938.423 233.57 937.651 233.817 937.03 234.311C936.409 234.805 935.915 235.464 935.548 236.287C935.181 237.11 934.915 238.029 934.75 239.042C934.598 240.043 934.522 241.043 934.522 242.044C934.522 243.057 934.598 244.064 934.75 245.065C934.915 246.053 935.181 246.965 935.548 247.801C935.915 248.624 936.409 249.283 937.03 249.777C937.651 250.271 938.423 250.518 939.348 250.518ZM682.95 308.785C681.164 308.785 679.727 308.449 678.637 307.778C677.548 307.119 677.003 306.245 677.003 305.156C677.003 304.447 677.219 303.883 677.649 303.465C678.08 303.06 678.656 302.857 679.378 302.857C679.961 302.857 680.43 302.99 680.784 303.256C681.139 303.522 681.462 303.978 681.753 304.624C682.146 305.473 682.507 306.055 682.836 306.372C683.166 306.701 683.577 306.866 684.071 306.866C685.034 306.866 685.75 306.366 686.218 305.365C686.687 304.377 686.921 302.851 686.921 300.786V282.299L683.843 281.292V280.494L691.443 278.689H692.089V295.485C692.089 296.739 692.064 297.816 692.013 298.715C691.975 299.602 691.899 300.368 691.785 301.014C691.671 301.673 691.519 302.262 691.329 302.781C691.139 303.3 690.892 303.82 690.588 304.339C689.74 305.846 688.688 306.961 687.434 307.683C686.193 308.418 684.698 308.785 682.95 308.785ZM689.467 275.478C688.505 275.478 687.757 275.187 687.225 274.604C686.706 274.009 686.446 273.337 686.446 272.59C686.446 271.805 686.719 271.121 687.263 270.538C687.808 269.955 688.543 269.664 689.467 269.664C690.405 269.664 691.152 269.955 691.709 270.538C692.267 271.121 692.545 271.805 692.545 272.59C692.545 273.337 692.279 274.009 691.747 274.604C691.215 275.187 690.455 275.478 689.467 275.478ZM701.513 299.399C700.044 299.399 698.872 298.994 697.998 298.183C697.124 297.36 696.687 296.264 696.687 294.896C696.687 293.693 697.061 292.654 697.808 291.78C698.568 290.893 699.746 290.146 701.342 289.538C702.938 288.917 704.99 288.404 707.498 287.999V284.978C707.498 283.306 707.321 282.172 706.966 281.577C706.624 280.969 705.972 280.665 705.009 280.665C704.034 280.665 703.261 280.899 702.691 281.368C702.121 281.837 701.836 282.476 701.836 283.287C701.836 283.553 701.855 283.819 701.893 284.085C701.944 284.351 701.969 284.611 701.969 284.864C701.969 285.561 701.735 286.137 701.266 286.593C700.81 287.049 700.234 287.277 699.537 287.277C698.866 287.277 698.321 287.062 697.903 286.631C697.498 286.188 697.295 285.618 697.295 284.921C697.295 284.123 697.587 283.319 698.169 282.508C698.752 281.697 699.55 280.982 700.563 280.361C702.413 279.246 704.566 278.689 707.023 278.689C708.29 278.689 709.329 278.854 710.139 279.183C710.95 279.512 711.552 279.987 711.944 280.608C712.21 281.064 712.4 281.653 712.514 282.375C712.628 283.084 712.685 284.161 712.685 285.605V293.604C712.685 294.757 712.787 295.574 712.989 296.055C713.205 296.536 713.572 296.777 714.091 296.777C714.674 296.777 715.25 296.46 715.82 295.827L716.618 296.853C715.871 297.727 715.092 298.373 714.281 298.791C713.483 299.196 712.584 299.399 711.583 299.399C710.418 299.399 709.531 299.146 708.923 298.639C708.315 298.12 707.916 297.334 707.726 296.283H707.574C706.713 297.309 705.769 298.088 704.743 298.62C703.73 299.139 702.653 299.399 701.513 299.399ZM704.458 296.207C705.066 296.207 705.63 296.08 706.149 295.827C706.681 295.574 707.131 295.206 707.498 294.725V289.576C706.13 289.842 705.054 290.146 704.268 290.488C703.483 290.817 702.932 291.229 702.615 291.723C702.299 292.204 702.14 292.819 702.14 293.566C702.14 294.44 702.33 295.099 702.71 295.542C703.09 295.985 703.673 296.207 704.458 296.207ZM725.552 299.399L718.028 281.843C717.774 281.248 717.477 280.849 717.135 280.646C716.805 280.431 716.147 280.291 715.159 280.228V279.069H726.863V280.228C725.773 280.291 725.026 280.412 724.621 280.589C724.228 280.766 724.032 281.026 724.032 281.368C724.032 281.609 724.101 281.9 724.241 282.242L728.459 293.072H728.611L732.411 283.078C732.651 282.432 732.772 281.944 732.772 281.615C732.772 281.222 732.582 280.931 732.202 280.741C731.834 280.551 731.125 280.38 730.074 280.228V279.069H738.586V280.228C737.623 280.367 736.888 280.532 736.382 280.722C735.875 280.912 735.482 281.191 735.204 281.558C734.938 281.925 734.672 282.445 734.406 283.116L728.136 299.399H725.552ZM743.447 299.399C741.978 299.399 740.806 298.994 739.932 298.183C739.058 297.36 738.621 296.264 738.621 294.896C738.621 293.693 738.995 292.654 739.742 291.78C740.502 290.893 741.68 290.146 743.276 289.538C744.872 288.917 746.924 288.404 749.432 287.999V284.978C749.432 283.306 749.255 282.172 748.9 281.577C748.558 280.969 747.906 280.665 746.943 280.665C745.968 280.665 745.195 280.899 744.625 281.368C744.055 281.837 743.77 282.476 743.77 283.287C743.77 283.553 743.789 283.819 743.827 284.085C743.878 284.351 743.903 284.611 743.903 284.864C743.903 285.561 743.669 286.137 743.2 286.593C742.744 287.049 742.168 287.277 741.471 287.277C740.8 287.277 740.255 287.062 739.837 286.631C739.432 286.188 739.229 285.618 739.229 284.921C739.229 284.123 739.52 283.319 740.103 282.508C740.686 281.697 741.484 280.982 742.497 280.361C744.346 279.246 746.5 278.689 748.957 278.689C750.224 278.689 751.262 278.854 752.073 279.183C752.884 279.512 753.485 279.987 753.878 280.608C754.144 281.064 754.334 281.653 754.448 282.375C754.562 283.084 754.619 284.161 754.619 285.605V293.604C754.619 294.757 754.72 295.574 754.923 296.055C755.138 296.536 755.506 296.777 756.025 296.777C756.608 296.777 757.184 296.46 757.754 295.827L758.552 296.853C757.805 297.727 757.026 298.373 756.215 298.791C755.417 299.196 754.518 299.399 753.517 299.399C752.352 299.399 751.465 299.146 750.857 298.639C750.249 298.12 749.85 297.334 749.66 296.283H749.508C748.647 297.309 747.703 298.088 746.677 298.62C745.664 299.139 744.587 299.399 743.447 299.399ZM746.392 296.207C747 296.207 747.564 296.08 748.083 295.827C748.615 295.574 749.065 295.206 749.432 294.725V289.576C748.064 289.842 746.987 290.146 746.202 290.488C745.417 290.817 744.866 291.229 744.549 291.723C744.232 292.204 744.074 292.819 744.074 293.566C744.074 294.44 744.264 295.099 744.644 295.542C745.024 295.985 745.607 296.207 746.392 296.207ZM766.286 299.399C765.374 299.399 764.392 299.323 763.341 299.171C762.302 299.019 761.403 298.823 760.643 298.582L760.396 292.464H761.802C761.929 294.174 762.372 295.479 763.132 296.378C763.892 297.277 764.943 297.727 766.286 297.727C767.299 297.727 768.11 297.461 768.718 296.929C769.339 296.384 769.649 295.675 769.649 294.801C769.649 294.104 769.415 293.49 768.946 292.958C768.477 292.413 767.686 291.85 766.571 291.267L764.823 290.393C763.29 289.595 762.169 288.727 761.46 287.79C760.763 286.853 760.415 285.725 760.415 284.408C760.415 282.546 761.086 281.127 762.429 280.152C763.772 279.177 765.735 278.689 768.319 278.689C769.256 278.689 770.162 278.752 771.036 278.879C771.91 278.993 772.607 279.151 773.126 279.354V284.56H771.872C771.505 281.761 770.187 280.361 767.92 280.361C767.021 280.361 766.299 280.589 765.754 281.045C765.209 281.488 764.937 282.084 764.937 282.831C764.937 283.49 765.178 284.072 765.659 284.579C766.14 285.086 766.97 285.624 768.148 286.194L769.934 287.087C771.365 287.809 772.41 288.645 773.069 289.595C773.74 290.532 774.076 291.685 774.076 293.053C774.076 295.029 773.386 296.581 772.005 297.708C770.637 298.835 768.731 299.399 766.286 299.399ZM786.696 299.399C784.834 299.399 783.181 298.968 781.737 298.107C780.305 297.246 779.178 296.061 778.355 294.554C777.544 293.034 777.139 291.299 777.139 289.348C777.139 287.283 777.588 285.453 778.488 283.857C779.387 282.248 780.628 280.988 782.212 280.076C783.795 279.151 785.606 278.689 787.646 278.689C789.064 278.689 790.337 278.917 791.465 279.373C792.592 279.829 793.485 280.443 794.144 281.216C794.802 281.976 795.132 282.831 795.132 283.781C795.132 284.528 794.923 285.117 794.505 285.548C794.087 285.979 793.517 286.194 792.795 286.194C791.946 286.194 791.357 285.947 791.028 285.453C790.711 284.959 790.515 284.389 790.439 283.743C790.299 282.679 790.059 281.862 789.717 281.292C789.375 280.722 788.741 280.437 787.817 280.437C786.208 280.437 784.96 281.127 784.074 282.508C783.187 283.889 782.744 285.795 782.744 288.227C782.744 290.684 783.219 292.559 784.169 293.851C785.119 295.143 786.499 295.789 788.311 295.789C789.527 295.789 790.61 295.561 791.56 295.105C792.522 294.649 793.403 293.927 794.201 292.939L795.151 293.642C794.403 295.555 793.327 296.992 791.921 297.955C790.515 298.918 788.773 299.399 786.696 299.399ZM797.392 299V297.841L800.223 297.138V282.337L797.392 281.273V280.494L804.536 278.689H805.22V282.337L805.372 282.527V297.138L809.97 297.841V299H797.392ZM805.011 284.75V282.527C805.999 281.273 806.974 280.317 807.937 279.658C808.899 278.987 809.824 278.651 810.711 278.651C811.572 278.651 812.288 278.911 812.858 279.43C813.428 279.937 813.713 280.564 813.713 281.311C813.713 282.02 813.491 282.622 813.048 283.116C812.617 283.597 812.079 283.838 811.433 283.838C810.787 283.838 810.21 283.604 809.704 283.135C809.374 282.818 809.083 282.597 808.83 282.47C808.576 282.331 808.31 282.261 808.032 282.261C807.614 282.261 807.107 282.502 806.512 282.983C805.916 283.464 805.416 284.053 805.011 284.75ZM815.016 299V297.841L818.132 297.138V282.299L815.035 281.292V280.494L822.635 278.689H823.319V297.138L826.264 297.841V299H815.016ZM820.659 275.478C819.709 275.478 818.974 275.18 818.455 274.585C817.936 273.99 817.676 273.331 817.676 272.609C817.676 271.824 817.942 271.14 818.474 270.557C819.006 269.962 819.734 269.664 820.659 269.664C821.609 269.664 822.363 269.962 822.92 270.557C823.477 271.14 823.756 271.824 823.756 272.609C823.756 273.331 823.49 273.99 822.958 274.585C822.426 275.18 821.66 275.478 820.659 275.478ZM827.456 308.405V307.569L830.572 306.695V282.299L827.532 281.292V280.494L834.752 278.689H835.474V281.634H835.664C836.373 280.684 837.285 279.956 838.4 279.449C839.527 278.942 840.692 278.689 841.896 278.689C843.517 278.689 844.948 279.113 846.19 279.962C847.444 280.811 848.419 281.982 849.116 283.477C849.825 284.972 850.18 286.688 850.18 288.626C850.18 290.767 849.73 292.648 848.831 294.269C847.931 295.89 846.671 297.151 845.05 298.05C843.428 298.949 841.528 299.399 839.35 299.399C838.691 299.399 838.07 299.348 837.488 299.247C836.918 299.146 836.348 299 835.778 298.81V306.695L840.395 307.569V308.405H827.456ZM839.445 297.613C840.471 297.613 841.364 297.258 842.124 296.549C842.884 295.84 843.473 294.858 843.891 293.604C844.321 292.35 844.537 290.9 844.537 289.253C844.537 286.859 844.1 284.972 843.226 283.591C842.352 282.198 841.167 281.501 839.673 281.501C838.9 281.501 838.14 281.71 837.393 282.128C836.645 282.533 836.12 283.059 835.816 283.705V293.604C835.816 294.731 836.17 295.681 836.88 296.454C837.589 297.227 838.444 297.613 839.445 297.613ZM860.301 299.399C858.528 299.399 857.242 298.987 856.444 298.164C855.659 297.328 855.266 296.036 855.266 294.288V280.798H852.663L852.473 279.791L859.427 274.053L860.453 274.205V279.069H866.134L865.659 280.798H860.453V293.908C860.453 295.935 861.226 296.948 862.771 296.948C863.227 296.948 863.67 296.853 864.101 296.663C864.532 296.473 864.918 296.169 865.26 295.751L866.058 296.758C865.425 297.607 864.601 298.259 863.588 298.715C862.575 299.171 861.479 299.399 860.301 299.399ZM876.626 308.405V307.569L879.742 306.695V282.299L876.702 281.292V280.494L883.922 278.689H884.644V281.634H884.834C885.543 280.684 886.455 279.956 887.57 279.449C888.697 278.942 889.862 278.689 891.066 278.689C892.687 278.689 894.118 279.113 895.36 279.962C896.614 280.811 897.589 281.982 898.286 283.477C898.995 284.972 899.35 286.688 899.35 288.626C899.35 290.767 898.9 292.648 898.001 294.269C897.101 295.89 895.841 297.151 894.22 298.05C892.598 298.949 890.698 299.399 888.52 299.399C887.861 299.399 887.24 299.348 886.658 299.247C886.088 299.146 885.518 299 884.948 298.81V306.695L889.565 307.569V308.405H876.626ZM888.615 297.613C889.641 297.613 890.534 297.258 891.294 296.549C892.054 295.84 892.643 294.858 893.061 293.604C893.491 292.35 893.707 290.9 893.707 289.253C893.707 286.859 893.27 284.972 892.396 283.591C891.522 282.198 890.337 281.501 888.843 281.501C888.07 281.501 887.31 281.71 886.563 282.128C885.815 282.533 885.29 283.059 884.986 283.705V293.604C884.986 294.731 885.34 295.681 886.05 296.454C886.759 297.227 887.614 297.613 888.615 297.613ZM907.248 299.399C905.778 299.399 904.607 298.994 903.733 298.183C902.859 297.36 902.422 296.264 902.422 294.896C902.422 293.693 902.795 292.654 903.543 291.78C904.303 290.893 905.481 290.146 907.077 289.538C908.673 288.917 910.725 288.404 913.233 287.999V284.978C913.233 283.306 913.055 282.172 912.701 281.577C912.359 280.969 911.706 280.665 910.744 280.665C909.768 280.665 908.996 280.899 908.426 281.368C907.856 281.837 907.571 282.476 907.571 283.287C907.571 283.553 907.59 283.819 907.628 284.085C907.678 284.351 907.704 284.611 907.704 284.864C907.704 285.561 907.469 286.137 907.001 286.593C906.545 287.049 905.968 287.277 905.272 287.277C904.6 287.277 904.056 287.062 903.638 286.631C903.232 286.188 903.03 285.618 903.03 284.921C903.03 284.123 903.321 283.319 903.904 282.508C904.486 281.697 905.284 280.982 906.298 280.361C908.147 279.246 910.3 278.689 912.758 278.689C914.024 278.689 915.063 278.854 915.874 279.183C916.684 279.512 917.286 279.987 917.679 280.608C917.945 281.064 918.135 281.653 918.249 282.375C918.363 283.084 918.42 284.161 918.42 285.605V293.604C918.42 294.757 918.521 295.574 918.724 296.055C918.939 296.536 919.306 296.777 919.826 296.777C920.408 296.777 920.985 296.46 921.555 295.827L922.353 296.853C921.605 297.727 920.826 298.373 920.016 298.791C919.218 299.196 918.318 299.399 917.318 299.399C916.152 299.399 915.266 299.146 914.658 298.639C914.05 298.12 913.651 297.334 913.461 296.283H913.309C912.447 297.309 911.504 298.088 910.478 298.62C909.464 299.139 908.388 299.399 907.248 299.399ZM910.193 296.207C910.801 296.207 911.364 296.08 911.884 295.827C912.416 295.574 912.865 295.206 913.233 294.725V289.576C911.865 289.842 910.788 290.146 910.003 290.488C909.217 290.817 908.666 291.229 908.35 291.723C908.033 292.204 907.875 292.819 907.875 293.566C907.875 294.44 908.065 295.099 908.445 295.542C908.825 295.985 909.407 296.207 910.193 296.207ZM923.304 299V297.841L926.135 297.138V282.337L923.304 281.273V280.494L930.448 278.689H931.132V282.337L931.284 282.527V297.138L935.882 297.841V299H923.304ZM930.923 284.75V282.527C931.911 281.273 932.886 280.317 933.849 279.658C934.811 278.987 935.736 278.651 936.623 278.651C937.484 278.651 938.2 278.911 938.77 279.43C939.34 279.937 939.625 280.564 939.625 281.311C939.625 282.02 939.403 282.622 938.96 283.116C938.529 283.597 937.991 283.838 937.345 283.838C936.699 283.838 936.122 283.604 935.616 283.135C935.286 282.818 934.995 282.597 934.742 282.47C934.488 282.331 934.222 282.261 933.944 282.261C933.526 282.261 933.019 282.502 932.424 282.983C931.828 283.464 931.328 284.053 930.923 284.75ZM946.027 299.399C944.558 299.399 943.386 298.994 942.512 298.183C941.638 297.36 941.201 296.264 941.201 294.896C941.201 293.693 941.575 292.654 942.322 291.78C943.082 290.893 944.26 290.146 945.856 289.538C947.452 288.917 949.504 288.404 952.012 287.999V284.978C952.012 283.306 951.835 282.172 951.48 281.577C951.138 280.969 950.486 280.665 949.523 280.665C948.548 280.665 947.775 280.899 947.205 281.368C946.635 281.837 946.35 282.476 946.35 283.287C946.35 283.553 946.369 283.819 946.407 284.085C946.458 284.351 946.483 284.611 946.483 284.864C946.483 285.561 946.249 286.137 945.78 286.593C945.324 287.049 944.748 287.277 944.051 287.277C943.38 287.277 942.835 287.062 942.417 286.631C942.012 286.188 941.809 285.618 941.809 284.921C941.809 284.123 942.1 283.319 942.683 282.508C943.266 281.697 944.064 280.982 945.077 280.361C946.926 279.246 949.08 278.689 951.537 278.689C952.804 278.689 953.842 278.854 954.653 279.183C955.464 279.512 956.065 279.987 956.458 280.608C956.724 281.064 956.914 281.653 957.028 282.375C957.142 283.084 957.199 284.161 957.199 285.605V293.604C957.199 294.757 957.3 295.574 957.503 296.055C957.718 296.536 958.086 296.777 958.605 296.777C959.188 296.777 959.764 296.46 960.334 295.827L961.132 296.853C960.385 297.727 959.606 298.373 958.795 298.791C957.997 299.196 957.098 299.399 956.097 299.399C954.932 299.399 954.045 299.146 953.437 298.639C952.829 298.12 952.43 297.334 952.24 296.283H952.088C951.227 297.309 950.283 298.088 949.257 298.62C948.244 299.139 947.167 299.399 946.027 299.399ZM948.972 296.207C949.58 296.207 950.144 296.08 950.663 295.827C951.195 295.574 951.645 295.206 952.012 294.725V289.576C950.644 289.842 949.567 290.146 948.782 290.488C947.997 290.817 947.446 291.229 947.129 291.723C946.812 292.204 946.654 292.819 946.654 293.566C946.654 294.44 946.844 295.099 947.224 295.542C947.604 295.985 948.187 296.207 948.972 296.207Z" fill="white"/>
<path d="M407.283 385V380.875L416.688 378.785V307.23L407.283 305.195V301.235H437.038C443.345 301.235 448.863 301.492 453.593 302.005C458.36 302.482 462.54 303.307 466.133 304.48C469.763 305.617 473.045 307.175 475.978 309.155C481.295 312.638 485.53 317.295 488.683 323.125C491.836 328.955 493.413 335.592 493.413 343.035C493.413 350.625 491.745 357.573 488.408 363.88C485.071 370.187 480.653 375.082 475.153 378.565C471.523 380.875 467.563 382.525 463.273 383.515C459.02 384.505 453.813 385 447.653 385H407.283ZM446.443 379.115C450.696 379.115 454.381 378.528 457.498 377.355C460.651 376.145 463.291 374.293 465.418 371.8C467.838 368.94 469.616 365.127 470.753 360.36C471.926 355.557 472.513 349.782 472.513 343.035C472.513 336.362 471.926 330.77 470.753 326.26C469.616 321.75 467.838 318.028 465.418 315.095C463.255 312.418 460.486 310.438 457.113 309.155C453.74 307.872 449.761 307.23 445.178 307.23H435.388V372.57C435.388 374.843 436.231 376.512 437.918 377.575C439.605 378.602 442.446 379.115 446.443 379.115ZM532.259 386.155C526.245 386.155 520.984 384.945 516.474 382.525C512 380.068 508.517 376.658 506.024 372.295C503.567 367.895 502.339 362.817 502.339 357.06C502.339 350.937 503.714 345.565 506.464 340.945C509.214 336.325 513.027 332.713 517.904 330.11C522.817 327.507 528.5 326.205 534.954 326.205C543.277 326.205 549.602 328.46 553.929 332.97C558.292 337.443 560.602 344.043 560.859 352.77L560.034 353.485H512.514V348.535L542.819 347.435C543.112 346.665 543.259 345.29 543.259 343.31C543.259 335.61 540.032 331.76 533.579 331.76C529.362 331.76 526.117 333.593 523.844 337.26C521.607 340.927 520.489 346.133 520.489 352.88C520.489 367.547 526.154 374.88 537.484 374.88C545.33 374.88 551.509 372.203 556.019 366.85L559.044 369.435C557.1 374.715 553.764 378.822 549.034 381.755C544.34 384.688 538.749 386.155 532.259 386.155ZM587.221 386.155C584.434 386.155 581.482 385.935 578.366 385.495C575.249 385.092 572.572 384.523 570.336 383.79L569.621 366.08H574.296C574.626 370.81 575.854 374.44 577.981 376.97C580.144 379.463 583.114 380.71 586.891 380.71C589.714 380.71 591.969 379.995 593.656 378.565C595.342 377.098 596.186 375.192 596.186 372.845C596.186 371.012 595.526 369.38 594.206 367.95C592.922 366.483 590.722 364.925 587.606 363.275L582.326 360.58C577.999 358.307 574.809 355.777 572.756 352.99C570.739 350.203 569.731 346.885 569.731 343.035C569.731 337.498 571.747 333.318 575.781 330.495C579.851 327.635 585.827 326.205 593.711 326.205C596.497 326.205 599.174 326.388 601.741 326.755C604.344 327.085 606.434 327.543 608.011 328.13V343.2H603.831C602.767 335.5 599.137 331.65 592.941 331.65C590.447 331.65 588.431 332.255 586.891 333.465C585.387 334.675 584.636 336.252 584.636 338.195C584.636 339.918 585.314 341.477 586.671 342.87C588.027 344.227 590.374 345.712 593.711 347.325L598.936 350.02C603.006 352.11 606.012 354.567 607.956 357.39C609.899 360.177 610.871 363.55 610.871 367.51C610.871 373.377 608.799 377.96 604.656 381.26C600.512 384.523 594.701 386.155 587.221 386.155ZM617.786 385V381.15L627.081 379.005V336.985L617.786 334.015V331.43L641.656 326.205H643.966V379.005L652.656 381.15V385H617.786ZM635.331 318.065C632.325 318.065 630.015 317.13 628.401 315.26C626.788 313.39 625.981 311.355 625.981 309.155C625.981 306.772 626.806 304.663 628.456 302.83C630.143 300.997 632.435 300.08 635.331 300.08C638.301 300.08 640.648 300.997 642.371 302.83C644.131 304.663 645.011 306.772 645.011 309.155C645.011 311.355 644.186 313.39 642.536 315.26C640.923 317.13 638.521 318.065 635.331 318.065ZM698.575 330.275C699.308 328.258 700.243 326.242 701.38 324.225C702.553 322.208 703.983 320.522 705.67 319.165C707.393 317.808 709.447 317.13 711.83 317.13C714.067 317.13 715.918 317.717 717.385 318.89C718.888 320.027 719.64 321.585 719.64 323.565C719.64 325.142 719.108 326.59 718.045 327.91C717.018 329.23 715.533 329.89 713.59 329.89C712.38 329.89 711.427 329.652 710.73 329.175C710.033 328.698 709.392 328.222 708.805 327.745C708.218 327.268 707.448 327.03 706.495 327.03C705.138 327.03 704.185 327.598 703.635 328.735C703.085 329.872 702.663 331.192 702.37 332.695L698.575 330.275ZM684.99 362.12C687.043 362.12 688.62 361.277 689.72 359.59C690.857 357.867 691.645 355.777 692.085 353.32C692.562 350.827 692.8 348.407 692.8 346.06C692.8 344.593 692.708 342.998 692.525 341.275C692.342 339.552 691.975 337.902 691.425 336.325C690.912 334.748 690.178 333.465 689.225 332.475C688.272 331.448 687.025 330.935 685.485 330.935C683.908 330.935 682.607 331.485 681.58 332.585C680.553 333.685 679.747 335.097 679.16 336.82C678.573 338.543 678.152 340.358 677.895 342.265C677.675 344.135 677.565 345.84 677.565 347.38C677.565 349.323 677.767 351.45 678.17 353.76C678.573 356.07 679.307 358.05 680.37 359.7C681.433 361.313 682.973 362.12 684.99 362.12ZM684.935 367.015C680.718 367.015 677.877 367.418 676.41 368.225C674.943 368.995 674.21 369.967 674.21 371.14C674.21 372.497 675.163 373.56 677.07 374.33C678.977 375.1 682.625 375.962 688.015 376.915L695.935 378.29C702.498 379.39 707.338 381.223 710.455 383.79C713.572 386.32 715.13 389.693 715.13 393.91C715.13 397.65 714.122 400.785 712.105 403.315C710.088 405.882 707.393 407.935 704.02 409.475C700.683 411.015 696.962 412.115 692.855 412.775C688.748 413.472 684.605 413.82 680.425 413.82C677.235 413.82 674.082 413.563 670.965 413.05C667.848 412.537 665.007 411.73 662.44 410.63C659.91 409.53 657.875 408.063 656.335 406.23C654.832 404.433 654.08 402.252 654.08 399.685C654.08 396.862 655.217 394.277 657.49 391.93C659.8 389.62 663.65 387.42 669.04 385.33L673.66 387.2C671.753 388.447 670.268 390.042 669.205 391.985C668.178 393.965 667.665 396 667.665 398.09C667.665 400.437 668.417 402.362 669.92 403.865C671.423 405.368 673.385 406.468 675.805 407.165C678.225 407.898 680.792 408.265 683.505 408.265C686.328 408.265 689.225 407.972 692.195 407.385C695.165 406.798 697.658 405.882 699.675 404.635C701.728 403.388 702.755 401.757 702.755 399.74C702.755 398.457 702.315 397.32 701.435 396.33C700.555 395.34 698.997 394.423 696.76 393.58C694.523 392.773 691.388 392.003 687.355 391.27L678.335 389.565C671.808 388.318 667.225 386.65 664.585 384.56C661.945 382.47 660.625 379.922 660.625 376.915C660.625 374.862 661.248 372.973 662.495 371.25C663.742 369.527 665.612 368.078 668.105 366.905C670.635 365.695 673.788 364.888 677.565 364.485L684.935 367.015ZM684.935 367.015C680.645 367.015 676.612 366.208 672.835 364.595C669.095 362.945 666.07 360.598 663.76 357.555C661.45 354.475 660.295 350.79 660.295 346.5C660.295 342.613 661.358 339.148 663.485 336.105C665.648 333.025 668.582 330.605 672.285 328.845C676.025 327.085 680.223 326.205 684.88 326.205C689.353 326.205 693.497 327.048 697.31 328.735C701.123 330.422 704.185 332.768 706.495 335.775C708.842 338.782 710.015 342.283 710.015 346.28C710.015 349.653 708.97 352.935 706.88 356.125C704.79 359.315 701.857 361.937 698.08 363.99C694.34 366.007 689.958 367.015 684.935 367.015ZM758.704 385V381.15L766.349 379.005V349.195C766.349 344.722 765.451 341.422 763.654 339.295C761.857 337.132 759.162 336.05 755.569 336.05C751.022 336.05 747.392 337.993 744.679 341.88V335.005C747.282 332.365 750.344 330.238 753.864 328.625C757.421 327.012 761.381 326.205 765.744 326.205C777.404 326.205 783.234 332.585 783.234 345.345V379.005L791.429 381.15V385H758.704ZM720.974 385V381.15L729.169 379.005V337.095L720.864 334.015V331.54L743.084 326.205H745.504V335.5L745.944 336.05V379.005L753.644 381.15V385H720.974ZM827.239 386.155C821.226 386.155 815.964 384.945 811.454 382.525C806.981 380.068 803.497 376.658 801.004 372.295C798.547 367.895 797.319 362.817 797.319 357.06C797.319 350.937 798.694 345.565 801.444 340.945C804.194 336.325 808.007 332.713 812.884 330.11C817.797 327.507 823.481 326.205 829.934 326.205C838.257 326.205 844.582 328.46 848.909 332.97C853.272 337.443 855.582 344.043 855.839 352.77L855.014 353.485H807.494V348.535L837.799 347.435C838.092 346.665 838.239 345.29 838.239 343.31C838.239 335.61 835.012 331.76 828.559 331.76C824.342 331.76 821.097 333.593 818.824 337.26C816.587 340.927 815.469 346.133 815.469 352.88C815.469 367.547 821.134 374.88 832.464 374.88C840.311 374.88 846.489 372.203 850.999 366.85L854.024 369.435C852.081 374.715 848.744 378.822 844.014 381.755C839.321 384.688 833.729 386.155 827.239 386.155ZM862.126 385V381.15L870.321 379.005V337.095L862.016 334.015V331.43L884.291 326.205H886.656V336.16L887.096 336.655V379.005L901.396 381.15V385H862.126ZM885.886 344.08L886.051 336.655C888.948 333.245 891.808 330.642 894.631 328.845C897.491 327.012 900.26 326.095 902.936 326.095C905.65 326.095 907.905 326.865 909.701 328.405C911.498 329.945 912.396 331.852 912.396 334.125C912.396 336.325 911.736 338.177 910.416 339.68C909.133 341.147 907.538 341.88 905.631 341.88C903.725 341.88 901.928 341.202 900.241 339.845C899.178 338.928 898.225 338.268 897.381 337.865C896.575 337.425 895.713 337.205 894.796 337.205C893.513 337.205 891.973 337.902 890.176 339.295C888.416 340.652 886.986 342.247 885.886 344.08ZM936.02 386.155C933.233 386.155 930.281 385.935 927.165 385.495C924.048 385.092 921.371 384.523 919.135 383.79L918.42 366.08H923.095C923.425 370.81 924.653 374.44 926.78 376.97C928.943 379.463 931.913 380.71 935.69 380.71C938.513 380.71 940.768 379.995 942.455 378.565C944.141 377.098 944.985 375.192 944.985 372.845C944.985 371.012 944.325 369.38 943.005 367.95C941.721 366.483 939.521 364.925 936.405 363.275L931.125 360.58C926.798 358.307 923.608 355.777 921.555 352.99C919.538 350.203 918.53 346.885 918.53 343.035C918.53 337.498 920.546 333.318 924.58 330.495C928.65 327.635 934.626 326.205 942.51 326.205C945.296 326.205 947.973 326.388 950.54 326.755C953.143 327.085 955.233 327.543 956.81 328.13V343.2H952.63C951.566 335.5 947.936 331.65 941.74 331.65C939.246 331.65 937.23 332.255 935.69 333.465C934.186 334.675 933.435 336.252 933.435 338.195C933.435 339.918 934.113 341.477 935.47 342.87C936.826 344.227 939.173 345.712 942.51 347.325L947.735 350.02C951.805 352.11 954.811 354.567 956.755 357.39C958.698 360.177 959.67 363.55 959.67 367.51C959.67 373.377 957.598 377.96 953.455 381.26C949.311 384.523 943.5 386.155 936.02 386.155Z" fill="white"/>
</svg>
