<svg width="1004" height="436" viewBox="0 0 1004 436" fill="none" xmlns="http://www.w3.org/2000/svg">
<path d="M710.59 252V250.765L713.801 249.967V225.058L710.59 224.279V223.063H722.883C725.061 223.063 726.955 223.405 728.564 224.089C730.172 224.773 731.42 225.755 732.307 227.034C733.193 228.301 733.637 229.833 733.637 231.632C733.637 234.267 732.636 236.3 730.635 237.731C728.646 239.15 725.859 239.859 722.275 239.859H719.539V249.967L724.099 250.765V252H710.59ZM719.539 237.997H720.546C721.825 237.997 722.889 237.858 723.738 237.579C724.586 237.288 725.296 236.863 725.866 236.306C726.448 235.723 726.866 235.02 727.12 234.197C727.373 233.374 727.5 232.405 727.5 231.29C727.5 229.998 727.322 228.909 726.968 228.022C726.626 227.135 726.132 226.464 725.486 226.008C724.637 225.286 723.206 224.925 721.192 224.925H719.539V237.997ZM735.773 252V250.841L738.604 250.138V235.337L735.773 234.273V233.494L742.917 231.689H743.601V235.337L743.753 235.527V250.138L748.351 250.841V252H735.773ZM743.392 237.75V235.527C744.38 234.273 745.356 233.317 746.318 232.658C747.281 231.987 748.206 231.651 749.092 231.651C749.954 231.651 750.669 231.911 751.239 232.43C751.809 232.937 752.094 233.564 752.094 234.311C752.094 235.02 751.873 235.622 751.429 236.116C750.999 236.597 750.46 236.838 749.814 236.838C749.168 236.838 748.592 236.604 748.085 236.135C747.756 235.818 747.465 235.597 747.211 235.47C746.958 235.331 746.692 235.261 746.413 235.261C745.995 235.261 745.489 235.502 744.893 235.983C744.298 236.464 743.798 237.053 743.392 237.75ZM763.915 252.399C761.737 252.399 759.862 251.937 758.291 251.012C756.721 250.087 755.517 248.84 754.681 247.269C753.845 245.698 753.427 243.957 753.427 242.044C753.427 240.119 753.845 238.377 754.681 236.819C755.517 235.248 756.721 234.001 758.291 233.076C759.862 232.151 761.737 231.689 763.915 231.689C766.094 231.689 767.962 232.151 769.52 233.076C771.091 234.001 772.294 235.248 773.13 236.819C773.979 238.377 774.403 240.119 774.403 242.044C774.403 243.957 773.979 245.698 773.13 247.269C772.294 248.84 771.091 250.087 769.52 251.012C767.962 251.937 766.094 252.399 763.915 252.399ZM763.915 250.518C764.827 250.518 765.594 250.271 766.214 249.777C766.835 249.283 767.329 248.624 767.696 247.801C768.064 246.965 768.33 246.047 768.494 245.046C768.659 244.045 768.741 243.038 768.741 242.025C768.741 241.024 768.659 240.024 768.494 239.023C768.342 238.022 768.083 237.11 767.715 236.287C767.348 235.464 766.854 234.805 766.233 234.311C765.613 233.817 764.84 233.57 763.915 233.57C762.991 233.57 762.218 233.817 761.597 234.311C760.977 234.805 760.483 235.464 760.115 236.287C759.748 237.11 759.482 238.029 759.317 239.042C759.165 240.043 759.089 241.043 759.089 242.044C759.089 243.057 759.165 244.064 759.317 245.065C759.482 246.053 759.748 246.965 760.115 247.801C760.483 248.624 760.977 249.283 761.597 249.777C762.218 250.271 762.991 250.518 763.915 250.518ZM790.665 233.095C790.905 232.424 791.216 231.746 791.596 231.062C791.988 230.378 792.47 229.808 793.04 229.352C793.61 228.883 794.287 228.649 795.073 228.649C795.782 228.649 796.384 228.839 796.878 229.219C797.372 229.599 797.619 230.118 797.619 230.777C797.619 231.309 797.441 231.79 797.087 232.221C796.732 232.639 796.244 232.848 795.624 232.848C795.218 232.848 794.908 232.766 794.693 232.601C794.477 232.436 794.275 232.272 794.085 232.107C793.907 231.942 793.654 231.86 793.325 231.86C792.894 231.86 792.571 232.063 792.356 232.468C792.14 232.873 791.976 233.342 791.862 233.874L790.665 233.095ZM786.181 244.191C786.966 244.191 787.574 243.893 788.005 243.298C788.448 242.69 788.758 241.949 788.936 241.075C789.113 240.201 789.202 239.352 789.202 238.529C789.202 238.01 789.164 237.446 789.088 236.838C789.024 236.217 788.885 235.635 788.67 235.09C788.467 234.533 788.176 234.077 787.796 233.722C787.428 233.355 786.947 233.171 786.352 233.171C785.744 233.171 785.237 233.367 784.832 233.76C784.439 234.14 784.129 234.634 783.901 235.242C783.685 235.85 783.533 236.49 783.445 237.161C783.356 237.82 783.312 238.421 783.312 238.966C783.312 239.65 783.388 240.404 783.54 241.227C783.692 242.038 783.97 242.734 784.376 243.317C784.794 243.9 785.395 244.191 786.181 244.191ZM786.162 245.73C784.743 245.73 783.749 245.876 783.179 246.167C782.609 246.446 782.324 246.832 782.324 247.326C782.324 247.782 782.647 248.149 783.293 248.428C783.951 248.707 785.205 249.004 787.055 249.321L789.791 249.796C792.033 250.163 793.686 250.778 794.75 251.639C795.826 252.488 796.365 253.634 796.365 255.078C796.365 256.319 796.023 257.371 795.339 258.232C794.655 259.106 793.743 259.809 792.603 260.341C791.475 260.886 790.215 261.278 788.822 261.519C787.441 261.772 786.041 261.899 784.623 261.899C783.559 261.899 782.507 261.81 781.469 261.633C780.43 261.456 779.486 261.171 778.638 260.778C777.789 260.398 777.111 259.891 776.605 259.258C776.098 258.637 775.845 257.884 775.845 256.997C775.845 256.009 776.237 255.103 777.023 254.28C777.808 253.469 779.138 252.697 781.013 251.962L782.457 252.551C781.697 252.969 781.101 253.533 780.671 254.242C780.253 254.951 780.044 255.699 780.044 256.484C780.044 257.333 780.303 258.029 780.823 258.574C781.342 259.119 782.026 259.524 782.875 259.79C783.723 260.056 784.629 260.189 785.592 260.189C786.656 260.189 787.713 260.075 788.765 259.847C789.829 259.619 790.709 259.264 791.406 258.783C792.115 258.302 792.47 257.675 792.47 256.902C792.47 256.446 792.318 256.041 792.014 255.686C791.71 255.331 791.152 255.002 790.342 254.698C789.544 254.407 788.404 254.122 786.922 253.843L783.787 253.254C781.735 252.861 780.265 252.317 779.379 251.62C778.492 250.911 778.049 250.049 778.049 249.036C778.049 248.428 778.239 247.845 778.619 247.288C778.999 246.718 779.607 246.224 780.443 245.806C781.291 245.388 782.406 245.097 783.787 244.932L786.162 245.73ZM786.162 245.73C784.68 245.73 783.318 245.451 782.077 244.894C780.835 244.324 779.841 243.513 779.094 242.462C778.346 241.398 777.973 240.144 777.973 238.7C777.973 237.357 778.327 236.16 779.037 235.109C779.759 234.045 780.74 233.209 781.982 232.601C783.223 231.993 784.623 231.689 786.181 231.689C787.688 231.689 789.075 231.98 790.342 232.563C791.608 233.146 792.622 233.956 793.382 234.995C794.154 236.034 794.541 237.237 794.541 238.605C794.541 239.796 794.192 240.942 793.496 242.044C792.799 243.133 791.824 244.02 790.57 244.704C789.316 245.388 787.846 245.73 786.162 245.73ZM798.266 252V250.841L801.097 250.138V235.337L798.266 234.273V233.494L805.41 231.689H806.094V235.337L806.246 235.527V250.138L810.844 250.841V252H798.266ZM805.885 237.75V235.527C806.873 234.273 807.848 233.317 808.811 232.658C809.773 231.987 810.698 231.651 811.585 231.651C812.446 231.651 813.162 231.911 813.732 232.43C814.302 232.937 814.587 233.564 814.587 234.311C814.587 235.02 814.365 235.622 813.922 236.116C813.491 236.597 812.953 236.838 812.307 236.838C811.661 236.838 811.084 236.604 810.578 236.135C810.248 235.818 809.957 235.597 809.704 235.47C809.45 235.331 809.184 235.261 808.906 235.261C808.488 235.261 807.981 235.502 807.386 235.983C806.79 236.464 806.29 237.053 805.885 237.75ZM820.989 252.399C819.52 252.399 818.348 251.994 817.474 251.183C816.6 250.36 816.163 249.264 816.163 247.896C816.163 246.693 816.537 245.654 817.284 244.78C818.044 243.893 819.222 243.146 820.818 242.538C822.414 241.917 824.466 241.404 826.974 240.999V237.978C826.974 236.306 826.797 235.172 826.442 234.577C826.1 233.969 825.448 233.665 824.485 233.665C823.51 233.665 822.737 233.899 822.167 234.368C821.597 234.837 821.312 235.476 821.312 236.287C821.312 236.553 821.331 236.819 821.369 237.085C821.42 237.351 821.445 237.611 821.445 237.864C821.445 238.561 821.211 239.137 820.742 239.593C820.286 240.049 819.71 240.277 819.013 240.277C818.342 240.277 817.797 240.062 817.379 239.631C816.974 239.188 816.771 238.618 816.771 237.921C816.771 237.123 817.062 236.319 817.645 235.508C818.228 234.697 819.026 233.982 820.039 233.361C821.888 232.246 824.042 231.689 826.499 231.689C827.766 231.689 828.804 231.854 829.615 232.183C830.426 232.512 831.027 232.987 831.42 233.608C831.686 234.064 831.876 234.653 831.99 235.375C832.104 236.084 832.161 237.161 832.161 238.605V246.604C832.161 247.757 832.262 248.574 832.465 249.055C832.68 249.536 833.048 249.777 833.567 249.777C834.15 249.777 834.726 249.46 835.296 248.827L836.094 249.853C835.347 250.727 834.568 251.373 833.757 251.791C832.959 252.196 832.06 252.399 831.059 252.399C829.894 252.399 829.007 252.146 828.399 251.639C827.791 251.12 827.392 250.334 827.202 249.283H827.05C826.189 250.309 825.245 251.088 824.219 251.62C823.206 252.139 822.129 252.399 820.989 252.399ZM823.934 249.207C824.542 249.207 825.106 249.08 825.625 248.827C826.157 248.574 826.607 248.206 826.974 247.725V242.576C825.606 242.842 824.529 243.146 823.744 243.488C822.959 243.817 822.408 244.229 822.091 244.723C821.774 245.204 821.616 245.819 821.616 246.566C821.616 247.44 821.806 248.099 822.186 248.542C822.566 248.985 823.149 249.207 823.934 249.207ZM837.007 252V250.841L839.819 250.138V235.337L837.064 234.292V233.532L843.676 231.689H844.854V234.539L845.006 234.729V250.138L847.704 250.841V252H837.007ZM849.395 252V250.841L852.093 250.157V239.707C852.093 237.896 851.821 236.597 851.276 235.812C850.731 235.027 849.838 234.634 848.597 234.634C847.66 234.634 846.83 234.849 846.108 235.28C845.399 235.698 844.765 236.319 844.208 237.142V234.995C845.158 233.982 846.311 233.177 847.666 232.582C849.021 231.987 850.377 231.689 851.732 231.689C853.619 231.689 855.013 232.221 855.912 233.285C856.811 234.349 857.261 236.015 857.261 238.282V250.157L859.959 250.841V252H849.395ZM861.669 252V250.841L864.348 250.157V239.669C864.348 237.845 864.095 236.559 863.588 235.812C863.081 235.052 862.207 234.672 860.966 234.672C860.029 234.672 859.186 234.881 858.439 235.299C857.704 235.704 857.046 236.325 856.463 237.161V234.995C857.375 233.969 858.515 233.165 859.883 232.582C861.264 231.987 862.657 231.689 864.063 231.689C865.925 231.689 867.293 232.227 868.167 233.304C869.041 234.368 869.491 236.046 869.516 238.339V250.157L872.214 250.841V252H861.669ZM879.362 252.399C877.893 252.399 876.721 251.994 875.847 251.183C874.973 250.36 874.536 249.264 874.536 247.896C874.536 246.693 874.91 245.654 875.657 244.78C876.417 243.893 877.595 243.146 879.191 242.538C880.787 241.917 882.839 241.404 885.347 240.999V237.978C885.347 236.306 885.17 235.172 884.815 234.577C884.473 233.969 883.821 233.665 882.858 233.665C881.883 233.665 881.11 233.899 880.54 234.368C879.97 234.837 879.685 235.476 879.685 236.287C879.685 236.553 879.704 236.819 879.742 237.085C879.793 237.351 879.818 237.611 879.818 237.864C879.818 238.561 879.584 239.137 879.115 239.593C878.659 240.049 878.083 240.277 877.386 240.277C876.715 240.277 876.17 240.062 875.752 239.631C875.347 239.188 875.144 238.618 875.144 237.921C875.144 237.123 875.435 236.319 876.018 235.508C876.601 234.697 877.399 233.982 878.412 233.361C880.261 232.246 882.415 231.689 884.872 231.689C886.139 231.689 887.177 231.854 887.988 232.183C888.799 232.512 889.4 232.987 889.793 233.608C890.059 234.064 890.249 234.653 890.363 235.375C890.477 236.084 890.534 237.161 890.534 238.605V246.604C890.534 247.757 890.635 248.574 890.838 249.055C891.053 249.536 891.421 249.777 891.94 249.777C892.523 249.777 893.099 249.46 893.669 248.827L894.467 249.853C893.72 250.727 892.941 251.373 892.13 251.791C891.332 252.196 890.433 252.399 889.432 252.399C888.267 252.399 887.38 252.146 886.772 251.639C886.164 251.12 885.765 250.334 885.575 249.283H885.423C884.562 250.309 883.618 251.088 882.592 251.62C881.579 252.139 880.502 252.399 879.362 252.399ZM882.307 249.207C882.915 249.207 883.479 249.08 883.998 248.827C884.53 248.574 884.98 248.206 885.347 247.725V242.576C883.979 242.842 882.902 243.146 882.117 243.488C881.332 243.817 880.781 244.229 880.464 244.723C880.147 245.204 879.989 245.819 879.989 246.566C879.989 247.44 880.179 248.099 880.559 248.542C880.939 248.985 881.522 249.207 882.307 249.207ZM905.355 252.399C903.493 252.399 901.84 251.968 900.396 251.107C898.965 250.246 897.837 249.061 897.014 247.554C896.203 246.034 895.798 244.299 895.798 242.348C895.798 240.283 896.248 238.453 897.147 236.857C898.046 235.248 899.288 233.988 900.871 233.076C902.454 232.151 904.266 231.689 906.305 231.689C907.724 231.689 908.997 231.917 910.124 232.373C911.251 232.829 912.144 233.443 912.803 234.216C913.462 234.976 913.791 235.831 913.791 236.781C913.791 237.528 913.582 238.117 913.164 238.548C912.746 238.979 912.176 239.194 911.454 239.194C910.605 239.194 910.016 238.947 909.687 238.453C909.37 237.959 909.174 237.389 909.098 236.743C908.959 235.679 908.718 234.862 908.376 234.292C908.034 233.722 907.401 233.437 906.476 233.437C904.867 233.437 903.62 234.127 902.733 235.508C901.846 236.889 901.403 238.795 901.403 241.227C901.403 243.684 901.878 245.559 902.828 246.851C903.778 248.143 905.159 248.789 906.97 248.789C908.186 248.789 909.269 248.561 910.219 248.105C911.182 247.649 912.062 246.927 912.86 245.939L913.81 246.642C913.063 248.555 911.986 249.992 910.58 250.955C909.174 251.918 907.432 252.399 905.355 252.399ZM905.336 261.652C904.639 261.652 903.981 261.57 903.36 261.405C902.739 261.253 902.245 261.038 901.878 260.759L902.524 259.22C902.891 259.435 903.24 259.587 903.569 259.676C903.898 259.765 904.234 259.809 904.576 259.809C905.209 259.809 905.716 259.651 906.096 259.334C906.476 259.017 906.666 258.65 906.666 258.232C906.666 257.852 906.527 257.542 906.248 257.301C905.969 257.073 905.596 256.959 905.127 256.959C904.874 256.959 904.576 256.984 904.234 257.035C903.905 257.086 903.607 257.162 903.341 257.263L902.866 256.921L905.127 251.373H907.065L905.963 254.185C907.306 254.185 908.357 254.533 909.117 255.23C909.89 255.939 910.276 256.826 910.276 257.89C910.276 258.967 909.833 259.86 908.946 260.569C908.059 261.291 906.856 261.652 905.336 261.652ZM921.444 252.399C919.975 252.399 918.803 251.994 917.929 251.183C917.055 250.36 916.618 249.264 916.618 247.896C916.618 246.693 916.992 245.654 917.739 244.78C918.499 243.893 919.677 243.146 921.273 242.538C922.869 241.917 924.921 241.404 927.429 240.999V237.978C927.429 236.306 927.252 235.172 926.897 234.577C926.555 233.969 925.903 233.665 924.94 233.665C923.965 233.665 923.192 233.899 922.622 234.368C922.052 234.837 921.767 235.476 921.767 236.287C921.767 236.553 921.786 236.819 921.824 237.085C921.875 237.351 921.9 237.611 921.9 237.864C921.9 238.561 921.666 239.137 921.197 239.593C920.741 240.049 920.165 240.277 919.468 240.277C918.797 240.277 918.252 240.062 917.834 239.631C917.429 239.188 917.226 238.618 917.226 237.921C917.226 237.123 917.517 236.319 918.1 235.508C918.683 234.697 919.481 233.982 920.494 233.361C922.343 232.246 924.497 231.689 926.954 231.689C928.221 231.689 929.259 231.854 930.07 232.183C930.881 232.512 931.482 232.987 931.875 233.608C932.141 234.064 932.331 234.653 932.445 235.375C932.559 236.084 932.616 237.161 932.616 238.605V246.604C932.616 247.757 932.717 248.574 932.92 249.055C933.135 249.536 933.503 249.777 934.022 249.777C934.605 249.777 935.181 249.46 935.751 248.827L936.549 249.853C935.802 250.727 935.023 251.373 934.212 251.791C933.414 252.196 932.515 252.399 931.514 252.399C930.349 252.399 929.462 252.146 928.854 251.639C928.246 251.12 927.847 250.334 927.657 249.283H927.505C926.644 250.309 925.7 251.088 924.674 251.62C923.661 252.139 922.584 252.399 921.444 252.399ZM924.389 249.207C924.997 249.207 925.561 249.08 926.08 248.827C926.612 248.574 927.062 248.206 927.429 247.725V242.576C926.061 242.842 924.984 243.146 924.199 243.488C923.414 243.817 922.863 244.229 922.546 244.723C922.229 245.204 922.071 245.819 922.071 246.566C922.071 247.44 922.261 248.099 922.641 248.542C923.021 248.985 923.604 249.207 924.389 249.207ZM928.512 226.901C927.841 226.901 927.245 226.781 926.726 226.54C926.219 226.287 925.719 226.04 925.225 225.799C924.744 225.546 924.193 225.419 923.572 225.419C922.939 225.419 922.432 225.552 922.052 225.818C921.672 226.071 921.444 226.413 921.368 226.844H920.095C920.095 225.223 920.443 223.969 921.14 223.082C921.849 222.183 922.749 221.733 923.838 221.733C924.471 221.733 925.048 221.847 925.567 222.075C926.086 222.29 926.593 222.512 927.087 222.74C927.594 222.968 928.132 223.082 928.702 223.082C929.905 223.082 930.621 222.601 930.849 221.638H932.141C932.141 223.247 931.831 224.526 931.21 225.476C930.589 226.426 929.69 226.901 928.512 226.901ZM948.349 252.399C946.17 252.399 944.296 251.937 942.725 251.012C941.154 250.087 939.951 248.84 939.115 247.269C938.279 245.698 937.861 243.957 937.861 242.044C937.861 240.119 938.279 238.377 939.115 236.819C939.951 235.248 941.154 234.001 942.725 233.076C944.296 232.151 946.17 231.689 948.349 231.689C950.528 231.689 952.396 232.151 953.954 233.076C955.525 234.001 956.728 235.248 957.564 236.819C958.413 238.377 958.837 240.119 958.837 242.044C958.837 243.957 958.413 245.698 957.564 247.269C956.728 248.84 955.525 250.087 953.954 251.012C952.396 251.937 950.528 252.399 948.349 252.399ZM948.349 250.518C949.261 250.518 950.027 250.271 950.648 249.777C951.269 249.283 951.763 248.624 952.13 247.801C952.497 246.965 952.763 246.047 952.928 245.046C953.093 244.045 953.175 243.038 953.175 242.025C953.175 241.024 953.093 240.024 952.928 239.023C952.776 238.022 952.516 237.11 952.149 236.287C951.782 235.464 951.288 234.805 950.667 234.311C950.046 233.817 949.274 233.57 948.349 233.57C947.424 233.57 946.652 233.817 946.031 234.311C945.41 234.805 944.916 235.464 944.549 236.287C944.182 237.11 943.916 238.029 943.751 239.042C943.599 240.043 943.523 241.043 943.523 242.044C943.523 243.057 943.599 244.064 943.751 245.065C943.916 246.053 944.182 246.965 944.549 247.801C944.916 248.624 945.41 249.283 946.031 249.777C946.652 250.271 947.424 250.518 948.349 250.518ZM682.951 308.785C681.165 308.785 679.728 308.449 678.638 307.778C677.549 307.119 677.004 306.245 677.004 305.156C677.004 304.447 677.22 303.883 677.65 303.465C678.081 303.06 678.657 302.857 679.379 302.857C679.962 302.857 680.431 302.99 680.785 303.256C681.14 303.522 681.463 303.978 681.754 304.624C682.147 305.473 682.508 306.055 682.837 306.372C683.167 306.701 683.578 306.866 684.072 306.866C685.035 306.866 685.751 306.366 686.219 305.365C686.688 304.377 686.922 302.851 686.922 300.786V282.299L683.844 281.292V280.494L691.444 278.689H692.09V295.485C692.09 296.739 692.065 297.816 692.014 298.715C691.976 299.602 691.9 300.368 691.786 301.014C691.672 301.673 691.52 302.262 691.33 302.781C691.14 303.3 690.893 303.82 690.589 304.339C689.741 305.846 688.689 306.961 687.435 307.683C686.194 308.418 684.699 308.785 682.951 308.785ZM689.468 275.478C688.506 275.478 687.758 275.187 687.226 274.604C686.707 274.009 686.447 273.337 686.447 272.59C686.447 271.805 686.72 271.121 687.264 270.538C687.809 269.955 688.544 269.664 689.468 269.664C690.406 269.664 691.153 269.955 691.71 270.538C692.268 271.121 692.546 271.805 692.546 272.59C692.546 273.337 692.28 274.009 691.748 274.604C691.216 275.187 690.456 275.478 689.468 275.478ZM701.514 299.399C700.045 299.399 698.873 298.994 697.999 298.183C697.125 297.36 696.688 296.264 696.688 294.896C696.688 293.693 697.062 292.654 697.809 291.78C698.569 290.893 699.747 290.146 701.343 289.538C702.939 288.917 704.991 288.404 707.499 287.999V284.978C707.499 283.306 707.322 282.172 706.967 281.577C706.625 280.969 705.973 280.665 705.01 280.665C704.035 280.665 703.262 280.899 702.692 281.368C702.122 281.837 701.837 282.476 701.837 283.287C701.837 283.553 701.856 283.819 701.894 284.085C701.945 284.351 701.97 284.611 701.97 284.864C701.97 285.561 701.736 286.137 701.267 286.593C700.811 287.049 700.235 287.277 699.538 287.277C698.867 287.277 698.322 287.062 697.904 286.631C697.499 286.188 697.296 285.618 697.296 284.921C697.296 284.123 697.588 283.319 698.17 282.508C698.753 281.697 699.551 280.982 700.564 280.361C702.414 279.246 704.567 278.689 707.024 278.689C708.291 278.689 709.33 278.854 710.14 279.183C710.951 279.512 711.553 279.987 711.945 280.608C712.211 281.064 712.401 281.653 712.515 282.375C712.629 283.084 712.686 284.161 712.686 285.605V293.604C712.686 294.757 712.788 295.574 712.99 296.055C713.206 296.536 713.573 296.777 714.092 296.777C714.675 296.777 715.251 296.46 715.821 295.827L716.619 296.853C715.872 297.727 715.093 298.373 714.282 298.791C713.484 299.196 712.585 299.399 711.584 299.399C710.419 299.399 709.532 299.146 708.924 298.639C708.316 298.12 707.917 297.334 707.727 296.283H707.575C706.714 297.309 705.77 298.088 704.744 298.62C703.731 299.139 702.654 299.399 701.514 299.399ZM704.459 296.207C705.067 296.207 705.631 296.08 706.15 295.827C706.682 295.574 707.132 295.206 707.499 294.725V289.576C706.131 289.842 705.055 290.146 704.269 290.488C703.484 290.817 702.933 291.229 702.616 291.723C702.3 292.204 702.141 292.819 702.141 293.566C702.141 294.44 702.331 295.099 702.711 295.542C703.091 295.985 703.674 296.207 704.459 296.207ZM725.553 299.399L718.029 281.843C717.775 281.248 717.478 280.849 717.136 280.646C716.806 280.431 716.148 280.291 715.16 280.228V279.069H726.864V280.228C725.774 280.291 725.027 280.412 724.622 280.589C724.229 280.766 724.033 281.026 724.033 281.368C724.033 281.609 724.102 281.9 724.242 282.242L728.46 293.072H728.612L732.412 283.078C732.652 282.432 732.773 281.944 732.773 281.615C732.773 281.222 732.583 280.931 732.203 280.741C731.835 280.551 731.126 280.38 730.075 280.228V279.069H738.587V280.228C737.624 280.367 736.889 280.532 736.383 280.722C735.876 280.912 735.483 281.191 735.205 281.558C734.939 281.925 734.673 282.445 734.407 283.116L728.137 299.399H725.553ZM743.448 299.399C741.979 299.399 740.807 298.994 739.933 298.183C739.059 297.36 738.622 296.264 738.622 294.896C738.622 293.693 738.996 292.654 739.743 291.78C740.503 290.893 741.681 290.146 743.277 289.538C744.873 288.917 746.925 288.404 749.433 287.999V284.978C749.433 283.306 749.256 282.172 748.901 281.577C748.559 280.969 747.907 280.665 746.944 280.665C745.969 280.665 745.196 280.899 744.626 281.368C744.056 281.837 743.771 282.476 743.771 283.287C743.771 283.553 743.79 283.819 743.828 284.085C743.879 284.351 743.904 284.611 743.904 284.864C743.904 285.561 743.67 286.137 743.201 286.593C742.745 287.049 742.169 287.277 741.472 287.277C740.801 287.277 740.256 287.062 739.838 286.631C739.433 286.188 739.23 285.618 739.23 284.921C739.23 284.123 739.521 283.319 740.104 282.508C740.687 281.697 741.485 280.982 742.498 280.361C744.347 279.246 746.501 278.689 748.958 278.689C750.225 278.689 751.263 278.854 752.074 279.183C752.885 279.512 753.486 279.987 753.879 280.608C754.145 281.064 754.335 281.653 754.449 282.375C754.563 283.084 754.62 284.161 754.62 285.605V293.604C754.62 294.757 754.721 295.574 754.924 296.055C755.139 296.536 755.507 296.777 756.026 296.777C756.609 296.777 757.185 296.46 757.755 295.827L758.553 296.853C757.806 297.727 757.027 298.373 756.216 298.791C755.418 299.196 754.519 299.399 753.518 299.399C752.353 299.399 751.466 299.146 750.858 298.639C750.25 298.12 749.851 297.334 749.661 296.283H749.509C748.648 297.309 747.704 298.088 746.678 298.62C745.665 299.139 744.588 299.399 743.448 299.399ZM746.393 296.207C747.001 296.207 747.565 296.08 748.084 295.827C748.616 295.574 749.066 295.206 749.433 294.725V289.576C748.065 289.842 746.988 290.146 746.203 290.488C745.418 290.817 744.867 291.229 744.55 291.723C744.233 292.204 744.075 292.819 744.075 293.566C744.075 294.44 744.265 295.099 744.645 295.542C745.025 295.985 745.608 296.207 746.393 296.207ZM766.287 299.399C765.375 299.399 764.393 299.323 763.342 299.171C762.303 299.019 761.404 298.823 760.644 298.582L760.397 292.464H761.803C761.93 294.174 762.373 295.479 763.133 296.378C763.893 297.277 764.944 297.727 766.287 297.727C767.3 297.727 768.111 297.461 768.719 296.929C769.34 296.384 769.65 295.675 769.65 294.801C769.65 294.104 769.416 293.49 768.947 292.958C768.478 292.413 767.687 291.85 766.572 291.267L764.824 290.393C763.291 289.595 762.17 288.727 761.461 287.79C760.764 286.853 760.416 285.725 760.416 284.408C760.416 282.546 761.087 281.127 762.43 280.152C763.773 279.177 765.736 278.689 768.32 278.689C769.257 278.689 770.163 278.752 771.037 278.879C771.911 278.993 772.608 279.151 773.127 279.354V284.56H771.873C771.506 281.761 770.188 280.361 767.921 280.361C767.022 280.361 766.3 280.589 765.755 281.045C765.21 281.488 764.938 282.084 764.938 282.831C764.938 283.49 765.179 284.072 765.66 284.579C766.141 285.086 766.971 285.624 768.149 286.194L769.935 287.087C771.366 287.809 772.411 288.645 773.07 289.595C773.741 290.532 774.077 291.685 774.077 293.053C774.077 295.029 773.387 296.581 772.006 297.708C770.638 298.835 768.732 299.399 766.287 299.399ZM786.697 299.399C784.835 299.399 783.182 298.968 781.738 298.107C780.306 297.246 779.179 296.061 778.356 294.554C777.545 293.034 777.14 291.299 777.14 289.348C777.14 287.283 777.589 285.453 778.489 283.857C779.388 282.248 780.629 280.988 782.213 280.076C783.796 279.151 785.607 278.689 787.647 278.689C789.065 278.689 790.338 278.917 791.466 279.373C792.593 279.829 793.486 280.443 794.145 281.216C794.803 281.976 795.133 282.831 795.133 283.781C795.133 284.528 794.924 285.117 794.506 285.548C794.088 285.979 793.518 286.194 792.796 286.194C791.947 286.194 791.358 285.947 791.029 285.453C790.712 284.959 790.516 284.389 790.44 283.743C790.3 282.679 790.06 281.862 789.718 281.292C789.376 280.722 788.742 280.437 787.818 280.437C786.209 280.437 784.961 281.127 784.075 282.508C783.188 283.889 782.745 285.795 782.745 288.227C782.745 290.684 783.22 292.559 784.17 293.851C785.12 295.143 786.5 295.789 788.312 295.789C789.528 295.789 790.611 295.561 791.561 295.105C792.523 294.649 793.404 293.927 794.202 292.939L795.152 293.642C794.404 295.555 793.328 296.992 791.922 297.955C790.516 298.918 788.774 299.399 786.697 299.399ZM797.393 299V297.841L800.224 297.138V282.337L797.393 281.273V280.494L804.537 278.689H805.221V282.337L805.373 282.527V297.138L809.971 297.841V299H797.393ZM805.012 284.75V282.527C806 281.273 806.975 280.317 807.938 279.658C808.9 278.987 809.825 278.651 810.712 278.651C811.573 278.651 812.289 278.911 812.859 279.43C813.429 279.937 813.714 280.564 813.714 281.311C813.714 282.02 813.492 282.622 813.049 283.116C812.618 283.597 812.08 283.838 811.434 283.838C810.788 283.838 810.211 283.604 809.705 283.135C809.375 282.818 809.084 282.597 808.831 282.47C808.577 282.331 808.311 282.261 808.033 282.261C807.615 282.261 807.108 282.502 806.513 282.983C805.917 283.464 805.417 284.053 805.012 284.75ZM815.017 299V297.841L818.133 297.138V282.299L815.036 281.292V280.494L822.636 278.689H823.32V297.138L826.265 297.841V299H815.017ZM820.66 275.478C819.71 275.478 818.975 275.18 818.456 274.585C817.937 273.99 817.677 273.331 817.677 272.609C817.677 271.824 817.943 271.14 818.475 270.557C819.007 269.962 819.735 269.664 820.66 269.664C821.61 269.664 822.364 269.962 822.921 270.557C823.478 271.14 823.757 271.824 823.757 272.609C823.757 273.331 823.491 273.99 822.959 274.585C822.427 275.18 821.661 275.478 820.66 275.478ZM827.457 308.405V307.569L830.573 306.695V282.299L827.533 281.292V280.494L834.753 278.689H835.475V281.634H835.665C836.374 280.684 837.286 279.956 838.401 279.449C839.528 278.942 840.693 278.689 841.897 278.689C843.518 278.689 844.949 279.113 846.191 279.962C847.445 280.811 848.42 281.982 849.117 283.477C849.826 284.972 850.181 286.688 850.181 288.626C850.181 290.767 849.731 292.648 848.832 294.269C847.932 295.89 846.672 297.151 845.051 298.05C843.429 298.949 841.529 299.399 839.351 299.399C838.692 299.399 838.071 299.348 837.489 299.247C836.919 299.146 836.349 299 835.779 298.81V306.695L840.396 307.569V308.405H827.457ZM839.446 297.613C840.472 297.613 841.365 297.258 842.125 296.549C842.885 295.84 843.474 294.858 843.892 293.604C844.322 292.35 844.538 290.9 844.538 289.253C844.538 286.859 844.101 284.972 843.227 283.591C842.353 282.198 841.168 281.501 839.674 281.501C838.901 281.501 838.141 281.71 837.394 282.128C836.646 282.533 836.121 283.059 835.817 283.705V293.604C835.817 294.731 836.171 295.681 836.881 296.454C837.59 297.227 838.445 297.613 839.446 297.613ZM860.302 299.399C858.529 299.399 857.243 298.987 856.445 298.164C855.66 297.328 855.267 296.036 855.267 294.288V280.798H852.664L852.474 279.791L859.428 274.053L860.454 274.205V279.069H866.135L865.66 280.798H860.454V293.908C860.454 295.935 861.227 296.948 862.772 296.948C863.228 296.948 863.671 296.853 864.102 296.663C864.533 296.473 864.919 296.169 865.261 295.751L866.059 296.758C865.426 297.607 864.602 298.259 863.589 298.715C862.576 299.171 861.48 299.399 860.302 299.399ZM876.627 308.405V307.569L879.743 306.695V282.299L876.703 281.292V280.494L883.923 278.689H884.645V281.634H884.835C885.544 280.684 886.456 279.956 887.571 279.449C888.698 278.942 889.863 278.689 891.067 278.689C892.688 278.689 894.119 279.113 895.361 279.962C896.615 280.811 897.59 281.982 898.287 283.477C898.996 284.972 899.351 286.688 899.351 288.626C899.351 290.767 898.901 292.648 898.002 294.269C897.102 295.89 895.842 297.151 894.221 298.05C892.599 298.949 890.699 299.399 888.521 299.399C887.862 299.399 887.241 299.348 886.659 299.247C886.089 299.146 885.519 299 884.949 298.81V306.695L889.566 307.569V308.405H876.627ZM888.616 297.613C889.642 297.613 890.535 297.258 891.295 296.549C892.055 295.84 892.644 294.858 893.062 293.604C893.492 292.35 893.708 290.9 893.708 289.253C893.708 286.859 893.271 284.972 892.397 283.591C891.523 282.198 890.338 281.501 888.844 281.501C888.071 281.501 887.311 281.71 886.564 282.128C885.816 282.533 885.291 283.059 884.987 283.705V293.604C884.987 294.731 885.341 295.681 886.051 296.454C886.76 297.227 887.615 297.613 888.616 297.613ZM907.249 299.399C905.779 299.399 904.608 298.994 903.734 298.183C902.86 297.36 902.423 296.264 902.423 294.896C902.423 293.693 902.796 292.654 903.544 291.78C904.304 290.893 905.482 290.146 907.078 289.538C908.674 288.917 910.726 288.404 913.234 287.999V284.978C913.234 283.306 913.056 282.172 912.702 281.577C912.36 280.969 911.707 280.665 910.745 280.665C909.769 280.665 908.997 280.899 908.427 281.368C907.857 281.837 907.572 282.476 907.572 283.287C907.572 283.553 907.591 283.819 907.629 284.085C907.679 284.351 907.705 284.611 907.705 284.864C907.705 285.561 907.47 286.137 907.002 286.593C906.546 287.049 905.969 287.277 905.273 287.277C904.601 287.277 904.057 287.062 903.639 286.631C903.233 286.188 903.031 285.618 903.031 284.921C903.031 284.123 903.322 283.319 903.905 282.508C904.487 281.697 905.285 280.982 906.299 280.361C908.148 279.246 910.301 278.689 912.759 278.689C914.025 278.689 915.064 278.854 915.875 279.183C916.685 279.512 917.287 279.987 917.68 280.608C917.946 281.064 918.136 281.653 918.25 282.375C918.364 283.084 918.421 284.161 918.421 285.605V293.604C918.421 294.757 918.522 295.574 918.725 296.055C918.94 296.536 919.307 296.777 919.827 296.777C920.409 296.777 920.986 296.46 921.556 295.827L922.354 296.853C921.606 297.727 920.827 298.373 920.017 298.791C919.219 299.196 918.319 299.399 917.319 299.399C916.153 299.399 915.267 299.146 914.659 298.639C914.051 298.12 913.652 297.334 913.462 296.283H913.31C912.448 297.309 911.505 298.088 910.479 298.62C909.465 299.139 908.389 299.399 907.249 299.399ZM910.194 296.207C910.802 296.207 911.365 296.08 911.885 295.827C912.417 295.574 912.866 295.206 913.234 294.725V289.576C911.866 289.842 910.789 290.146 910.004 290.488C909.218 290.817 908.667 291.229 908.351 291.723C908.034 292.204 907.876 292.819 907.876 293.566C907.876 294.44 908.066 295.099 908.446 295.542C908.826 295.985 909.408 296.207 910.194 296.207ZM923.305 299V297.841L926.136 297.138V282.337L923.305 281.273V280.494L930.449 278.689H931.133V282.337L931.285 282.527V297.138L935.883 297.841V299H923.305ZM930.924 284.75V282.527C931.912 281.273 932.887 280.317 933.85 279.658C934.812 278.987 935.737 278.651 936.624 278.651C937.485 278.651 938.201 278.911 938.771 279.43C939.341 279.937 939.626 280.564 939.626 281.311C939.626 282.02 939.404 282.622 938.961 283.116C938.53 283.597 937.992 283.838 937.346 283.838C936.7 283.838 936.123 283.604 935.617 283.135C935.287 282.818 934.996 282.597 934.743 282.47C934.489 282.331 934.223 282.261 933.945 282.261C933.527 282.261 933.02 282.502 932.425 282.983C931.829 283.464 931.329 284.053 930.924 284.75ZM946.028 299.399C944.559 299.399 943.387 298.994 942.513 298.183C941.639 297.36 941.202 296.264 941.202 294.896C941.202 293.693 941.576 292.654 942.323 291.78C943.083 290.893 944.261 290.146 945.857 289.538C947.453 288.917 949.505 288.404 952.013 287.999V284.978C952.013 283.306 951.836 282.172 951.481 281.577C951.139 280.969 950.487 280.665 949.524 280.665C948.549 280.665 947.776 280.899 947.206 281.368C946.636 281.837 946.351 282.476 946.351 283.287C946.351 283.553 946.37 283.819 946.408 284.085C946.459 284.351 946.484 284.611 946.484 284.864C946.484 285.561 946.25 286.137 945.781 286.593C945.325 287.049 944.749 287.277 944.052 287.277C943.381 287.277 942.836 287.062 942.418 286.631C942.013 286.188 941.81 285.618 941.81 284.921C941.81 284.123 942.101 283.319 942.684 282.508C943.267 281.697 944.065 280.982 945.078 280.361C946.927 279.246 949.081 278.689 951.538 278.689C952.805 278.689 953.843 278.854 954.654 279.183C955.465 279.512 956.066 279.987 956.459 280.608C956.725 281.064 956.915 281.653 957.029 282.375C957.143 283.084 957.2 284.161 957.2 285.605V293.604C957.2 294.757 957.301 295.574 957.504 296.055C957.719 296.536 958.087 296.777 958.606 296.777C959.189 296.777 959.765 296.46 960.335 295.827L961.133 296.853C960.386 297.727 959.607 298.373 958.796 298.791C957.998 299.196 957.099 299.399 956.098 299.399C954.933 299.399 954.046 299.146 953.438 298.639C952.83 298.12 952.431 297.334 952.241 296.283H952.089C951.228 297.309 950.284 298.088 949.258 298.62C948.245 299.139 947.168 299.399 946.028 299.399ZM948.973 296.207C949.581 296.207 950.145 296.08 950.664 295.827C951.196 295.574 951.646 295.206 952.013 294.725V289.576C950.645 289.842 949.568 290.146 948.783 290.488C947.998 290.817 947.447 291.229 947.13 291.723C946.813 292.204 946.655 292.819 946.655 293.566C946.655 294.44 946.845 295.099 947.225 295.542C947.605 295.985 948.188 296.207 948.973 296.207Z" fill="white"/>
<path d="M407.283 385V380.875L416.688 378.785V307.23L407.283 305.195V301.235H437.038C443.345 301.235 448.863 301.492 453.593 302.005C458.36 302.482 462.54 303.307 466.133 304.48C469.763 305.617 473.045 307.175 475.978 309.155C481.295 312.638 485.53 317.295 488.683 323.125C491.836 328.955 493.413 335.592 493.413 343.035C493.413 350.625 491.745 357.573 488.408 363.88C485.071 370.187 480.653 375.082 475.153 378.565C471.523 380.875 467.563 382.525 463.273 383.515C459.02 384.505 453.813 385 447.653 385H407.283ZM446.443 379.115C450.696 379.115 454.381 378.528 457.498 377.355C460.651 376.145 463.291 374.293 465.418 371.8C467.838 368.94 469.616 365.127 470.753 360.36C471.926 355.557 472.513 349.782 472.513 343.035C472.513 336.362 471.926 330.77 470.753 326.26C469.616 321.75 467.838 318.028 465.418 315.095C463.255 312.418 460.486 310.438 457.113 309.155C453.74 307.872 449.761 307.23 445.178 307.23H435.388V372.57C435.388 374.843 436.231 376.512 437.918 377.575C439.605 378.602 442.446 379.115 446.443 379.115ZM532.259 386.155C526.245 386.155 520.984 384.945 516.474 382.525C512 380.068 508.517 376.658 506.024 372.295C503.567 367.895 502.339 362.817 502.339 357.06C502.339 350.937 503.714 345.565 506.464 340.945C509.214 336.325 513.027 332.713 517.904 330.11C522.817 327.507 528.5 326.205 534.954 326.205C543.277 326.205 549.602 328.46 553.929 332.97C558.292 337.443 560.602 344.043 560.859 352.77L560.034 353.485H512.514V348.535L542.819 347.435C543.112 346.665 543.259 345.29 543.259 343.31C543.259 335.61 540.032 331.76 533.579 331.76C529.362 331.76 526.117 333.593 523.844 337.26C521.607 340.927 520.489 346.133 520.489 352.88C520.489 367.547 526.154 374.88 537.484 374.88C545.33 374.88 551.509 372.203 556.019 366.85L559.044 369.435C557.1 374.715 553.764 378.822 549.034 381.755C544.34 384.688 538.749 386.155 532.259 386.155ZM587.221 386.155C584.434 386.155 581.482 385.935 578.366 385.495C575.249 385.092 572.572 384.523 570.336 383.79L569.621 366.08H574.296C574.626 370.81 575.854 374.44 577.981 376.97C580.144 379.463 583.114 380.71 586.891 380.71C589.714 380.71 591.969 379.995 593.656 378.565C595.342 377.098 596.186 375.192 596.186 372.845C596.186 371.012 595.526 369.38 594.206 367.95C592.922 366.483 590.722 364.925 587.606 363.275L582.326 360.58C577.999 358.307 574.809 355.777 572.756 352.99C570.739 350.203 569.731 346.885 569.731 343.035C569.731 337.498 571.747 333.318 575.781 330.495C579.851 327.635 585.827 326.205 593.711 326.205C596.497 326.205 599.174 326.388 601.741 326.755C604.344 327.085 606.434 327.543 608.011 328.13V343.2H603.831C602.767 335.5 599.137 331.65 592.941 331.65C590.447 331.65 588.431 332.255 586.891 333.465C585.387 334.675 584.636 336.252 584.636 338.195C584.636 339.918 585.314 341.477 586.671 342.87C588.027 344.227 590.374 345.712 593.711 347.325L598.936 350.02C603.006 352.11 606.012 354.567 607.956 357.39C609.899 360.177 610.871 363.55 610.871 367.51C610.871 373.377 608.799 377.96 604.656 381.26C600.512 384.523 594.701 386.155 587.221 386.155ZM617.786 385V381.15L627.081 379.005V336.985L617.786 334.015V331.43L641.656 326.205H643.966V379.005L652.656 381.15V385H617.786ZM635.331 318.065C632.325 318.065 630.015 317.13 628.401 315.26C626.788 313.39 625.981 311.355 625.981 309.155C625.981 306.772 626.806 304.663 628.456 302.83C630.143 300.997 632.435 300.08 635.331 300.08C638.301 300.08 640.648 300.997 642.371 302.83C644.131 304.663 645.011 306.772 645.011 309.155C645.011 311.355 644.186 313.39 642.536 315.26C640.923 317.13 638.521 318.065 635.331 318.065ZM698.575 330.275C699.308 328.258 700.243 326.242 701.38 324.225C702.553 322.208 703.983 320.522 705.67 319.165C707.393 317.808 709.447 317.13 711.83 317.13C714.067 317.13 715.918 317.717 717.385 318.89C718.888 320.027 719.64 321.585 719.64 323.565C719.64 325.142 719.108 326.59 718.045 327.91C717.018 329.23 715.533 329.89 713.59 329.89C712.38 329.89 711.427 329.652 710.73 329.175C710.033 328.698 709.392 328.222 708.805 327.745C708.218 327.268 707.448 327.03 706.495 327.03C705.138 327.03 704.185 327.598 703.635 328.735C703.085 329.872 702.663 331.192 702.37 332.695L698.575 330.275ZM684.99 362.12C687.043 362.12 688.62 361.277 689.72 359.59C690.857 357.867 691.645 355.777 692.085 353.32C692.562 350.827 692.8 348.407 692.8 346.06C692.8 344.593 692.708 342.998 692.525 341.275C692.342 339.552 691.975 337.902 691.425 336.325C690.912 334.748 690.178 333.465 689.225 332.475C688.272 331.448 687.025 330.935 685.485 330.935C683.908 330.935 682.607 331.485 681.58 332.585C680.553 333.685 679.747 335.097 679.16 336.82C678.573 338.543 678.152 340.358 677.895 342.265C677.675 344.135 677.565 345.84 677.565 347.38C677.565 349.323 677.767 351.45 678.17 353.76C678.573 356.07 679.307 358.05 680.37 359.7C681.433 361.313 682.973 362.12 684.99 362.12ZM684.935 367.015C680.718 367.015 677.877 367.418 676.41 368.225C674.943 368.995 674.21 369.967 674.21 371.14C674.21 372.497 675.163 373.56 677.07 374.33C678.977 375.1 682.625 375.962 688.015 376.915L695.935 378.29C702.498 379.39 707.338 381.223 710.455 383.79C713.572 386.32 715.13 389.693 715.13 393.91C715.13 397.65 714.122 400.785 712.105 403.315C710.088 405.882 707.393 407.935 704.02 409.475C700.683 411.015 696.962 412.115 692.855 412.775C688.748 413.472 684.605 413.82 680.425 413.82C677.235 413.82 674.082 413.563 670.965 413.05C667.848 412.537 665.007 411.73 662.44 410.63C659.91 409.53 657.875 408.063 656.335 406.23C654.832 404.433 654.08 402.252 654.08 399.685C654.08 396.862 655.217 394.277 657.49 391.93C659.8 389.62 663.65 387.42 669.04 385.33L673.66 387.2C671.753 388.447 670.268 390.042 669.205 391.985C668.178 393.965 667.665 396 667.665 398.09C667.665 400.437 668.417 402.362 669.92 403.865C671.423 405.368 673.385 406.468 675.805 407.165C678.225 407.898 680.792 408.265 683.505 408.265C686.328 408.265 689.225 407.972 692.195 407.385C695.165 406.798 697.658 405.882 699.675 404.635C701.728 403.388 702.755 401.757 702.755 399.74C702.755 398.457 702.315 397.32 701.435 396.33C700.555 395.34 698.997 394.423 696.76 393.58C694.523 392.773 691.388 392.003 687.355 391.27L678.335 389.565C671.808 388.318 667.225 386.65 664.585 384.56C661.945 382.47 660.625 379.922 660.625 376.915C660.625 374.862 661.248 372.973 662.495 371.25C663.742 369.527 665.612 368.078 668.105 366.905C670.635 365.695 673.788 364.888 677.565 364.485L684.935 367.015ZM684.935 367.015C680.645 367.015 676.612 366.208 672.835 364.595C669.095 362.945 666.07 360.598 663.76 357.555C661.45 354.475 660.295 350.79 660.295 346.5C660.295 342.613 661.358 339.148 663.485 336.105C665.648 333.025 668.582 330.605 672.285 328.845C676.025 327.085 680.223 326.205 684.88 326.205C689.353 326.205 693.497 327.048 697.31 328.735C701.123 330.422 704.185 332.768 706.495 335.775C708.842 338.782 710.015 342.283 710.015 346.28C710.015 349.653 708.97 352.935 706.88 356.125C704.79 359.315 701.857 361.937 698.08 363.99C694.34 366.007 689.958 367.015 684.935 367.015ZM758.704 385V381.15L766.349 379.005V349.195C766.349 344.722 765.451 341.422 763.654 339.295C761.857 337.132 759.162 336.05 755.569 336.05C751.022 336.05 747.392 337.993 744.679 341.88V335.005C747.282 332.365 750.344 330.238 753.864 328.625C757.421 327.012 761.381 326.205 765.744 326.205C777.404 326.205 783.234 332.585 783.234 345.345V379.005L791.429 381.15V385H758.704ZM720.974 385V381.15L729.169 379.005V337.095L720.864 334.015V331.54L743.084 326.205H745.504V335.5L745.944 336.05V379.005L753.644 381.15V385H720.974ZM827.239 386.155C821.226 386.155 815.964 384.945 811.454 382.525C806.981 380.068 803.497 376.658 801.004 372.295C798.547 367.895 797.319 362.817 797.319 357.06C797.319 350.937 798.694 345.565 801.444 340.945C804.194 336.325 808.007 332.713 812.884 330.11C817.797 327.507 823.481 326.205 829.934 326.205C838.257 326.205 844.582 328.46 848.909 332.97C853.272 337.443 855.582 344.043 855.839 352.77L855.014 353.485H807.494V348.535L837.799 347.435C838.092 346.665 838.239 345.29 838.239 343.31C838.239 335.61 835.012 331.76 828.559 331.76C824.342 331.76 821.097 333.593 818.824 337.26C816.587 340.927 815.469 346.133 815.469 352.88C815.469 367.547 821.134 374.88 832.464 374.88C840.311 374.88 846.489 372.203 850.999 366.85L854.024 369.435C852.081 374.715 848.744 378.822 844.014 381.755C839.321 384.688 833.729 386.155 827.239 386.155ZM862.126 385V381.15L870.321 379.005V337.095L862.016 334.015V331.43L884.291 326.205H886.656V336.16L887.096 336.655V379.005L901.396 381.15V385H862.126ZM885.886 344.08L886.051 336.655C888.948 333.245 891.808 330.642 894.631 328.845C897.491 327.012 900.26 326.095 902.936 326.095C905.65 326.095 907.905 326.865 909.701 328.405C911.498 329.945 912.396 331.852 912.396 334.125C912.396 336.325 911.736 338.177 910.416 339.68C909.133 341.147 907.538 341.88 905.631 341.88C903.725 341.88 901.928 341.202 900.241 339.845C899.178 338.928 898.225 338.268 897.381 337.865C896.575 337.425 895.713 337.205 894.796 337.205C893.513 337.205 891.973 337.902 890.176 339.295C888.416 340.652 886.986 342.247 885.886 344.08ZM936.02 386.155C933.233 386.155 930.281 385.935 927.165 385.495C924.048 385.092 921.371 384.523 919.135 383.79L918.42 366.08H923.095C923.425 370.81 924.653 374.44 926.78 376.97C928.943 379.463 931.913 380.71 935.69 380.71C938.513 380.71 940.768 379.995 942.455 378.565C944.141 377.098 944.985 375.192 944.985 372.845C944.985 371.012 944.325 369.38 943.005 367.95C941.721 366.483 939.521 364.925 936.405 363.275L931.125 360.58C926.798 358.307 923.608 355.777 921.555 352.99C919.538 350.203 918.53 346.885 918.53 343.035C918.53 337.498 920.546 333.318 924.58 330.495C928.65 327.635 934.626 326.205 942.51 326.205C945.296 326.205 947.973 326.388 950.54 326.755C953.143 327.085 955.233 327.543 956.81 328.13V343.2H952.63C951.566 335.5 947.936 331.65 941.74 331.65C939.246 331.65 937.23 332.255 935.69 333.465C934.186 334.675 933.435 336.252 933.435 338.195C933.435 339.918 934.113 341.477 935.47 342.87C936.826 344.227 939.173 345.712 942.51 347.325L947.735 350.02C951.805 352.11 954.811 354.567 956.755 357.39C958.698 360.177 959.67 363.55 959.67 367.51C959.67 373.377 957.598 377.96 953.455 381.26C949.311 384.523 943.5 386.155 936.02 386.155Z" fill="white"/>
</svg>
