<svg width="1004" height="436" viewBox="0 0 1004 436" fill="none" xmlns="http://www.w3.org/2000/svg">
<g clip-path="url(#clip0_2111_982)">
<path d="M711.59 236V234.765L714.801 233.967V209.058L711.59 208.279V207.063H723.883C726.061 207.063 727.955 207.405 729.564 208.089C731.172 208.773 732.42 209.755 733.307 211.034C734.193 212.301 734.637 213.833 734.637 215.632C734.637 218.267 733.636 220.3 731.635 221.731C729.646 223.15 726.859 223.859 723.275 223.859H720.539V233.967L725.099 234.765V236H711.59ZM720.539 221.997H721.546C722.825 221.997 723.889 221.858 724.738 221.579C725.586 221.288 726.296 220.863 726.866 220.306C727.448 219.723 727.866 219.02 728.12 218.197C728.373 217.374 728.5 216.405 728.5 215.29C728.5 213.998 728.322 212.909 727.968 212.022C727.626 211.135 727.132 210.464 726.486 210.008C725.637 209.286 724.206 208.925 722.192 208.925H720.539V221.997ZM736.773 236V234.841L739.604 234.138V219.337L736.773 218.273V217.494L743.917 215.689H744.601V219.337L744.753 219.527V234.138L749.351 234.841V236H736.773ZM744.392 221.75V219.527C745.38 218.273 746.356 217.317 747.318 216.658C748.281 215.987 749.206 215.651 750.092 215.651C750.954 215.651 751.669 215.911 752.239 216.43C752.809 216.937 753.094 217.564 753.094 218.311C753.094 219.02 752.873 219.622 752.429 220.116C751.999 220.597 751.46 220.838 750.814 220.838C750.168 220.838 749.592 220.604 749.085 220.135C748.756 219.818 748.465 219.597 748.211 219.47C747.958 219.331 747.692 219.261 747.413 219.261C746.995 219.261 746.489 219.502 745.893 219.983C745.298 220.464 744.798 221.053 744.392 221.75ZM764.915 236.399C762.737 236.399 760.862 235.937 759.291 235.012C757.721 234.087 756.517 232.84 755.681 231.269C754.845 229.698 754.427 227.957 754.427 226.044C754.427 224.119 754.845 222.377 755.681 220.819C756.517 219.248 757.721 218.001 759.291 217.076C760.862 216.151 762.737 215.689 764.915 215.689C767.094 215.689 768.962 216.151 770.52 217.076C772.091 218.001 773.294 219.248 774.13 220.819C774.979 222.377 775.403 224.119 775.403 226.044C775.403 227.957 774.979 229.698 774.13 231.269C773.294 232.84 772.091 234.087 770.52 235.012C768.962 235.937 767.094 236.399 764.915 236.399ZM764.915 234.518C765.827 234.518 766.594 234.271 767.214 233.777C767.835 233.283 768.329 232.624 768.696 231.801C769.064 230.965 769.33 230.047 769.494 229.046C769.659 228.045 769.741 227.038 769.741 226.025C769.741 225.024 769.659 224.024 769.494 223.023C769.342 222.022 769.083 221.11 768.715 220.287C768.348 219.464 767.854 218.805 767.233 218.311C766.613 217.817 765.84 217.57 764.915 217.57C763.991 217.57 763.218 217.817 762.597 218.311C761.977 218.805 761.483 219.464 761.115 220.287C760.748 221.11 760.482 222.029 760.317 223.042C760.165 224.043 760.089 225.043 760.089 226.044C760.089 227.057 760.165 228.064 760.317 229.065C760.482 230.053 760.748 230.965 761.115 231.801C761.483 232.624 761.977 233.283 762.597 233.777C763.218 234.271 763.991 234.518 764.915 234.518ZM791.665 217.095C791.905 216.424 792.216 215.746 792.596 215.062C792.988 214.378 793.47 213.808 794.04 213.352C794.61 212.883 795.287 212.649 796.073 212.649C796.782 212.649 797.384 212.839 797.878 213.219C798.372 213.599 798.619 214.118 798.619 214.777C798.619 215.309 798.441 215.79 798.087 216.221C797.732 216.639 797.244 216.848 796.624 216.848C796.218 216.848 795.908 216.766 795.693 216.601C795.477 216.436 795.275 216.272 795.085 216.107C794.907 215.942 794.654 215.86 794.325 215.86C793.894 215.86 793.571 216.063 793.356 216.468C793.14 216.873 792.976 217.342 792.862 217.874L791.665 217.095ZM787.181 228.191C787.966 228.191 788.574 227.893 789.005 227.298C789.448 226.69 789.758 225.949 789.936 225.075C790.113 224.201 790.202 223.352 790.202 222.529C790.202 222.01 790.164 221.446 790.088 220.838C790.024 220.217 789.885 219.635 789.67 219.09C789.467 218.533 789.176 218.077 788.796 217.722C788.428 217.355 787.947 217.171 787.352 217.171C786.744 217.171 786.237 217.367 785.832 217.76C785.439 218.14 785.129 218.634 784.901 219.242C784.685 219.85 784.533 220.49 784.445 221.161C784.356 221.82 784.312 222.421 784.312 222.966C784.312 223.65 784.388 224.404 784.54 225.227C784.692 226.038 784.97 226.734 785.376 227.317C785.794 227.9 786.395 228.191 787.181 228.191ZM787.162 229.73C785.743 229.73 784.749 229.876 784.179 230.167C783.609 230.446 783.324 230.832 783.324 231.326C783.324 231.782 783.647 232.149 784.293 232.428C784.951 232.707 786.205 233.004 788.055 233.321L790.791 233.796C793.033 234.163 794.686 234.778 795.75 235.639C796.826 236.488 797.365 237.634 797.365 239.078C797.365 240.319 797.023 241.371 796.339 242.232C795.655 243.106 794.743 243.809 793.603 244.341C792.475 244.886 791.215 245.278 789.822 245.519C788.441 245.772 787.041 245.899 785.623 245.899C784.559 245.899 783.507 245.81 782.469 245.633C781.43 245.456 780.486 245.171 779.638 244.778C778.789 244.398 778.111 243.891 777.605 243.258C777.098 242.637 776.845 241.884 776.845 240.997C776.845 240.009 777.237 239.103 778.023 238.28C778.808 237.469 780.138 236.697 782.013 235.962L783.457 236.551C782.697 236.969 782.101 237.533 781.671 238.242C781.253 238.951 781.044 239.699 781.044 240.484C781.044 241.333 781.303 242.029 781.823 242.574C782.342 243.119 783.026 243.524 783.875 243.79C784.723 244.056 785.629 244.189 786.592 244.189C787.656 244.189 788.713 244.075 789.765 243.847C790.829 243.619 791.709 243.264 792.406 242.783C793.115 242.302 793.47 241.675 793.47 240.902C793.47 240.446 793.318 240.041 793.014 239.686C792.71 239.331 792.152 239.002 791.342 238.698C790.544 238.407 789.404 238.122 787.922 237.843L784.787 237.254C782.735 236.861 781.265 236.317 780.379 235.62C779.492 234.911 779.049 234.049 779.049 233.036C779.049 232.428 779.239 231.845 779.619 231.288C779.999 230.718 780.607 230.224 781.443 229.806C782.291 229.388 783.406 229.097 784.787 228.932L787.162 229.73ZM787.162 229.73C785.68 229.73 784.318 229.451 783.077 228.894C781.835 228.324 780.841 227.513 780.094 226.462C779.346 225.398 778.973 224.144 778.973 222.7C778.973 221.357 779.327 220.16 780.037 219.109C780.759 218.045 781.74 217.209 782.982 216.601C784.223 215.993 785.623 215.689 787.181 215.689C788.688 215.689 790.075 215.98 791.342 216.563C792.608 217.146 793.622 217.956 794.382 218.995C795.154 220.034 795.541 221.237 795.541 222.605C795.541 223.796 795.192 224.942 794.496 226.044C793.799 227.133 792.824 228.02 791.57 228.704C790.316 229.388 788.846 229.73 787.162 229.73ZM799.266 236V234.841L802.097 234.138V219.337L799.266 218.273V217.494L806.41 215.689H807.094V219.337L807.246 219.527V234.138L811.844 234.841V236H799.266ZM806.885 221.75V219.527C807.873 218.273 808.848 217.317 809.811 216.658C810.773 215.987 811.698 215.651 812.585 215.651C813.446 215.651 814.162 215.911 814.732 216.43C815.302 216.937 815.587 217.564 815.587 218.311C815.587 219.02 815.365 219.622 814.922 220.116C814.491 220.597 813.953 220.838 813.307 220.838C812.661 220.838 812.084 220.604 811.578 220.135C811.248 219.818 810.957 219.597 810.704 219.47C810.45 219.331 810.184 219.261 809.906 219.261C809.488 219.261 808.981 219.502 808.386 219.983C807.79 220.464 807.29 221.053 806.885 221.75ZM821.989 236.399C820.52 236.399 819.348 235.994 818.474 235.183C817.6 234.36 817.163 233.264 817.163 231.896C817.163 230.693 817.537 229.654 818.284 228.78C819.044 227.893 820.222 227.146 821.818 226.538C823.414 225.917 825.466 225.404 827.974 224.999V221.978C827.974 220.306 827.797 219.172 827.442 218.577C827.1 217.969 826.448 217.665 825.485 217.665C824.51 217.665 823.737 217.899 823.167 218.368C822.597 218.837 822.312 219.476 822.312 220.287C822.312 220.553 822.331 220.819 822.369 221.085C822.42 221.351 822.445 221.611 822.445 221.864C822.445 222.561 822.211 223.137 821.742 223.593C821.286 224.049 820.71 224.277 820.013 224.277C819.342 224.277 818.797 224.062 818.379 223.631C817.974 223.188 817.771 222.618 817.771 221.921C817.771 221.123 818.062 220.319 818.645 219.508C819.228 218.697 820.026 217.982 821.039 217.361C822.888 216.246 825.042 215.689 827.499 215.689C828.766 215.689 829.804 215.854 830.615 216.183C831.426 216.512 832.027 216.987 832.42 217.608C832.686 218.064 832.876 218.653 832.99 219.375C833.104 220.084 833.161 221.161 833.161 222.605V230.604C833.161 231.757 833.262 232.574 833.465 233.055C833.68 233.536 834.048 233.777 834.567 233.777C835.15 233.777 835.726 233.46 836.296 232.827L837.094 233.853C836.347 234.727 835.568 235.373 834.757 235.791C833.959 236.196 833.06 236.399 832.059 236.399C830.894 236.399 830.007 236.146 829.399 235.639C828.791 235.12 828.392 234.334 828.202 233.283H828.05C827.189 234.309 826.245 235.088 825.219 235.62C824.206 236.139 823.129 236.399 821.989 236.399ZM824.934 233.207C825.542 233.207 826.106 233.08 826.625 232.827C827.157 232.574 827.607 232.206 827.974 231.725V226.576C826.606 226.842 825.529 227.146 824.744 227.488C823.959 227.817 823.408 228.229 823.091 228.723C822.774 229.204 822.616 229.819 822.616 230.566C822.616 231.44 822.806 232.099 823.186 232.542C823.566 232.985 824.149 233.207 824.934 233.207ZM838.007 236V234.841L840.819 234.138V219.337L838.064 218.292V217.532L844.676 215.689H845.854V218.539L846.006 218.729V234.138L848.704 234.841V236H838.007ZM850.395 236V234.841L853.093 234.157V223.707C853.093 221.896 852.821 220.597 852.276 219.812C851.731 219.027 850.838 218.634 849.597 218.634C848.66 218.634 847.83 218.849 847.108 219.28C846.399 219.698 845.765 220.319 845.208 221.142V218.995C846.158 217.982 847.311 217.177 848.666 216.582C850.021 215.987 851.377 215.689 852.732 215.689C854.619 215.689 856.013 216.221 856.912 217.285C857.811 218.349 858.261 220.015 858.261 222.282V234.157L860.959 234.841V236H850.395ZM862.669 236V234.841L865.348 234.157V223.669C865.348 221.845 865.095 220.559 864.588 219.812C864.081 219.052 863.207 218.672 861.966 218.672C861.029 218.672 860.186 218.881 859.439 219.299C858.704 219.704 858.046 220.325 857.463 221.161V218.995C858.375 217.969 859.515 217.165 860.883 216.582C862.264 215.987 863.657 215.689 865.063 215.689C866.925 215.689 868.293 216.227 869.167 217.304C870.041 218.368 870.491 220.046 870.516 222.339V234.157L873.214 234.841V236H862.669ZM880.362 236.399C878.893 236.399 877.721 235.994 876.847 235.183C875.973 234.36 875.536 233.264 875.536 231.896C875.536 230.693 875.91 229.654 876.657 228.78C877.417 227.893 878.595 227.146 880.191 226.538C881.787 225.917 883.839 225.404 886.347 224.999V221.978C886.347 220.306 886.17 219.172 885.815 218.577C885.473 217.969 884.821 217.665 883.858 217.665C882.883 217.665 882.11 217.899 881.54 218.368C880.97 218.837 880.685 219.476 880.685 220.287C880.685 220.553 880.704 220.819 880.742 221.085C880.793 221.351 880.818 221.611 880.818 221.864C880.818 222.561 880.584 223.137 880.115 223.593C879.659 224.049 879.083 224.277 878.386 224.277C877.715 224.277 877.17 224.062 876.752 223.631C876.347 223.188 876.144 222.618 876.144 221.921C876.144 221.123 876.435 220.319 877.018 219.508C877.601 218.697 878.399 217.982 879.412 217.361C881.261 216.246 883.415 215.689 885.872 215.689C887.139 215.689 888.177 215.854 888.988 216.183C889.799 216.512 890.4 216.987 890.793 217.608C891.059 218.064 891.249 218.653 891.363 219.375C891.477 220.084 891.534 221.161 891.534 222.605V230.604C891.534 231.757 891.635 232.574 891.838 233.055C892.053 233.536 892.421 233.777 892.94 233.777C893.523 233.777 894.099 233.46 894.669 232.827L895.467 233.853C894.72 234.727 893.941 235.373 893.13 235.791C892.332 236.196 891.433 236.399 890.432 236.399C889.267 236.399 888.38 236.146 887.772 235.639C887.164 235.12 886.765 234.334 886.575 233.283H886.423C885.562 234.309 884.618 235.088 883.592 235.62C882.579 236.139 881.502 236.399 880.362 236.399ZM883.307 233.207C883.915 233.207 884.479 233.08 884.998 232.827C885.53 232.574 885.98 232.206 886.347 231.725V226.576C884.979 226.842 883.902 227.146 883.117 227.488C882.332 227.817 881.781 228.229 881.464 228.723C881.147 229.204 880.989 229.819 880.989 230.566C880.989 231.44 881.179 232.099 881.559 232.542C881.939 232.985 882.522 233.207 883.307 233.207ZM906.355 236.399C904.493 236.399 902.84 235.968 901.396 235.107C899.965 234.246 898.837 233.061 898.014 231.554C897.203 230.034 896.798 228.299 896.798 226.348C896.798 224.283 897.248 222.453 898.147 220.857C899.046 219.248 900.288 217.988 901.871 217.076C903.454 216.151 905.266 215.689 907.305 215.689C908.724 215.689 909.997 215.917 911.124 216.373C912.251 216.829 913.144 217.443 913.803 218.216C914.462 218.976 914.791 219.831 914.791 220.781C914.791 221.528 914.582 222.117 914.164 222.548C913.746 222.979 913.176 223.194 912.454 223.194C911.605 223.194 911.016 222.947 910.687 222.453C910.37 221.959 910.174 221.389 910.098 220.743C909.959 219.679 909.718 218.862 909.376 218.292C909.034 217.722 908.401 217.437 907.476 217.437C905.867 217.437 904.62 218.127 903.733 219.508C902.846 220.889 902.403 222.795 902.403 225.227C902.403 227.684 902.878 229.559 903.828 230.851C904.778 232.143 906.159 232.789 907.97 232.789C909.186 232.789 910.269 232.561 911.219 232.105C912.182 231.649 913.062 230.927 913.86 229.939L914.81 230.642C914.063 232.555 912.986 233.992 911.58 234.955C910.174 235.918 908.432 236.399 906.355 236.399ZM906.336 245.652C905.639 245.652 904.981 245.57 904.36 245.405C903.739 245.253 903.245 245.038 902.878 244.759L903.524 243.22C903.891 243.435 904.24 243.587 904.569 243.676C904.898 243.765 905.234 243.809 905.576 243.809C906.209 243.809 906.716 243.651 907.096 243.334C907.476 243.017 907.666 242.65 907.666 242.232C907.666 241.852 907.527 241.542 907.248 241.301C906.969 241.073 906.596 240.959 906.127 240.959C905.874 240.959 905.576 240.984 905.234 241.035C904.905 241.086 904.607 241.162 904.341 241.263L903.866 240.921L906.127 235.373H908.065L906.963 238.185C908.306 238.185 909.357 238.533 910.117 239.23C910.89 239.939 911.276 240.826 911.276 241.89C911.276 242.967 910.833 243.86 909.946 244.569C909.059 245.291 907.856 245.652 906.336 245.652ZM922.444 236.399C920.975 236.399 919.803 235.994 918.929 235.183C918.055 234.36 917.618 233.264 917.618 231.896C917.618 230.693 917.992 229.654 918.739 228.78C919.499 227.893 920.677 227.146 922.273 226.538C923.869 225.917 925.921 225.404 928.429 224.999V221.978C928.429 220.306 928.252 219.172 927.897 218.577C927.555 217.969 926.903 217.665 925.94 217.665C924.965 217.665 924.192 217.899 923.622 218.368C923.052 218.837 922.767 219.476 922.767 220.287C922.767 220.553 922.786 220.819 922.824 221.085C922.875 221.351 922.9 221.611 922.9 221.864C922.9 222.561 922.666 223.137 922.197 223.593C921.741 224.049 921.165 224.277 920.468 224.277C919.797 224.277 919.252 224.062 918.834 223.631C918.429 223.188 918.226 222.618 918.226 221.921C918.226 221.123 918.517 220.319 919.1 219.508C919.683 218.697 920.481 217.982 921.494 217.361C923.343 216.246 925.497 215.689 927.954 215.689C929.221 215.689 930.259 215.854 931.07 216.183C931.881 216.512 932.482 216.987 932.875 217.608C933.141 218.064 933.331 218.653 933.445 219.375C933.559 220.084 933.616 221.161 933.616 222.605V230.604C933.616 231.757 933.717 232.574 933.92 233.055C934.135 233.536 934.503 233.777 935.022 233.777C935.605 233.777 936.181 233.46 936.751 232.827L937.549 233.853C936.802 234.727 936.023 235.373 935.212 235.791C934.414 236.196 933.515 236.399 932.514 236.399C931.349 236.399 930.462 236.146 929.854 235.639C929.246 235.12 928.847 234.334 928.657 233.283H928.505C927.644 234.309 926.7 235.088 925.674 235.62C924.661 236.139 923.584 236.399 922.444 236.399ZM925.389 233.207C925.997 233.207 926.561 233.08 927.08 232.827C927.612 232.574 928.062 232.206 928.429 231.725V226.576C927.061 226.842 925.984 227.146 925.199 227.488C924.414 227.817 923.863 228.229 923.546 228.723C923.229 229.204 923.071 229.819 923.071 230.566C923.071 231.44 923.261 232.099 923.641 232.542C924.021 232.985 924.604 233.207 925.389 233.207ZM929.512 210.901C928.841 210.901 928.245 210.781 927.726 210.54C927.219 210.287 926.719 210.04 926.225 209.799C925.744 209.546 925.193 209.419 924.572 209.419C923.939 209.419 923.432 209.552 923.052 209.818C922.672 210.071 922.444 210.413 922.368 210.844H921.095C921.095 209.223 921.443 207.969 922.14 207.082C922.849 206.183 923.749 205.733 924.838 205.733C925.471 205.733 926.048 205.847 926.567 206.075C927.086 206.29 927.593 206.512 928.087 206.74C928.594 206.968 929.132 207.082 929.702 207.082C930.905 207.082 931.621 206.601 931.849 205.638H933.141C933.141 207.247 932.831 208.526 932.21 209.476C931.589 210.426 930.69 210.901 929.512 210.901ZM949.349 236.399C947.17 236.399 945.296 235.937 943.725 235.012C942.154 234.087 940.951 232.84 940.115 231.269C939.279 229.698 938.861 227.957 938.861 226.044C938.861 224.119 939.279 222.377 940.115 220.819C940.951 219.248 942.154 218.001 943.725 217.076C945.296 216.151 947.17 215.689 949.349 215.689C951.528 215.689 953.396 216.151 954.954 217.076C956.525 218.001 957.728 219.248 958.564 220.819C959.413 222.377 959.837 224.119 959.837 226.044C959.837 227.957 959.413 229.698 958.564 231.269C957.728 232.84 956.525 234.087 954.954 235.012C953.396 235.937 951.528 236.399 949.349 236.399ZM949.349 234.518C950.261 234.518 951.027 234.271 951.648 233.777C952.269 233.283 952.763 232.624 953.13 231.801C953.497 230.965 953.763 230.047 953.928 229.046C954.093 228.045 954.175 227.038 954.175 226.025C954.175 225.024 954.093 224.024 953.928 223.023C953.776 222.022 953.516 221.11 953.149 220.287C952.782 219.464 952.288 218.805 951.667 218.311C951.046 217.817 950.274 217.57 949.349 217.57C948.424 217.57 947.652 217.817 947.031 218.311C946.41 218.805 945.916 219.464 945.549 220.287C945.182 221.11 944.916 222.029 944.751 223.042C944.599 224.043 944.523 225.043 944.523 226.044C944.523 227.057 944.599 228.064 944.751 229.065C944.916 230.053 945.182 230.965 945.549 231.801C945.916 232.624 946.41 233.283 947.031 233.777C947.652 234.271 948.424 234.518 949.349 234.518ZM682.951 292.785C681.165 292.785 679.728 292.449 678.638 291.778C677.549 291.119 677.004 290.245 677.004 289.156C677.004 288.447 677.22 287.883 677.65 287.465C678.081 287.06 678.657 286.857 679.379 286.857C679.962 286.857 680.431 286.99 680.785 287.256C681.14 287.522 681.463 287.978 681.754 288.624C682.147 289.473 682.508 290.055 682.837 290.372C683.167 290.701 683.578 290.866 684.072 290.866C685.035 290.866 685.751 290.366 686.219 289.365C686.688 288.377 686.922 286.851 686.922 284.786V266.299L683.844 265.292V264.494L691.444 262.689H692.09V279.485C692.09 280.739 692.065 281.816 692.014 282.715C691.976 283.602 691.9 284.368 691.786 285.014C691.672 285.673 691.52 286.262 691.33 286.781C691.14 287.3 690.893 287.82 690.589 288.339C689.741 289.846 688.689 290.961 687.435 291.683C686.194 292.418 684.699 292.785 682.951 292.785ZM689.468 259.478C688.506 259.478 687.758 259.187 687.226 258.604C686.707 258.009 686.447 257.337 686.447 256.59C686.447 255.805 686.72 255.121 687.264 254.538C687.809 253.955 688.544 253.664 689.468 253.664C690.406 253.664 691.153 253.955 691.71 254.538C692.268 255.121 692.546 255.805 692.546 256.59C692.546 257.337 692.28 258.009 691.748 258.604C691.216 259.187 690.456 259.478 689.468 259.478ZM701.514 283.399C700.045 283.399 698.873 282.994 697.999 282.183C697.125 281.36 696.688 280.264 696.688 278.896C696.688 277.693 697.062 276.654 697.809 275.78C698.569 274.893 699.747 274.146 701.343 273.538C702.939 272.917 704.991 272.404 707.499 271.999V268.978C707.499 267.306 707.322 266.172 706.967 265.577C706.625 264.969 705.973 264.665 705.01 264.665C704.035 264.665 703.262 264.899 702.692 265.368C702.122 265.837 701.837 266.476 701.837 267.287C701.837 267.553 701.856 267.819 701.894 268.085C701.945 268.351 701.97 268.611 701.97 268.864C701.97 269.561 701.736 270.137 701.267 270.593C700.811 271.049 700.235 271.277 699.538 271.277C698.867 271.277 698.322 271.062 697.904 270.631C697.499 270.188 697.296 269.618 697.296 268.921C697.296 268.123 697.588 267.319 698.17 266.508C698.753 265.697 699.551 264.982 700.564 264.361C702.414 263.246 704.567 262.689 707.024 262.689C708.291 262.689 709.33 262.854 710.14 263.183C710.951 263.512 711.553 263.987 711.945 264.608C712.211 265.064 712.401 265.653 712.515 266.375C712.629 267.084 712.686 268.161 712.686 269.605V277.604C712.686 278.757 712.788 279.574 712.99 280.055C713.206 280.536 713.573 280.777 714.092 280.777C714.675 280.777 715.251 280.46 715.821 279.827L716.619 280.853C715.872 281.727 715.093 282.373 714.282 282.791C713.484 283.196 712.585 283.399 711.584 283.399C710.419 283.399 709.532 283.146 708.924 282.639C708.316 282.12 707.917 281.334 707.727 280.283H707.575C706.714 281.309 705.77 282.088 704.744 282.62C703.731 283.139 702.654 283.399 701.514 283.399ZM704.459 280.207C705.067 280.207 705.631 280.08 706.15 279.827C706.682 279.574 707.132 279.206 707.499 278.725V273.576C706.131 273.842 705.055 274.146 704.269 274.488C703.484 274.817 702.933 275.229 702.616 275.723C702.3 276.204 702.141 276.819 702.141 277.566C702.141 278.44 702.331 279.099 702.711 279.542C703.091 279.985 703.674 280.207 704.459 280.207ZM725.553 283.399L718.029 265.843C717.775 265.248 717.478 264.849 717.136 264.646C716.806 264.431 716.148 264.291 715.16 264.228V263.069H726.864V264.228C725.774 264.291 725.027 264.412 724.622 264.589C724.229 264.766 724.033 265.026 724.033 265.368C724.033 265.609 724.102 265.9 724.242 266.242L728.46 277.072H728.612L732.412 267.078C732.652 266.432 732.773 265.944 732.773 265.615C732.773 265.222 732.583 264.931 732.203 264.741C731.835 264.551 731.126 264.38 730.075 264.228V263.069H738.587V264.228C737.624 264.367 736.889 264.532 736.383 264.722C735.876 264.912 735.483 265.191 735.205 265.558C734.939 265.925 734.673 266.445 734.407 267.116L728.137 283.399H725.553ZM743.448 283.399C741.979 283.399 740.807 282.994 739.933 282.183C739.059 281.36 738.622 280.264 738.622 278.896C738.622 277.693 738.996 276.654 739.743 275.78C740.503 274.893 741.681 274.146 743.277 273.538C744.873 272.917 746.925 272.404 749.433 271.999V268.978C749.433 267.306 749.256 266.172 748.901 265.577C748.559 264.969 747.907 264.665 746.944 264.665C745.969 264.665 745.196 264.899 744.626 265.368C744.056 265.837 743.771 266.476 743.771 267.287C743.771 267.553 743.79 267.819 743.828 268.085C743.879 268.351 743.904 268.611 743.904 268.864C743.904 269.561 743.67 270.137 743.201 270.593C742.745 271.049 742.169 271.277 741.472 271.277C740.801 271.277 740.256 271.062 739.838 270.631C739.433 270.188 739.23 269.618 739.23 268.921C739.23 268.123 739.521 267.319 740.104 266.508C740.687 265.697 741.485 264.982 742.498 264.361C744.347 263.246 746.501 262.689 748.958 262.689C750.225 262.689 751.263 262.854 752.074 263.183C752.885 263.512 753.486 263.987 753.879 264.608C754.145 265.064 754.335 265.653 754.449 266.375C754.563 267.084 754.62 268.161 754.62 269.605V277.604C754.62 278.757 754.721 279.574 754.924 280.055C755.139 280.536 755.507 280.777 756.026 280.777C756.609 280.777 757.185 280.46 757.755 279.827L758.553 280.853C757.806 281.727 757.027 282.373 756.216 282.791C755.418 283.196 754.519 283.399 753.518 283.399C752.353 283.399 751.466 283.146 750.858 282.639C750.25 282.12 749.851 281.334 749.661 280.283H749.509C748.648 281.309 747.704 282.088 746.678 282.62C745.665 283.139 744.588 283.399 743.448 283.399ZM746.393 280.207C747.001 280.207 747.565 280.08 748.084 279.827C748.616 279.574 749.066 279.206 749.433 278.725V273.576C748.065 273.842 746.988 274.146 746.203 274.488C745.418 274.817 744.867 275.229 744.55 275.723C744.233 276.204 744.075 276.819 744.075 277.566C744.075 278.44 744.265 279.099 744.645 279.542C745.025 279.985 745.608 280.207 746.393 280.207ZM766.287 283.399C765.375 283.399 764.393 283.323 763.342 283.171C762.303 283.019 761.404 282.823 760.644 282.582L760.397 276.464H761.803C761.93 278.174 762.373 279.479 763.133 280.378C763.893 281.277 764.944 281.727 766.287 281.727C767.3 281.727 768.111 281.461 768.719 280.929C769.34 280.384 769.65 279.675 769.65 278.801C769.65 278.104 769.416 277.49 768.947 276.958C768.478 276.413 767.687 275.85 766.572 275.267L764.824 274.393C763.291 273.595 762.17 272.727 761.461 271.79C760.764 270.853 760.416 269.725 760.416 268.408C760.416 266.546 761.087 265.127 762.43 264.152C763.773 263.177 765.736 262.689 768.32 262.689C769.257 262.689 770.163 262.752 771.037 262.879C771.911 262.993 772.608 263.151 773.127 263.354V268.56H771.873C771.506 265.761 770.188 264.361 767.921 264.361C767.022 264.361 766.3 264.589 765.755 265.045C765.21 265.488 764.938 266.084 764.938 266.831C764.938 267.49 765.179 268.072 765.66 268.579C766.141 269.086 766.971 269.624 768.149 270.194L769.935 271.087C771.366 271.809 772.411 272.645 773.07 273.595C773.741 274.532 774.077 275.685 774.077 277.053C774.077 279.029 773.387 280.581 772.006 281.708C770.638 282.835 768.732 283.399 766.287 283.399ZM786.697 283.399C784.835 283.399 783.182 282.968 781.738 282.107C780.306 281.246 779.179 280.061 778.356 278.554C777.545 277.034 777.14 275.299 777.14 273.348C777.14 271.283 777.589 269.453 778.489 267.857C779.388 266.248 780.629 264.988 782.213 264.076C783.796 263.151 785.607 262.689 787.647 262.689C789.065 262.689 790.338 262.917 791.466 263.373C792.593 263.829 793.486 264.443 794.145 265.216C794.803 265.976 795.133 266.831 795.133 267.781C795.133 268.528 794.924 269.117 794.506 269.548C794.088 269.979 793.518 270.194 792.796 270.194C791.947 270.194 791.358 269.947 791.029 269.453C790.712 268.959 790.516 268.389 790.44 267.743C790.3 266.679 790.06 265.862 789.718 265.292C789.376 264.722 788.742 264.437 787.818 264.437C786.209 264.437 784.961 265.127 784.075 266.508C783.188 267.889 782.745 269.795 782.745 272.227C782.745 274.684 783.22 276.559 784.17 277.851C785.12 279.143 786.5 279.789 788.312 279.789C789.528 279.789 790.611 279.561 791.561 279.105C792.523 278.649 793.404 277.927 794.202 276.939L795.152 277.642C794.404 279.555 793.328 280.992 791.922 281.955C790.516 282.918 788.774 283.399 786.697 283.399ZM797.393 283V281.841L800.224 281.138V266.337L797.393 265.273V264.494L804.537 262.689H805.221V266.337L805.373 266.527V281.138L809.971 281.841V283H797.393ZM805.012 268.75V266.527C806 265.273 806.975 264.317 807.938 263.658C808.9 262.987 809.825 262.651 810.712 262.651C811.573 262.651 812.289 262.911 812.859 263.43C813.429 263.937 813.714 264.564 813.714 265.311C813.714 266.02 813.492 266.622 813.049 267.116C812.618 267.597 812.08 267.838 811.434 267.838C810.788 267.838 810.211 267.604 809.705 267.135C809.375 266.818 809.084 266.597 808.831 266.47C808.577 266.331 808.311 266.261 808.033 266.261C807.615 266.261 807.108 266.502 806.513 266.983C805.917 267.464 805.417 268.053 805.012 268.75ZM815.017 283V281.841L818.133 281.138V266.299L815.036 265.292V264.494L822.636 262.689H823.32V281.138L826.265 281.841V283H815.017ZM820.66 259.478C819.71 259.478 818.975 259.18 818.456 258.585C817.937 257.99 817.677 257.331 817.677 256.609C817.677 255.824 817.943 255.14 818.475 254.557C819.007 253.962 819.735 253.664 820.66 253.664C821.61 253.664 822.364 253.962 822.921 254.557C823.478 255.14 823.757 255.824 823.757 256.609C823.757 257.331 823.491 257.99 822.959 258.585C822.427 259.18 821.661 259.478 820.66 259.478ZM827.457 292.405V291.569L830.573 290.695V266.299L827.533 265.292V264.494L834.753 262.689H835.475V265.634H835.665C836.374 264.684 837.286 263.956 838.401 263.449C839.528 262.942 840.693 262.689 841.897 262.689C843.518 262.689 844.949 263.113 846.191 263.962C847.445 264.811 848.42 265.982 849.117 267.477C849.826 268.972 850.181 270.688 850.181 272.626C850.181 274.767 849.731 276.648 848.832 278.269C847.932 279.89 846.672 281.151 845.051 282.05C843.429 282.949 841.529 283.399 839.351 283.399C838.692 283.399 838.071 283.348 837.489 283.247C836.919 283.146 836.349 283 835.779 282.81V290.695L840.396 291.569V292.405H827.457ZM839.446 281.613C840.472 281.613 841.365 281.258 842.125 280.549C842.885 279.84 843.474 278.858 843.892 277.604C844.322 276.35 844.538 274.9 844.538 273.253C844.538 270.859 844.101 268.972 843.227 267.591C842.353 266.198 841.168 265.501 839.674 265.501C838.901 265.501 838.141 265.71 837.394 266.128C836.646 266.533 836.121 267.059 835.817 267.705V277.604C835.817 278.731 836.171 279.681 836.881 280.454C837.59 281.227 838.445 281.613 839.446 281.613ZM860.302 283.399C858.529 283.399 857.243 282.987 856.445 282.164C855.66 281.328 855.267 280.036 855.267 278.288V264.798H852.664L852.474 263.791L859.428 258.053L860.454 258.205V263.069H866.135L865.66 264.798H860.454V277.908C860.454 279.935 861.227 280.948 862.772 280.948C863.228 280.948 863.671 280.853 864.102 280.663C864.533 280.473 864.919 280.169 865.261 279.751L866.059 280.758C865.426 281.607 864.602 282.259 863.589 282.715C862.576 283.171 861.48 283.399 860.302 283.399ZM876.627 292.405V291.569L879.743 290.695V266.299L876.703 265.292V264.494L883.923 262.689H884.645V265.634H884.835C885.544 264.684 886.456 263.956 887.571 263.449C888.698 262.942 889.863 262.689 891.067 262.689C892.688 262.689 894.119 263.113 895.361 263.962C896.615 264.811 897.59 265.982 898.287 267.477C898.996 268.972 899.351 270.688 899.351 272.626C899.351 274.767 898.901 276.648 898.002 278.269C897.102 279.89 895.842 281.151 894.221 282.05C892.599 282.949 890.699 283.399 888.521 283.399C887.862 283.399 887.241 283.348 886.659 283.247C886.089 283.146 885.519 283 884.949 282.81V290.695L889.566 291.569V292.405H876.627ZM888.616 281.613C889.642 281.613 890.535 281.258 891.295 280.549C892.055 279.84 892.644 278.858 893.062 277.604C893.492 276.35 893.708 274.9 893.708 273.253C893.708 270.859 893.271 268.972 892.397 267.591C891.523 266.198 890.338 265.501 888.844 265.501C888.071 265.501 887.311 265.71 886.564 266.128C885.816 266.533 885.291 267.059 884.987 267.705V277.604C884.987 278.731 885.341 279.681 886.051 280.454C886.76 281.227 887.615 281.613 888.616 281.613ZM907.249 283.399C905.779 283.399 904.608 282.994 903.734 282.183C902.86 281.36 902.423 280.264 902.423 278.896C902.423 277.693 902.796 276.654 903.544 275.78C904.304 274.893 905.482 274.146 907.078 273.538C908.674 272.917 910.726 272.404 913.234 271.999V268.978C913.234 267.306 913.056 266.172 912.702 265.577C912.36 264.969 911.707 264.665 910.745 264.665C909.769 264.665 908.997 264.899 908.427 265.368C907.857 265.837 907.572 266.476 907.572 267.287C907.572 267.553 907.591 267.819 907.629 268.085C907.679 268.351 907.705 268.611 907.705 268.864C907.705 269.561 907.47 270.137 907.002 270.593C906.546 271.049 905.969 271.277 905.273 271.277C904.601 271.277 904.057 271.062 903.639 270.631C903.233 270.188 903.031 269.618 903.031 268.921C903.031 268.123 903.322 267.319 903.905 266.508C904.487 265.697 905.285 264.982 906.299 264.361C908.148 263.246 910.301 262.689 912.759 262.689C914.025 262.689 915.064 262.854 915.875 263.183C916.685 263.512 917.287 263.987 917.68 264.608C917.946 265.064 918.136 265.653 918.25 266.375C918.364 267.084 918.421 268.161 918.421 269.605V277.604C918.421 278.757 918.522 279.574 918.725 280.055C918.94 280.536 919.307 280.777 919.827 280.777C920.409 280.777 920.986 280.46 921.556 279.827L922.354 280.853C921.606 281.727 920.827 282.373 920.017 282.791C919.219 283.196 918.319 283.399 917.319 283.399C916.153 283.399 915.267 283.146 914.659 282.639C914.051 282.12 913.652 281.334 913.462 280.283H913.31C912.448 281.309 911.505 282.088 910.479 282.62C909.465 283.139 908.389 283.399 907.249 283.399ZM910.194 280.207C910.802 280.207 911.365 280.08 911.885 279.827C912.417 279.574 912.866 279.206 913.234 278.725V273.576C911.866 273.842 910.789 274.146 910.004 274.488C909.218 274.817 908.667 275.229 908.351 275.723C908.034 276.204 907.876 276.819 907.876 277.566C907.876 278.44 908.066 279.099 908.446 279.542C908.826 279.985 909.408 280.207 910.194 280.207ZM923.305 283V281.841L926.136 281.138V266.337L923.305 265.273V264.494L930.449 262.689H931.133V266.337L931.285 266.527V281.138L935.883 281.841V283H923.305ZM930.924 268.75V266.527C931.912 265.273 932.887 264.317 933.85 263.658C934.812 262.987 935.737 262.651 936.624 262.651C937.485 262.651 938.201 262.911 938.771 263.43C939.341 263.937 939.626 264.564 939.626 265.311C939.626 266.02 939.404 266.622 938.961 267.116C938.53 267.597 937.992 267.838 937.346 267.838C936.7 267.838 936.123 267.604 935.617 267.135C935.287 266.818 934.996 266.597 934.743 266.47C934.489 266.331 934.223 266.261 933.945 266.261C933.527 266.261 933.02 266.502 932.425 266.983C931.829 267.464 931.329 268.053 930.924 268.75ZM946.028 283.399C944.559 283.399 943.387 282.994 942.513 282.183C941.639 281.36 941.202 280.264 941.202 278.896C941.202 277.693 941.576 276.654 942.323 275.78C943.083 274.893 944.261 274.146 945.857 273.538C947.453 272.917 949.505 272.404 952.013 271.999V268.978C952.013 267.306 951.836 266.172 951.481 265.577C951.139 264.969 950.487 264.665 949.524 264.665C948.549 264.665 947.776 264.899 947.206 265.368C946.636 265.837 946.351 266.476 946.351 267.287C946.351 267.553 946.37 267.819 946.408 268.085C946.459 268.351 946.484 268.611 946.484 268.864C946.484 269.561 946.25 270.137 945.781 270.593C945.325 271.049 944.749 271.277 944.052 271.277C943.381 271.277 942.836 271.062 942.418 270.631C942.013 270.188 941.81 269.618 941.81 268.921C941.81 268.123 942.101 267.319 942.684 266.508C943.267 265.697 944.065 264.982 945.078 264.361C946.927 263.246 949.081 262.689 951.538 262.689C952.805 262.689 953.843 262.854 954.654 263.183C955.465 263.512 956.066 263.987 956.459 264.608C956.725 265.064 956.915 265.653 957.029 266.375C957.143 267.084 957.2 268.161 957.2 269.605V277.604C957.2 278.757 957.301 279.574 957.504 280.055C957.719 280.536 958.087 280.777 958.606 280.777C959.189 280.777 959.765 280.46 960.335 279.827L961.133 280.853C960.386 281.727 959.607 282.373 958.796 282.791C957.998 283.196 957.099 283.399 956.098 283.399C954.933 283.399 954.046 283.146 953.438 282.639C952.83 282.12 952.431 281.334 952.241 280.283H952.089C951.228 281.309 950.284 282.088 949.258 282.62C948.245 283.139 947.168 283.399 946.028 283.399ZM948.973 280.207C949.581 280.207 950.145 280.08 950.664 279.827C951.196 279.574 951.646 279.206 952.013 278.725V273.576C950.645 273.842 949.568 274.146 948.783 274.488C947.998 274.817 947.447 275.229 947.13 275.723C946.813 276.204 946.655 276.819 946.655 277.566C946.655 278.44 946.845 279.099 947.225 279.542C947.605 279.985 948.188 280.207 948.973 280.207Z" fill="white"/>
<path d="M407.283 369V364.875L416.688 362.785V291.23L407.283 289.195V285.235H437.038C443.345 285.235 448.863 285.492 453.593 286.005C458.36 286.482 462.54 287.307 466.133 288.48C469.763 289.617 473.045 291.175 475.978 293.155C481.295 296.638 485.53 301.295 488.683 307.125C491.836 312.955 493.413 319.592 493.413 327.035C493.413 334.625 491.745 341.573 488.408 347.88C485.071 354.187 480.653 359.082 475.153 362.565C471.523 364.875 467.563 366.525 463.273 367.515C459.02 368.505 453.813 369 447.653 369H407.283ZM446.443 363.115C450.696 363.115 454.381 362.528 457.498 361.355C460.651 360.145 463.291 358.293 465.418 355.8C467.838 352.94 469.616 349.127 470.753 344.36C471.926 339.557 472.513 333.782 472.513 327.035C472.513 320.362 471.926 314.77 470.753 310.26C469.616 305.75 467.838 302.028 465.418 299.095C463.255 296.418 460.486 294.438 457.113 293.155C453.74 291.872 449.761 291.23 445.178 291.23H435.388V356.57C435.388 358.843 436.231 360.512 437.918 361.575C439.605 362.602 442.446 363.115 446.443 363.115ZM532.259 370.155C526.245 370.155 520.984 368.945 516.474 366.525C512 364.068 508.517 360.658 506.024 356.295C503.567 351.895 502.339 346.817 502.339 341.06C502.339 334.937 503.714 329.565 506.464 324.945C509.214 320.325 513.027 316.713 517.904 314.11C522.817 311.507 528.5 310.205 534.954 310.205C543.277 310.205 549.602 312.46 553.929 316.97C558.292 321.443 560.602 328.043 560.859 336.77L560.034 337.485H512.514V332.535L542.819 331.435C543.112 330.665 543.259 329.29 543.259 327.31C543.259 319.61 540.032 315.76 533.579 315.76C529.362 315.76 526.117 317.593 523.844 321.26C521.607 324.927 520.489 330.133 520.489 336.88C520.489 351.547 526.154 358.88 537.484 358.88C545.33 358.88 551.509 356.203 556.019 350.85L559.044 353.435C557.1 358.715 553.764 362.822 549.034 365.755C544.34 368.688 538.749 370.155 532.259 370.155ZM587.221 370.155C584.434 370.155 581.482 369.935 578.366 369.495C575.249 369.092 572.572 368.523 570.336 367.79L569.621 350.08H574.296C574.626 354.81 575.854 358.44 577.981 360.97C580.144 363.463 583.114 364.71 586.891 364.71C589.714 364.71 591.969 363.995 593.656 362.565C595.342 361.098 596.186 359.192 596.186 356.845C596.186 355.012 595.526 353.38 594.206 351.95C592.922 350.483 590.722 348.925 587.606 347.275L582.326 344.58C577.999 342.307 574.809 339.777 572.756 336.99C570.739 334.203 569.731 330.885 569.731 327.035C569.731 321.498 571.747 317.318 575.781 314.495C579.851 311.635 585.827 310.205 593.711 310.205C596.497 310.205 599.174 310.388 601.741 310.755C604.344 311.085 606.434 311.543 608.011 312.13V327.2H603.831C602.767 319.5 599.137 315.65 592.941 315.65C590.447 315.65 588.431 316.255 586.891 317.465C585.387 318.675 584.636 320.252 584.636 322.195C584.636 323.918 585.314 325.477 586.671 326.87C588.027 328.227 590.374 329.712 593.711 331.325L598.936 334.02C603.006 336.11 606.012 338.567 607.956 341.39C609.899 344.177 610.871 347.55 610.871 351.51C610.871 357.377 608.799 361.96 604.656 365.26C600.512 368.523 594.701 370.155 587.221 370.155ZM617.786 369V365.15L627.081 363.005V320.985L617.786 318.015V315.43L641.656 310.205H643.966V363.005L652.656 365.15V369H617.786ZM635.331 302.065C632.325 302.065 630.015 301.13 628.401 299.26C626.788 297.39 625.981 295.355 625.981 293.155C625.981 290.772 626.806 288.663 628.456 286.83C630.143 284.997 632.435 284.08 635.331 284.08C638.301 284.08 640.648 284.997 642.371 286.83C644.131 288.663 645.011 290.772 645.011 293.155C645.011 295.355 644.186 297.39 642.536 299.26C640.923 301.13 638.521 302.065 635.331 302.065ZM698.575 314.275C699.308 312.258 700.243 310.242 701.38 308.225C702.553 306.208 703.983 304.522 705.67 303.165C707.393 301.808 709.447 301.13 711.83 301.13C714.067 301.13 715.918 301.717 717.385 302.89C718.888 304.027 719.64 305.585 719.64 307.565C719.64 309.142 719.108 310.59 718.045 311.91C717.018 313.23 715.533 313.89 713.59 313.89C712.38 313.89 711.427 313.652 710.73 313.175C710.033 312.698 709.392 312.222 708.805 311.745C708.218 311.268 707.448 311.03 706.495 311.03C705.138 311.03 704.185 311.598 703.635 312.735C703.085 313.872 702.663 315.192 702.37 316.695L698.575 314.275ZM684.99 346.12C687.043 346.12 688.62 345.277 689.72 343.59C690.857 341.867 691.645 339.777 692.085 337.32C692.562 334.827 692.8 332.407 692.8 330.06C692.8 328.593 692.708 326.998 692.525 325.275C692.342 323.552 691.975 321.902 691.425 320.325C690.912 318.748 690.178 317.465 689.225 316.475C688.272 315.448 687.025 314.935 685.485 314.935C683.908 314.935 682.607 315.485 681.58 316.585C680.553 317.685 679.747 319.097 679.16 320.82C678.573 322.543 678.152 324.358 677.895 326.265C677.675 328.135 677.565 329.84 677.565 331.38C677.565 333.323 677.767 335.45 678.17 337.76C678.573 340.07 679.307 342.05 680.37 343.7C681.433 345.313 682.973 346.12 684.99 346.12ZM684.935 351.015C680.718 351.015 677.877 351.418 676.41 352.225C674.943 352.995 674.21 353.967 674.21 355.14C674.21 356.497 675.163 357.56 677.07 358.33C678.977 359.1 682.625 359.962 688.015 360.915L695.935 362.29C702.498 363.39 707.338 365.223 710.455 367.79C713.572 370.32 715.13 373.693 715.13 377.91C715.13 381.65 714.122 384.785 712.105 387.315C710.088 389.882 707.393 391.935 704.02 393.475C700.683 395.015 696.962 396.115 692.855 396.775C688.748 397.472 684.605 397.82 680.425 397.82C677.235 397.82 674.082 397.563 670.965 397.05C667.848 396.537 665.007 395.73 662.44 394.63C659.91 393.53 657.875 392.063 656.335 390.23C654.832 388.433 654.08 386.252 654.08 383.685C654.08 380.862 655.217 378.277 657.49 375.93C659.8 373.62 663.65 371.42 669.04 369.33L673.66 371.2C671.753 372.447 670.268 374.042 669.205 375.985C668.178 377.965 667.665 380 667.665 382.09C667.665 384.437 668.417 386.362 669.92 387.865C671.423 389.368 673.385 390.468 675.805 391.165C678.225 391.898 680.792 392.265 683.505 392.265C686.328 392.265 689.225 391.972 692.195 391.385C695.165 390.798 697.658 389.882 699.675 388.635C701.728 387.388 702.755 385.757 702.755 383.74C702.755 382.457 702.315 381.32 701.435 380.33C700.555 379.34 698.997 378.423 696.76 377.58C694.523 376.773 691.388 376.003 687.355 375.27L678.335 373.565C671.808 372.318 667.225 370.65 664.585 368.56C661.945 366.47 660.625 363.922 660.625 360.915C660.625 358.862 661.248 356.973 662.495 355.25C663.742 353.527 665.612 352.078 668.105 350.905C670.635 349.695 673.788 348.888 677.565 348.485L684.935 351.015ZM684.935 351.015C680.645 351.015 676.612 350.208 672.835 348.595C669.095 346.945 666.07 344.598 663.76 341.555C661.45 338.475 660.295 334.79 660.295 330.5C660.295 326.613 661.358 323.148 663.485 320.105C665.648 317.025 668.582 314.605 672.285 312.845C676.025 311.085 680.223 310.205 684.88 310.205C689.353 310.205 693.497 311.048 697.31 312.735C701.123 314.422 704.185 316.768 706.495 319.775C708.842 322.782 710.015 326.283 710.015 330.28C710.015 333.653 708.97 336.935 706.88 340.125C704.79 343.315 701.857 345.937 698.08 347.99C694.34 350.007 689.958 351.015 684.935 351.015ZM758.704 369V365.15L766.349 363.005V333.195C766.349 328.722 765.451 325.422 763.654 323.295C761.857 321.132 759.162 320.05 755.569 320.05C751.022 320.05 747.392 321.993 744.679 325.88V319.005C747.282 316.365 750.344 314.238 753.864 312.625C757.421 311.012 761.381 310.205 765.744 310.205C777.404 310.205 783.234 316.585 783.234 329.345V363.005L791.429 365.15V369H758.704ZM720.974 369V365.15L729.169 363.005V321.095L720.864 318.015V315.54L743.084 310.205H745.504V319.5L745.944 320.05V363.005L753.644 365.15V369H720.974ZM827.239 370.155C821.226 370.155 815.964 368.945 811.454 366.525C806.981 364.068 803.497 360.658 801.004 356.295C798.547 351.895 797.319 346.817 797.319 341.06C797.319 334.937 798.694 329.565 801.444 324.945C804.194 320.325 808.007 316.713 812.884 314.11C817.797 311.507 823.481 310.205 829.934 310.205C838.257 310.205 844.582 312.46 848.909 316.97C853.272 321.443 855.582 328.043 855.839 336.77L855.014 337.485H807.494V332.535L837.799 331.435C838.092 330.665 838.239 329.29 838.239 327.31C838.239 319.61 835.012 315.76 828.559 315.76C824.342 315.76 821.097 317.593 818.824 321.26C816.587 324.927 815.469 330.133 815.469 336.88C815.469 351.547 821.134 358.88 832.464 358.88C840.311 358.88 846.489 356.203 850.999 350.85L854.024 353.435C852.081 358.715 848.744 362.822 844.014 365.755C839.321 368.688 833.729 370.155 827.239 370.155ZM862.126 369V365.15L870.321 363.005V321.095L862.016 318.015V315.43L884.291 310.205H886.656V320.16L887.096 320.655V363.005L901.396 365.15V369H862.126ZM885.886 328.08L886.051 320.655C888.948 317.245 891.808 314.642 894.631 312.845C897.491 311.012 900.26 310.095 902.936 310.095C905.65 310.095 907.905 310.865 909.701 312.405C911.498 313.945 912.396 315.852 912.396 318.125C912.396 320.325 911.736 322.177 910.416 323.68C909.133 325.147 907.538 325.88 905.631 325.88C903.725 325.88 901.928 325.202 900.241 323.845C899.178 322.928 898.225 322.268 897.381 321.865C896.575 321.425 895.713 321.205 894.796 321.205C893.513 321.205 891.973 321.902 890.176 323.295C888.416 324.652 886.986 326.247 885.886 328.08ZM936.02 370.155C933.233 370.155 930.281 369.935 927.165 369.495C924.048 369.092 921.371 368.523 919.135 367.79L918.42 350.08H923.095C923.425 354.81 924.653 358.44 926.78 360.97C928.943 363.463 931.913 364.71 935.69 364.71C938.513 364.71 940.768 363.995 942.455 362.565C944.141 361.098 944.985 359.192 944.985 356.845C944.985 355.012 944.325 353.38 943.005 351.95C941.721 350.483 939.521 348.925 936.405 347.275L931.125 344.58C926.798 342.307 923.608 339.777 921.555 336.99C919.538 334.203 918.53 330.885 918.53 327.035C918.53 321.498 920.546 317.318 924.58 314.495C928.65 311.635 934.626 310.205 942.51 310.205C945.296 310.205 947.973 310.388 950.54 310.755C953.143 311.085 955.233 311.543 956.81 312.13V327.2H952.63C951.566 319.5 947.936 315.65 941.74 315.65C939.246 315.65 937.23 316.255 935.69 317.465C934.186 318.675 933.435 320.252 933.435 322.195C933.435 323.918 934.113 325.477 935.47 326.87C936.826 328.227 939.173 329.712 942.51 331.325L947.735 334.02C951.805 336.11 954.811 338.567 956.755 341.39C958.698 344.177 959.67 347.55 959.67 351.51C959.67 357.377 957.598 361.96 953.455 365.26C949.311 368.523 943.5 370.155 936.02 370.155Z" fill="white"/>
<path d="M817.105 402V400.92L820.005 400.62H820.305V402H817.105ZM818.585 402C818.612 401.32 818.625 400.64 818.625 399.96C818.639 399.28 818.645 398.593 818.645 397.9C818.645 397.193 818.645 396.493 818.645 395.8V395.06C818.645 394.367 818.645 393.673 818.645 392.98C818.645 392.287 818.639 391.6 818.625 390.92C818.625 390.227 818.612 389.54 818.585 388.86H822.065C822.052 389.527 822.039 390.207 822.025 390.9C822.012 391.58 822.005 392.267 822.005 392.96C822.005 393.653 822.005 394.353 822.005 395.06V395.72C822.005 396.427 822.005 397.133 822.005 397.84C822.005 398.547 822.012 399.247 822.025 399.94C822.039 400.62 822.052 401.307 822.065 402H818.585ZM820.305 402V400.88H826.385L825.685 401.48L826.185 398.56H827.845L827.705 402H820.305ZM820.305 395.8V394.62H824.725V395.8H820.305ZM824.405 397.36L824.105 395.34V394.98L824.405 393.06H825.565V397.36H824.405ZM817.105 389.92V388.86H820.305V390.22H820.005L817.105 389.92ZM825.785 392.3L825.285 389.38L825.985 389.98H820.305V388.86H827.325L827.445 392.3H825.785ZM832.763 402.3C832.016 402.3 831.336 402.107 830.723 401.72C830.123 401.333 829.65 400.767 829.303 400.02C828.956 399.26 828.783 398.34 828.783 397.26C828.783 396.167 828.99 395.233 829.403 394.46C829.83 393.673 830.376 393.073 831.043 392.66C831.723 392.233 832.436 392.02 833.183 392.02C833.636 392.02 834.036 392.087 834.383 392.22C834.743 392.353 835.063 392.553 835.343 392.82C835.623 393.073 835.89 393.393 836.143 393.78H836.663L836.463 395.14C836.076 394.673 835.723 394.32 835.403 394.08C835.083 393.84 834.716 393.72 834.303 393.72C833.903 393.72 833.536 393.847 833.203 394.1C832.883 394.353 832.63 394.74 832.443 395.26C832.256 395.767 832.163 396.42 832.163 397.22C832.163 397.94 832.25 398.553 832.423 399.06C832.596 399.553 832.843 399.927 833.163 400.18C833.483 400.433 833.843 400.56 834.243 400.56C834.723 400.56 835.143 400.407 835.503 400.1C835.863 399.78 836.203 399.373 836.523 398.88L836.743 400.28H836.183C835.89 400.733 835.57 401.113 835.223 401.42C834.89 401.713 834.516 401.933 834.103 402.08C833.703 402.227 833.256 402.3 832.763 402.3ZM835.743 402.22L835.483 400.44V400.38V393.82L835.603 393.6V389.42L834.203 389.22V388.36L838.423 387.46L838.743 387.68L838.663 390.48V400.88L839.643 401.06V402L835.743 402.22ZM840.678 402V401.06L842.538 400.66H844.038L845.978 401.06V402H840.678ZM841.718 402C841.731 401.693 841.738 401.293 841.738 400.8C841.751 400.293 841.758 399.773 841.758 399.24C841.771 398.693 841.778 398.213 841.778 397.8V396.86C841.778 396.313 841.771 395.853 841.758 395.48C841.758 395.107 841.745 394.72 841.718 394.32L840.498 394.14V393.36L844.678 392.02L845.018 392.24L844.958 395.14V397.8C844.958 398.213 844.958 398.693 844.958 399.24C844.971 399.773 844.978 400.293 844.978 400.8C844.991 401.293 845.005 401.693 845.018 402H841.718ZM843.298 390.6C842.818 390.6 842.411 390.453 842.078 390.16C841.758 389.853 841.598 389.467 841.598 389C841.598 388.533 841.758 388.153 842.078 387.86C842.411 387.567 842.818 387.42 843.298 387.42C843.765 387.42 844.158 387.573 844.478 387.88C844.811 388.173 844.978 388.547 844.978 389C844.978 389.467 844.811 389.853 844.478 390.16C844.158 390.453 843.765 390.6 843.298 390.6ZM852.086 402.3C851.06 402.3 850.16 402.1 849.386 401.7C848.626 401.3 848.033 400.72 847.606 399.96C847.193 399.2 846.986 398.293 846.986 397.24C846.986 396.133 847.206 395.193 847.646 394.42C848.1 393.633 848.72 393.04 849.506 392.64C850.306 392.227 851.213 392.02 852.226 392.02C852.933 392.02 853.573 392.153 854.146 392.42C854.72 392.687 855.18 393.04 855.526 393.48C855.873 393.92 856.073 394.407 856.126 394.94C856.006 395.3 855.84 395.567 855.626 395.74C855.413 395.9 855.126 395.98 854.766 395.98C854.38 395.98 854.04 395.84 853.746 395.56C853.453 395.28 853.28 394.787 853.226 394.08L853.046 392.66L854.506 393.5C854.2 393.34 853.906 393.227 853.626 393.16C853.346 393.093 853.046 393.06 852.726 393.06C852.353 393.06 851.98 393.187 851.606 393.44C851.233 393.693 850.926 394.093 850.686 394.64C850.446 395.173 850.326 395.873 850.326 396.74C850.326 397.567 850.453 398.253 850.706 398.8C850.96 399.333 851.293 399.733 851.706 400C852.133 400.267 852.613 400.4 853.146 400.4C853.453 400.4 853.74 400.367 854.006 400.3C854.273 400.22 854.526 400.107 854.766 399.96C855.02 399.8 855.253 399.593 855.466 399.34L856.146 399.9C855.893 400.42 855.573 400.86 855.186 401.22C854.8 401.567 854.353 401.833 853.846 402.02C853.34 402.207 852.753 402.3 852.086 402.3ZM851.346 403.78L851.626 401.92H852.666L852.486 403.46L851.866 402.94C852.493 402.993 853 403.1 853.386 403.26C853.786 403.42 854.08 403.627 854.266 403.88C854.453 404.133 854.546 404.413 854.546 404.72C854.546 405.24 854.32 405.667 853.866 406C853.413 406.333 852.74 406.5 851.846 406.5C851.526 406.5 851.24 406.473 850.986 406.42C850.746 406.38 850.513 406.32 850.286 406.24L850.506 405.3C850.693 405.353 850.873 405.393 851.046 405.42C851.22 405.46 851.393 405.48 851.566 405.48C851.926 405.48 852.186 405.407 852.346 405.26C852.52 405.127 852.606 404.947 852.606 404.72C852.606 404.427 852.5 404.2 852.286 404.04C852.073 403.893 851.76 403.807 851.346 403.78ZM859.763 402.3C858.99 402.3 858.357 402.08 857.863 401.64C857.383 401.2 857.143 400.567 857.143 399.74C857.143 399.26 857.25 398.827 857.463 398.44C857.677 398.053 858.063 397.693 858.623 397.36C859.183 397.027 859.977 396.72 861.003 396.44C861.363 396.347 861.723 396.253 862.083 396.16C862.443 396.067 862.797 395.973 863.143 395.88C863.49 395.773 863.843 395.673 864.203 395.58V396.4C863.763 396.533 863.337 396.667 862.923 396.8C862.51 396.933 862.13 397.053 861.783 397.16C861.383 397.28 861.057 397.447 860.803 397.66C860.563 397.873 860.383 398.12 860.263 398.4C860.157 398.68 860.103 398.987 860.103 399.32C860.103 399.787 860.217 400.133 860.443 400.36C860.683 400.573 860.97 400.68 861.303 400.68C861.503 400.68 861.697 400.653 861.883 400.6C862.083 400.533 862.303 400.42 862.543 400.26C862.783 400.1 863.083 399.887 863.443 399.62L863.643 400.66H862.803C862.483 401.007 862.183 401.3 861.903 401.54C861.623 401.78 861.317 401.967 860.983 402.1C860.663 402.233 860.257 402.3 859.763 402.3ZM864.823 402.28C864.13 402.28 863.597 402.113 863.223 401.78C862.85 401.433 862.623 400.973 862.543 400.4V400.3V395.36C862.543 394.76 862.497 394.3 862.403 393.98C862.31 393.647 862.143 393.413 861.903 393.28C861.677 393.133 861.343 393.06 860.903 393.06C860.663 393.06 860.403 393.08 860.123 393.12C859.843 393.16 859.483 393.24 859.043 393.36L860.423 392.56L860.263 393.96C860.237 394.627 860.083 395.107 859.803 395.4C859.523 395.68 859.19 395.82 858.803 395.82C858.457 395.82 858.163 395.74 857.923 395.58C857.697 395.407 857.543 395.153 857.463 394.82C857.517 393.98 857.937 393.307 858.723 392.8C859.51 392.28 860.617 392.02 862.043 392.02C862.91 392.02 863.603 392.153 864.123 392.42C864.643 392.673 865.023 393.073 865.263 393.62C865.503 394.167 865.623 394.893 865.623 395.8V400.28C865.623 400.467 865.663 400.613 865.743 400.72C865.837 400.813 865.95 400.86 866.083 400.86C866.19 400.86 866.29 400.827 866.383 400.76C866.477 400.693 866.577 400.58 866.683 400.42L867.223 400.78C866.983 401.327 866.67 401.713 866.283 401.94C865.91 402.167 865.423 402.28 864.823 402.28ZM858.303 390.32C858.41 389.333 858.65 388.613 859.023 388.16C859.41 387.693 859.877 387.46 860.423 387.46C860.73 387.46 861.003 387.513 861.243 387.62C861.483 387.727 861.703 387.853 861.903 388C862.117 388.147 862.317 388.293 862.503 388.44C862.703 388.573 862.917 388.64 863.143 388.64C863.41 388.64 863.637 388.533 863.823 388.32C864.023 388.107 864.183 387.813 864.303 387.44L865.143 387.7C865.037 388.673 864.797 389.4 864.423 389.88C864.05 390.347 863.597 390.58 863.063 390.58C862.783 390.58 862.51 390.527 862.243 390.42C861.99 390.3 861.757 390.173 861.543 390.04C861.357 389.893 861.157 389.753 860.943 389.62C860.743 389.473 860.523 389.4 860.283 389.4C860.017 389.4 859.79 389.507 859.603 389.72C859.43 389.933 859.277 390.22 859.143 390.58L858.303 390.32ZM872.788 402.3C871.762 402.3 870.862 402.087 870.088 401.66C869.328 401.22 868.742 400.613 868.328 399.84C867.928 399.053 867.728 398.153 867.728 397.14C867.728 396.1 867.948 395.2 868.388 394.44C868.842 393.68 869.448 393.087 870.208 392.66C870.982 392.233 871.842 392.02 872.788 392.02C873.748 392.02 874.608 392.233 875.368 392.66C876.142 393.073 876.755 393.66 877.208 394.42C877.662 395.18 877.888 396.087 877.888 397.14C877.888 398.167 877.675 399.073 877.248 399.86C876.835 400.633 876.248 401.233 875.488 401.66C874.728 402.087 873.828 402.3 872.788 402.3ZM872.788 401.26C873.175 401.26 873.488 401.12 873.728 400.84C873.982 400.547 874.168 400.1 874.288 399.5C874.422 398.9 874.488 398.127 874.488 397.18C874.488 396.22 874.422 395.44 874.288 394.84C874.168 394.24 873.982 393.8 873.728 393.52C873.488 393.227 873.175 393.08 872.788 393.08C872.415 393.08 872.102 393.227 871.848 393.52C871.608 393.8 871.422 394.24 871.288 394.84C871.168 395.44 871.108 396.22 871.108 397.18C871.108 398.127 871.168 398.9 871.288 399.5C871.422 400.1 871.608 400.547 871.848 400.84C872.102 401.12 872.415 401.26 872.788 401.26ZM883.394 402V400.92L886.294 400.62H886.594V402H883.394ZM884.874 402C884.901 401.32 884.914 400.64 884.914 399.96C884.928 399.28 884.934 398.593 884.934 397.9C884.934 397.193 884.934 396.493 884.934 395.8V395.06C884.934 394.367 884.934 393.673 884.934 392.98C884.934 392.287 884.928 391.6 884.914 390.92C884.914 390.227 884.901 389.54 884.874 388.86H888.354C888.341 389.527 888.328 390.207 888.314 390.9C888.301 391.58 888.294 392.267 888.294 392.96C888.294 393.653 888.294 394.353 888.294 395.06V395.72C888.294 396.427 888.294 397.133 888.294 397.84C888.294 398.547 888.301 399.247 888.314 399.94C888.328 400.62 888.341 401.307 888.354 402H884.874ZM886.594 402V400.88H892.674L891.974 401.48L892.474 398.56H894.134L893.994 402H886.594ZM886.594 395.8V394.62H891.014V395.8H886.594ZM890.694 397.36L890.394 395.34V394.98L890.694 393.06H891.854V397.36H890.694ZM883.394 389.92V388.86H886.594V390.22H886.294L883.394 389.92ZM892.074 392.3L891.574 389.38L892.274 389.98H886.594V388.86H893.614L893.734 392.3H892.074ZM898.709 402.3C898.056 402.3 897.442 402.227 896.869 402.08C896.309 401.933 895.762 401.7 895.229 401.38L895.289 398.94H896.889L897.349 401.6H896.269V400.42C896.696 400.673 897.096 400.867 897.469 401C897.856 401.133 898.276 401.2 898.729 401.2C899.116 401.2 899.442 401.16 899.709 401.08C899.976 401 900.176 400.873 900.309 400.7C900.442 400.513 900.509 400.287 900.509 400.02C900.509 399.713 900.389 399.447 900.149 399.22C899.922 398.993 899.482 398.787 898.829 398.6L897.749 398.28C897.242 398.12 896.802 397.907 896.429 397.64C896.069 397.36 895.796 397.027 895.609 396.64C895.422 396.253 895.329 395.807 895.329 395.3C895.329 394.687 895.489 394.133 895.809 393.64C896.129 393.147 896.596 392.753 897.209 392.46C897.836 392.167 898.602 392.02 899.509 392.02C900.096 392.02 900.642 392.093 901.149 392.24C901.656 392.373 902.162 392.573 902.669 392.84L902.529 395.02H900.929L900.389 392.68H901.469V393.78C901.109 393.54 900.789 393.373 900.509 393.28C900.229 393.187 899.869 393.14 899.429 393.14C898.976 393.14 898.609 393.233 898.329 393.42C898.062 393.607 897.929 393.887 897.929 394.26C897.929 394.54 898.036 394.787 898.249 395C898.462 395.2 898.916 395.4 899.609 395.6L900.569 395.88C901.209 396.067 901.722 396.307 902.109 396.6C902.496 396.893 902.776 397.24 902.949 397.64C903.136 398.027 903.229 398.473 903.229 398.98C903.229 399.687 903.049 400.287 902.689 400.78C902.329 401.273 901.809 401.653 901.129 401.92C900.462 402.173 899.656 402.3 898.709 402.3ZM904.115 406.54V405.6L906.035 405.2H907.975L909.715 405.6V406.54H904.115ZM905.215 406.54C905.228 405.953 905.235 405.393 905.235 404.86C905.248 404.34 905.255 403.847 905.255 403.38C905.268 402.927 905.275 402.487 905.275 402.06V396.64C905.275 396.267 905.268 395.96 905.255 395.72C905.255 395.48 905.248 395.253 905.235 395.04C905.235 394.827 905.228 394.587 905.215 394.32L903.975 394.14V393.36L907.895 392.02L908.235 392.22L908.355 393.78L908.455 394.08V400.36L908.395 400.6V402.04C908.395 402.467 908.395 402.913 908.395 403.38C908.408 403.847 908.415 404.34 908.415 404.86C908.428 405.393 908.442 405.953 908.455 406.54H905.215ZM910.915 402.3C910.435 402.3 910.002 402.227 909.615 402.08C909.228 401.933 908.875 401.713 908.555 401.42C908.248 401.127 907.962 400.753 907.695 400.3H907.175L907.355 398.86C907.768 399.407 908.148 399.84 908.495 400.16C908.842 400.467 909.262 400.62 909.755 400.62C910.168 400.62 910.522 400.5 910.815 400.26C911.122 400.007 911.362 399.627 911.535 399.12C911.708 398.6 911.795 397.947 911.795 397.16C911.795 395.973 911.615 395.113 911.255 394.58C910.895 394.033 910.422 393.76 909.835 393.76C909.475 393.76 909.135 393.867 908.815 394.08C908.508 394.28 908.222 394.52 907.955 394.8C907.688 395.067 907.442 395.313 907.215 395.54L907.035 394.06H907.715C908.062 393.593 908.415 393.213 908.775 392.92C909.148 392.627 909.542 392.407 909.955 392.26C910.368 392.1 910.808 392.02 911.275 392.02C911.995 392.02 912.648 392.213 913.235 392.6C913.835 392.987 914.308 393.56 914.655 394.32C915.015 395.067 915.195 396 915.195 397.12C915.195 398.2 914.995 399.127 914.595 399.9C914.195 400.66 913.668 401.253 913.015 401.68C912.375 402.093 911.675 402.3 910.915 402.3ZM921.598 402.3C920.598 402.3 919.712 402.107 918.938 401.72C918.165 401.333 917.558 400.767 917.118 400.02C916.692 399.273 916.478 398.36 916.478 397.28C916.478 396.173 916.692 395.233 917.118 394.46C917.558 393.673 918.158 393.073 918.918 392.66C919.678 392.233 920.525 392.02 921.458 392.02C922.352 392.02 923.118 392.207 923.758 392.58C924.398 392.953 924.892 393.453 925.238 394.08C925.585 394.707 925.758 395.427 925.758 396.24C925.758 396.467 925.745 396.667 925.718 396.84C925.705 397 925.678 397.16 925.638 397.32H917.818V396.28H921.538C922.032 396.28 922.358 396.18 922.518 395.98C922.692 395.78 922.778 395.46 922.778 395.02C922.778 394.553 922.718 394.18 922.598 393.9C922.478 393.607 922.318 393.393 922.118 393.26C921.918 393.127 921.698 393.06 921.458 393.06C921.165 393.06 920.892 393.18 920.638 393.42C920.398 393.647 920.198 394.033 920.038 394.58C919.892 395.127 919.818 395.887 919.818 396.86C919.818 397.673 919.945 398.34 920.198 398.86C920.465 399.38 920.818 399.767 921.258 400.02C921.712 400.273 922.198 400.4 922.718 400.4C923.238 400.4 923.685 400.313 924.058 400.14C924.445 399.967 924.792 399.7 925.098 399.34L925.778 399.9C925.498 400.42 925.165 400.86 924.778 401.22C924.392 401.58 923.938 401.847 923.418 402.02C922.898 402.207 922.292 402.3 921.598 402.3ZM932.008 402.3C930.981 402.3 930.081 402.1 929.308 401.7C928.548 401.3 927.955 400.72 927.528 399.96C927.115 399.2 926.908 398.293 926.908 397.24C926.908 396.133 927.128 395.193 927.568 394.42C928.021 393.633 928.641 393.04 929.428 392.64C930.228 392.227 931.135 392.02 932.148 392.02C932.855 392.02 933.495 392.153 934.068 392.42C934.641 392.687 935.101 393.04 935.448 393.48C935.795 393.92 935.995 394.407 936.048 394.94C935.928 395.3 935.761 395.567 935.548 395.74C935.335 395.9 935.048 395.98 934.688 395.98C934.301 395.98 933.961 395.84 933.668 395.56C933.375 395.28 933.201 394.787 933.148 394.08L932.968 392.66L934.428 393.5C934.121 393.34 933.828 393.227 933.548 393.16C933.268 393.093 932.968 393.06 932.648 393.06C932.275 393.06 931.901 393.187 931.528 393.44C931.155 393.693 930.848 394.093 930.608 394.64C930.368 395.173 930.248 395.873 930.248 396.74C930.248 397.567 930.375 398.253 930.628 398.8C930.881 399.333 931.215 399.733 931.628 400C932.055 400.267 932.535 400.4 933.068 400.4C933.375 400.4 933.661 400.367 933.928 400.3C934.195 400.22 934.448 400.107 934.688 399.96C934.941 399.8 935.175 399.593 935.388 399.34L936.068 399.9C935.815 400.42 935.495 400.86 935.108 401.22C934.721 401.567 934.275 401.833 933.768 402.02C933.261 402.207 932.675 402.3 932.008 402.3ZM937.182 402V401.06L939.042 400.66H940.542L942.482 401.06V402H937.182ZM938.222 402C938.235 401.693 938.242 401.293 938.242 400.8C938.255 400.293 938.262 399.773 938.262 399.24C938.275 398.693 938.282 398.213 938.282 397.8V396.86C938.282 396.313 938.275 395.853 938.262 395.48C938.262 395.107 938.249 394.72 938.222 394.32L937.002 394.14V393.36L941.182 392.02L941.522 392.24L941.462 395.14V397.8C941.462 398.213 941.462 398.693 941.462 399.24C941.475 399.773 941.482 400.293 941.482 400.8C941.495 401.293 941.509 401.693 941.522 402H938.222ZM939.802 390.6C939.322 390.6 938.915 390.453 938.582 390.16C938.262 389.853 938.102 389.467 938.102 389C938.102 388.533 938.262 388.153 938.582 387.86C938.915 387.567 939.322 387.42 939.802 387.42C940.269 387.42 940.662 387.573 940.982 387.88C941.315 388.173 941.482 388.547 941.482 389C941.482 389.467 941.315 389.853 940.982 390.16C940.662 390.453 940.269 390.6 939.802 390.6ZM946.15 402.3C945.377 402.3 944.743 402.08 944.25 401.64C943.77 401.2 943.53 400.567 943.53 399.74C943.53 399.26 943.637 398.827 943.85 398.44C944.063 398.053 944.45 397.693 945.01 397.36C945.57 397.027 946.363 396.72 947.39 396.44C947.75 396.347 948.11 396.253 948.47 396.16C948.83 396.067 949.183 395.973 949.53 395.88C949.877 395.773 950.23 395.673 950.59 395.58V396.4C950.15 396.533 949.723 396.667 949.31 396.8C948.897 396.933 948.517 397.053 948.17 397.16C947.77 397.28 947.443 397.447 947.19 397.66C946.95 397.873 946.77 398.12 946.65 398.4C946.543 398.68 946.49 398.987 946.49 399.32C946.49 399.787 946.603 400.133 946.83 400.36C947.07 400.573 947.357 400.68 947.69 400.68C947.89 400.68 948.083 400.653 948.27 400.6C948.47 400.533 948.69 400.42 948.93 400.26C949.17 400.1 949.47 399.887 949.83 399.62L950.03 400.66H949.19C948.87 401.007 948.57 401.3 948.29 401.54C948.01 401.78 947.703 401.967 947.37 402.1C947.05 402.233 946.643 402.3 946.15 402.3ZM951.21 402.28C950.517 402.28 949.983 402.113 949.61 401.78C949.237 401.433 949.01 400.973 948.93 400.4V400.3V395.36C948.93 394.76 948.883 394.3 948.79 393.98C948.697 393.647 948.53 393.413 948.29 393.28C948.063 393.133 947.73 393.06 947.29 393.06C947.05 393.06 946.79 393.08 946.51 393.12C946.23 393.16 945.87 393.24 945.43 393.36L946.81 392.56L946.65 393.96C946.623 394.627 946.47 395.107 946.19 395.4C945.91 395.68 945.577 395.82 945.19 395.82C944.843 395.82 944.55 395.74 944.31 395.58C944.083 395.407 943.93 395.153 943.85 394.82C943.903 393.98 944.323 393.307 945.11 392.8C945.897 392.28 947.003 392.02 948.43 392.02C949.297 392.02 949.99 392.153 950.51 392.42C951.03 392.673 951.41 393.073 951.65 393.62C951.89 394.167 952.01 394.893 952.01 395.8V400.28C952.01 400.467 952.05 400.613 952.13 400.72C952.223 400.813 952.337 400.86 952.47 400.86C952.577 400.86 952.677 400.827 952.77 400.76C952.863 400.693 952.963 400.58 953.07 400.42L953.61 400.78C953.37 401.327 953.057 401.713 952.67 401.94C952.297 402.167 951.81 402.28 951.21 402.28ZM954.055 402V401.06L955.975 400.66H957.495L959.535 401.06V402H954.055ZM955.155 402C955.168 401.533 955.175 401.067 955.175 400.6C955.188 400.133 955.195 399.667 955.195 399.2C955.208 398.733 955.215 398.267 955.215 397.8V389.42L953.955 389.22V388.36L958.155 387.46L958.475 387.68L958.395 390.48V397.8C958.395 398.267 958.395 398.733 958.395 399.2C958.408 399.667 958.415 400.133 958.415 400.6C958.428 401.067 958.442 401.533 958.455 402H955.155Z" fill="white"/>
</g>
<defs>
<clipPath id="clip0_2111_982">
<rect width="1004" height="436" fill="white"/>
</clipPath>
</defs>
</svg>
